<?xml version="1.0" encoding="utf-8"?>
<!-- Generator: Adobe Illustrator 23.0.1, SVG Export Plug-In . SVG Version: 6.00 Build 0)  -->
<svg version="1.1" id="bd2cc7d1-84bf-4eba-bc4c-9f93ef6f675e"
	 xmlns="http://www.w3.org/2000/svg" xmlns:xlink="http://www.w3.org/1999/xlink" x="0px" y="0px" viewBox="0 0 1011 586"
	 style="enable-background:new 0 0 1011 586;" xml:space="preserve">
<style type="text/css">
	.st0{fill:#DCA86E;}
	.st1{fill:url(#SVGID_1_);}
	.st2{fill:#50CC85;}
	.st3{fill:#77E6A6;}
	.st4{fill:#D2DCEB;}
	.st5{fill:#F3BA7A;}
	.st6{fill:#A6AEBA;}
	.st7{fill:#11AB7C;}
	.st8{opacity:0.1;enable-background:new    ;}
	.st9{fill:#F2F2F2;}
	.st10{opacity:3.000000e-02;enable-background:new    ;}
	.st11{fill:none;stroke:#11AB7C;stroke-width:4;stroke-miterlimit:10;}
	.st12{fill:#F5B759;}
	.st13{fill:#EF6C4D;}
	.st14{fill:none;stroke:#3F3D56;stroke-width:4;stroke-miterlimit:10;}
	.st15{opacity:0.25;fill:#FFFFFF;enable-background:new    ;}
	.st16{fill:#464353;}
	.st17{fill:#10AB7C;stroke:#209B7C;stroke-miterlimit:10;}
	.st18{fill:#11AB7C;stroke:#209B7C;stroke-miterlimit:10;}
	.st19{fill:none;stroke:#209B7C;stroke-miterlimit:10;}
	.st20{fill:#264992;}
	.st21{fill:#FF6584;}
	.st22{fill:#FFFFFF;}
</style>
<g>
	<g>
		<polygon class="st0" points="131.6,382.8 53.2,552.2 44.4,552.2 112.2,371.8 		"/>
		<polygon class="st0" points="212.6,386.5 291,552.2 299.8,552.2 232.1,382.7 		"/>
		
			<linearGradient id="SVGID_1_" gradientUnits="userSpaceOnUse" x1="604.2654" y1="306.2018" x2="832.6528" y2="306.2018" gradientTransform="matrix(-1 0 0 1 863.278 0)">
			<stop  offset="0" style="stop-color:#343A44"/>
			<stop  offset="0.3009" style="stop-color:#232D3E"/>
			<stop  offset="0.6391" style="stop-color:#182439"/>
			<stop  offset="1" style="stop-color:#142138"/>
		</linearGradient>
		<path class="st1" d="M259,376.5c0,0-54.6,20.4-127.4-7.2C58.8,341.7,39,212.8,39,212.8l-8.3,4.2c0,0,8.1,142.3,103.9,173.2
			c73.3,23.6,124.4-4.5,124.4-4.5V376.5z"/>
	</g>
	<g>
		<g>
			<g>
				<path class="st2" d="M677.1,186.3c0,0-3.7-9-10.3-17c-6.7-8-16.6-21.3-16.6-21.3s4.8,9.5,11.4,20.2
					C668.2,178.9,677.1,186.3,677.1,186.3z"/>
				<path class="st2" d="M670.2,170.7c0,0-7.4-5.8-11.8-18.1c-4.4-12.3-8.5-21.6-8.5-21.6s9.6,13.7,13.7,23.2
					C667.8,163.7,670.2,170.7,670.2,170.7z"/>
				<path class="st2" d="M676.6,184.6c0,0-3.9-14-4.6-25.2c-0.8-11.2-0.7-18.2-0.7-18.2s4.9,20.3,6.3,28.9
					C679.2,178.7,676.6,184.6,676.6,184.6z"/>
				<path class="st2" d="M679.9,193.9c0,0-1.2-14.4,2.8-27.4c4.1-12.9,4.3-21.1,4.3-21.1s1.9,13.5-0.4,25.2
					C684.4,182.3,679.9,193.9,679.9,193.9z"/>
				<path class="st2" d="M678.7,190.7c0,0-10.3-8.8-15.4-10.8c-5.2-2.1-12.4-8.1-12.4-8.1s8.9,11.4,13.9,13.7
					C669.8,187.8,678.7,190.7,678.7,190.7z"/>
				<path class="st2" d="M682.3,203c0,0-1-7.9,3.6-19.1c4.6-11.2,5.6-16.7,5.6-16.7s0.3,15.2-2.7,20.9
					C685.8,193.8,682.3,203,682.3,203z"/>
				<path class="st2" d="M681.3,197.2c0,0-5.9-3.9-11.6-4.7c-5.7-0.8-7.2-1.6-7.2-1.6s2.9,5.3,9.9,6.1
					C679.4,197.9,681.3,197.2,681.3,197.2z"/>
				<path class="st2" d="M685.2,210.5c-1.3-5-2.9-12.6-4.6-17.8c-3.7-11.3-12.6-25.9-12.6-25.9c5.4,12,9.4,18.8,12.1,29.2
					c1.1,4.1,2.9,9.8,4,13.5C684.2,210.6,685,211.5,685.2,210.5z"/>
			</g>
			<g>
				<path class="st3" d="M682.6,190.4c0,0,0.6-10.3,4.5-20.6c3.9-10.3,9.3-27.2,9.3-27.2s-1.6,11.2-4.5,24.2
					C689,179.8,682.6,190.4,682.6,190.4z"/>
				<path class="st3" d="M684.1,172.3c0,0,5.4-8.4,5.6-22.2c0.2-13.9,1-24.6,1-24.6s-4.9,17.1-5.7,28
					C684.2,164.4,684.1,172.3,684.1,172.3z"/>
				<path class="st3" d="M682.5,188.4c0,0-1-15.4-4.1-26.9c-3.1-11.5-5.6-18.6-5.6-18.6s2.1,22.1,3.6,31.3
					C677.9,183.4,682.5,188.4,682.5,188.4z"/>
				<path class="st3" d="M682.4,199c0,0-3.8-14.9-12.3-26.5c-8.6-11.6-11.6-19.8-11.6-19.8s2.7,14.3,9.1,25.2
					C673.9,188.8,682.4,199,682.4,199z"/>
				<path class="st3" d="M682.5,195.3c0,0,7.3-12.4,11.8-16.2c4.5-3.9,9.7-12.4,9.7-12.4s-5,14.6-9.2,18.6
					C690.5,189.2,682.5,195.3,682.5,195.3z"/>
				<path class="st3" d="M683.1,208.9c0,0-1.7-8.3-10.2-17.9c-8.5-9.6-11.5-14.8-11.5-14.8s5,15.3,10,20
					C676.5,200.8,683.1,208.9,683.1,208.9z"/>
				<path class="st3" d="M682.1,202.8c0,0,4.6-6,10-8.8c5.4-2.8,6.7-4.1,6.7-4.1s-1.1,6.3-7.8,9.6
					C684.3,202.8,682.1,202.8,682.1,202.8z"/>
				<path class="st2" d="M682.8,217.4c-0.4-5.4-1.4-13.7-1.5-19.4c-0.2-12.7,3.7-30.4,3.7-30.4c-1.3,14-2.9,22.1-2.1,33.5
					c0.3,4.5,0.4,10.9,0.7,15C683.9,217.2,683.3,218.4,682.8,217.4z"/>
			</g>
			<g>
				<path class="st2" d="M690.4,192.5c0,0,3.7-9,10.3-17c6.7-8,16.6-21.3,16.6-21.3s-4.8,9.5-11.4,20.2
					C699.3,185.1,690.4,192.5,690.4,192.5z"/>
				<path class="st2" d="M697.3,176.9c0,0,7.4-5.8,11.8-18.1c4.4-12.3,8.5-21.6,8.5-21.6s-9.6,13.7-13.7,23.2
					C699.7,169.9,697.3,176.9,697.3,176.9z"/>
				<path class="st2" d="M690.9,190.8c0,0,3.9-14,4.6-25.2c0.8-11.2,0.7-18.2,0.7-18.2s-4.9,20.3-6.3,28.9
					C688.4,184.9,690.9,190.8,690.9,190.8z"/>
				<path class="st2" d="M687.6,200.1c0,0,1.2-14.4-2.8-27.4c-4.1-12.9-4.3-21.1-4.3-21.1s-1.9,13.5,0.4,25.2
					C683.1,188.4,687.6,200.1,687.6,200.1z"/>
				<path class="st2" d="M688.8,196.9c0,0,10.3-8.8,15.4-10.8c5.2-2.1,12.4-8.1,12.4-8.1s-8.9,11.4-13.9,13.7
					C697.7,193.9,688.8,196.9,688.8,196.9z"/>
				<path class="st2" d="M685.2,209.1c0,0,1-7.9-3.6-19.1c-4.6-11.2-5.6-16.7-5.6-16.7s-0.3,15.2,2.7,20.9
					C681.7,199.9,685.2,209.1,685.2,209.1z"/>
				<path class="st2" d="M686.2,203.4c0,0,5.9-3.9,11.6-4.7c5.7-0.8,7.2-1.6,7.2-1.6s-2.9,5.3-9.9,6.1
					C688.1,204.1,686.2,203.4,686.2,203.4z"/>
				<path class="st2" d="M682.3,216.7c1.3-5,2.9-12.6,4.6-17.8c3.7-11.3,12.6-25.9,12.6-25.9c-5.4,12-9.4,18.8-12.1,29.2
					c-1.1,4.1-2.9,9.8-4,13.5C683.3,216.8,682.5,217.6,682.3,216.7z"/>
			</g>
			<polygon class="st4" points="669.3,251.3 697.1,251.3 705.7,202.3 659.7,202.3 			"/>
		</g>
		<g>
			<g>
				<polygon class="st0" points="351.4,264.8 305.6,551.7 296.7,551.6 333,264.7 				"/>
				<polygon class="st0" points="667.7,264.9 727.5,552.1 739.4,552.1 692.5,265 				"/>
			</g>
			<rect x="268.1" y="248" class="st0" width="493.7" height="22.1"/>
			<rect x="244.4" y="248" class="st5" width="541" height="14.7"/>
		</g>
		<g>
			<g>
				<polygon class="st6" points="395.7,240.3 414.9,240.3 434.1,117.8 419.5,117.8 				"/>
				<polygon class="st4" points="401.3,240.3 476.2,240.3 495.4,117.8 420.5,117.8 				"/>
				
					<rect x="395.7" y="237.5" transform="matrix(-1 -4.489310e-11 4.489310e-11 -1 872.9377 484.1182)" class="st4" width="81.5" height="9.1"/>
				
					<rect x="293" y="237.5" transform="matrix(-1 -4.489443e-11 4.489443e-11 -1 688.7643 484.1182)" class="st6" width="102.7" height="9.1"/>
				<path class="st6" d="M442.4,185c-2.2,9.4-0.6,19.5,3.4,22.6c4.1,3.1,9.1-2,11.3-11.3c2.2-9.4,0.6-19.5-3.4-22.6
					C449.6,170.5,444.6,175.6,442.4,185z"/>
			</g>
		</g>
		<g>
			<path class="st6" d="M559,246.2h10.6c4.4,0,8.1-3.2,8.8-7.5l4.2-27.4h-36.7l4.2,27.4C550.9,243,554.6,246.2,559,246.2z"/>
			<g>
				<path class="st6" d="M536.6,228.3L536.6,228.3c-0.9-4.9,0.6-7.9,2-9.6c1.9-2.3,5.1-3.6,8.6-3.6c5.8,0,10.5,5.8,10.5,12.9
					c0,7-6.2,11.8-6.5,12l-0.4,0.3l-0.5,0c-0.4,0-0.8,0-1.2,0C542.6,240.4,538,236,536.6,228.3z M554.3,228c0-5.3-3.2-9.6-7.2-9.6
					c-2.5,0-4.7,0.9-6,2.4c-1.3,1.6-1.8,3.9-1.2,6.8l0,0c0.8,4.4,2.9,9.6,9.6,9.3C550.7,236,554.3,232.4,554.3,228z"/>
			</g>
		</g>
		<polygon class="st4" points="586.3,248.6 539.8,248.6 532.4,240.4 593.7,240.4 		"/>
	</g>
</g>
<title>close_tab</title>
<path class="st7" d="M1005.2,564c0,5.3-45.9,10.1-121.8,13.8c-13.8,0.6-28.6,1.3-44.3,1.9c-13.6,0.5-27.8,1-42.7,1.5
	c-14.4,0.4-29.3,0.9-44.8,1.2c-48.9,1.2-103,2-160.6,2.5c-13.9,0.1-28.1,0.2-42.5,0.2c-14.9,0.1-30,0.1-45.3,0.1
	c-277.2,0-501.8-9.5-501.8-21.1s224.7-21.2,501.8-21.2c119.3,0,228.9,1.7,315,4.6l9.4,0.3h0.1C936.3,551.7,1005.2,557.5,1005.2,564z
	"/>
<path class="st8" d="M1005.2,564c0,5.3-45.9,10.1-121.8,13.8c-13.8,0.6-28.6,1.3-44.3,1.9c-13.6,0.5-27.8,1-42.7,1.5
	c-14.4,0.4-29.3,0.9-44.8,1.2c-48.9,1.2-103,2-160.6,2.5c-13.9,0.1-28.1,0.2-42.5,0.2c-14.9,0.1-30,0.1-45.3,0.1
	c-277.2,0-501.8-9.5-501.8-21.1s224.7-21.2,501.8-21.2c119.3,0,228.9,1.7,315,4.6l9.4,0.3h0.1C936.3,551.7,1005.2,557.5,1005.2,564z
	"/>
<path class="st7" d="M1005.2,556c0,5.3-45.9,10.1-121.8,13.8c-13.8,0.6-28.6,1.3-44.3,1.9c-13.6,0.5-27.8,1-42.7,1.5
	c-14.4,0.4-29.3,0.9-44.8,1.2c-48.9,1.2-103,2-160.6,2.5c-13.9,0.1-28.1,0.2-42.5,0.2c-14.9,0-30,0.1-45.3,0.1
	c-277.2,0-501.8-9.5-501.8-21.1S226.2,535,503.3,535c119.3,0,228.9,1.7,315,4.6l9.4,0.3h0.1C936.3,543.7,1005.2,549.5,1005.2,556z"
	/>
<path class="st7" d="M1005.2,556c0,5.3-45.9,10.1-121.8,13.8c-13.8,0.6-28.6,1.3-44.3,1.9c-13.6,0.5-27.8,1-42.7,1.5
	c-14.4,0.4-29.3,0.9-44.8,1.2c-48.9,1.2-103,2-160.6,2.5c-13.9,0.1-28.1,0.2-42.5,0.2c-14.9,0.1-30,0.1-45.3,0.1
	C226,577.2,1.4,567.7,1.4,556c0-10.1,167.2-18.5,391.1-20.7c12.7-0.1,25.6-0.2,38.7-0.3c23.5-0.1,47.5-0.2,72-0.2s48.5,0.1,72,0.2
	c13,0.1,26,0.2,38.7,0.3c76.1,0.8,145.6,2.2,204.2,4.2l9.4,0.3h0.1C936.3,543.7,1005.2,549.5,1005.2,556z"/>
<ellipse class="st8" cx="843.9" cy="554.2" rx="117.1" ry="12.5"/>
<path class="st9" d="M986.5,59.1L969,70.2l10.6-19.4c-3-2.4-6.7-3.8-10.6-3.8h-0.3c-1.2,0-2.4-0.1-3.7-0.3l-5.9,3.8l2.6-4.6
	c-4.2-1.5-7.9-4.2-10.3-7.9l-10.6,6.8l6.7-12.3c-6.3-7.5-14.5-12.1-23.7-12.1c-11,0-20.8,6.6-27.2,16.9c-3.8,6.3-10.7,10-18,9.8H878
	c-12.2,0-22,13.9-22,31s9.9,31,22,31c2.7,0,5.3-0.6,7.7-1.9c8-4.2,18.3-4.2,26.6-0.5c7.2,3.2,15.4,3.2,22.6,0.1
	c8.3-3.7,18.5-3.6,26.4,0.5c2.4,1.3,5,1.9,7.5,1.9c12.2,0,22-13.9,22-31C991.1,71.5,989.6,64.9,986.5,59.1z"/>
<path class="st10" d="M916.2,109.4c-6.4-1.2-12.9-0.5-18.9,2c-7.2,3.2-15.4,3.2-22.6,0c-8.3-3.7-18.8-3.7-26.7,0.5
	c-2.4,1.3-5,1.9-7.7,1.9c-10.9,0-19.8-11-21.7-25.5c2.2-1.6,4-3.6,5.4-5.8c6.4-10.2,16.2-16.9,27.2-16.9s20.7,6.6,27.1,16.7
	c3.9,6.3,10.7,10,18,9.9h0.3C905.1,92.4,912.4,99.3,916.2,109.4z"/>
<path class="st9" d="M194.1,41.7l-8.7,5.6l5.3-9.7c-1.5-1.2-3.3-1.9-5.3-1.9h-0.1c-0.6,0-1.2,0-1.8-0.1l-2.9,1.9l1.3-2.4
	c-2-0.8-3.9-2.2-5.2-4l-5.3,3.3l3.3-6.1c-2.8-3.7-7.2-5.9-11.9-6c-5.5,0-10.3,3.3-13.6,8.4c-1.9,3.1-5.3,5-8.9,4.8H140
	c-6,0-11,6.9-11,15.5c0,8.5,5,15.4,11,15.4c1.3,0,2.7-0.3,3.9-1c4.2-2,9.1-2.2,13.3-0.2c3.6,1.6,7.8,1.6,11.3,0
	c4.2-1.8,9.1-1.7,13.1,0.2c1.2,0.6,2.5,1,3.8,1c6,0,11-6.9,11-15.4C196.5,47.8,195.6,44.6,194.1,41.7z"/>
<path class="st10" d="M92.9,42.1c-3.1-0.6-6.5-0.2-9.4,1.1c-3.6,1.6-7.8,1.6-11.3,0c-4.3-1.8-9.2-1.8-13.4,0.2c-1.2,0.6-2.5,1-3.9,1
	c-5.4,0-9.9-5.5-10.8-12.7c1.1-0.8,1.9-1.7,2.7-2.9c3.1-5.2,8.1-8.4,13.6-8.4s10.3,3.2,13.5,8.3c1.9,3.1,5.3,5,8.9,5H83
	C87.3,33.6,91,37.1,92.9,42.1z"/>
<path class="st9" d="M362.6,63.5l14,8.9l-8.5-15.5c2.4-1.9,5.4-3,8.5-3h0.2c1,0,1.9-0.1,2.9-0.2l4.7,3l-2-3.8
	c3.3-1.2,6.3-3.4,8.3-6.4l8.5,5.4l-5.3-9.8c5-6,11.6-9.7,19.1-9.7c8.8,0,16.7,5.3,21.8,13.5c3,5.1,8.5,8,14.3,7.9h0.4
	c9.7,0,17.7,11.1,17.7,24.9c0,13.8-7.9,24.9-17.7,24.9c-2.2,0-4.3-0.5-6.1-1.5c-6.7-3.2-14.5-3.4-21.3-0.4c-5.8,2.6-12.4,2.7-18.2,0
	c-6.8-3-14.5-2.8-21.2,0.4c-1.8,1-4,1.5-6,1.5c-9.8,0-17.7-11.1-17.7-24.9C358.8,73.4,360,68.2,362.6,63.5z"/>
<path class="st10" d="M274.7,229.6c5.1-1,10.3-0.4,15.1,1.6c5.8,2.6,12.4,2.6,18.2,0c6.8-3,14.7-2.9,21.3,0.4c1.9,1,4,1.5,6.1,1.5
	c8.6,0,15.8-8.8,17.4-20.4c-1.7-1.3-3.2-2.9-4.4-4.7c-5.1-8.2-12.9-13.5-21.8-13.5c-8.8,0-16.6,5.3-21.7,13.4c-3.1,5-8.5,8-14.3,8
	h-0.2C283.6,215.9,277.6,221.4,274.7,229.6z"/>
<path class="st11" d="M850.8,546.9c1-1.9-0.1-4.2-1.5-5.9s-2.9-3.4-2.9-5.6c0-3.1,3.3-4.9,5.9-6.5c1.9-1.2,3.7-2.6,5.3-4.3
	c0.6-0.7,1.2-1.4,1.6-2.2c0.5-1.2,0.5-2.6,0.5-3.9c-0.1-4.4-0.3-8.8-0.7-13.2"/>
<path class="st12" d="M864,505.1c-0.1-1.6-1-3.1-2.4-3.9l-1.1,2.1v-2.6c-2.5-0.7-5.2,0.7-5.9,3.3c-0.7,2.6,0.7,5.2,3.2,6
	c2.5,0.7,5.2-0.7,5.9-3.3C863.9,506.2,864,505.7,864,505.1z"/>
<path class="st12" d="M855.5,537.6c-1.2,2.3-4.1,3.3-6.4,2.1s-3.3-4.1-2.1-6.5c1.2-2.3,4.1-3.3,6.4-2.1c1.1,0.5,1.9,1.5,2.3,2.6
	l-3,2.4l3.3-0.8C856,536.2,855.8,537,855.5,537.6z"/>
<path class="st13" d="M853.1,528.3c-2.6,0.1-4.8-1.9-5-4.6c-0.1-2.2,1.3-4.2,3.5-4.8v2l1.1-2.2l0,0c2.6-0.2,4.9,1.8,5.1,4.5
	c0.2,2.6-1.8,4.9-4.4,5.1C853.3,528.3,853.2,528.3,853.1,528.3L853.1,528.3z"/>
<path class="st13" d="M864.7,520.6c-2.6,0.1-4.8-1.9-5-4.6c-0.1-2.6,1.9-4.9,4.5-5c0.9,0,1.8,0.2,2.6,0.6l-0.8,2.3l1.7-1.7
	c0.9,0.8,1.5,2,1.5,3.3c0,0.4,0,0.9-0.1,1.3C868.6,519,866.8,520.5,864.7,520.6z"/>
<path class="st8" d="M863.3,506.4c-1.1,0.1-2.2,0.5-3.3,0.5c-1.1,0.1-2.3-0.2-3-1.1c-0.4-0.5-0.6-1.1-0.9-1.6
	c-0.3-0.5-0.7-0.9-1.2-1.1c-1.2,2.4-0.3,5.2,2.1,6.5c2.3,1.2,5.2,0.3,6.4-2.1c0.2-0.4,0.3-0.8,0.4-1.2
	C863.7,506.4,863.5,506.4,863.3,506.4z"/>
<path class="st8" d="M864.7,520.6c-2.6,0.1-4.8-1.9-5-4.6c0-0.8,0.1-1.5,0.4-2.2c0.4,0.3,0.7,0.6,1,1c0.3,0.5,0.5,1.1,0.9,1.6
	c0.7,0.9,2,1.2,3.2,1.1c1.1,0,2.2-0.4,3.4-0.5c0.2,0,0.3,0,0.5,0C868.6,519,866.8,520.5,864.7,520.6z"/>
<path class="st8" d="M853.1,528.3c-2.6,0.1-4.9-1.9-5-4.5c0-0.7,0.1-1.5,0.4-2.2c0.4,0.3,0.7,0.6,1,1c0.4,0.5,0.6,1.1,1,1.6
	c0.8,0.9,2.2,1.2,3.4,1.2s2.3-0.3,3.5-0.4C856.9,526.9,855.1,528.2,853.1,528.3z"/>
<path class="st14" d="M522.8,506.8c-1.6-3,0.2-6.7,2.3-9.3c2.1-2.7,4.6-5.5,4.6-8.8c-0.1-4.9-5.2-7.7-9.3-10.4
	c-3.1-1.9-5.9-4.2-8.4-6.8c-1.1-1-1.9-2.2-2.6-3.5c-0.9-1.9-0.8-4.1-0.8-6.1c0.2-6.9,0.5-13.9,1-20.9"/>
<path class="st13" d="M501.8,440.6c0.1-2.6,1.5-4.9,3.8-6.2l1.7,3.4l-0.1-4.1c4-1.2,8.2,1.1,9.4,5.1s-1.1,8.2-5.1,9.4
	c-4,1.2-8.2-1.1-9.4-5.1C501.9,442.3,501.8,441.4,501.8,440.6z"/>
<path class="st7" d="M515.3,492.1c1.9,3.8,6.5,5.2,10.2,3.3c2.4-1.3,4-3.7,4.1-6.4c0.1-1.1-0.1-2.1-0.5-3.1
	c-1.5-3.9-5.9-5.9-9.7-4.4c-2,0.8-3.6,2.4-4.4,4.5l4.7,3.9l-5.2-1.2C514.5,489.8,514.7,491,515.3,492.1z"/>
<path class="st12" d="M519.1,477.3c4.2,0.2,7.7-3.1,7.9-7.2c0.1-1.2-0.2-2.4-0.6-3.5c-0.9-2-2.7-3.6-4.8-4.2l0.1,3.1l-1.7-3.4l0,0
	c-4.2-0.2-7.7,3.1-7.9,7.2c-0.1,0.9,0.1,1.8,0.3,2.6C513.1,475,515.9,477.2,519.1,477.3z"/>
<path class="st7" d="M500.7,465c4.2,0.2,7.7-3.1,7.9-7.2c0.2-4.2-3.1-7.8-7.3-8c-1.4-0.1-2.8,0.3-4,1l1.3,3.7l-2.7-2.7
	c-3.1,2.8-3.3,7.7-0.5,10.8C496.8,464.1,498.7,464.9,500.7,465L500.7,465z"/>
<path class="st8" d="M502.8,442.6c1.8,0.2,3.4,0.7,5.2,0.9c1.8,0.1,3.7-0.3,4.8-1.7c0.6-0.7,0.9-1.6,1.4-2.4
	c0.5-0.7,1.1-1.4,1.9-1.8c1.9,3.8,0.3,8.4-3.4,10.2c-1.1,0.6-2.4,0.9-3.7,0.8c-3.4-0.2-6.3-2.6-7.1-6
	C502.3,442.6,502.6,442.6,502.8,442.6z"/>
<path class="st8" d="M500.7,465c4.2,0.2,7.7-3.1,7.9-7.2c0.1-1.3-0.2-2.5-0.7-3.6c-0.6,0.4-1.1,0.9-1.5,1.5
	c-0.6,0.8-0.9,1.8-1.5,2.5c-1.2,1.4-3.2,1.8-5,1.8c-1.8-0.1-3.6-0.6-5.4-0.8c-0.2,0-0.5-0.1-0.7-0.1
	C494.5,462.5,497.3,464.9,500.7,465z"/>
<path class="st8" d="M519.1,477.3c4.2,0.2,7.7-3.1,7.9-7.2c0.1-1.2-0.2-2.4-0.6-3.5c-0.6,0.4-1.1,0.9-1.6,1.5
	c-0.6,0.9-1,1.8-1.6,2.6c-1.3,1.4-3.4,1.9-5.3,1.9c-1.9-0.1-3.7-0.5-5.5-0.6C513.1,475,515.9,477.2,519.1,477.3z"/>
<path class="st8" d="M515.3,492.1c1.9,3.8,6.5,5.2,10.2,3.3c2.4-1.3,4-3.7,4.1-6.4c0.1-1.1-0.1-2.1-0.5-3.1
	c-0.6,0.4-1.2,0.9-1.6,1.5c-0.7,0.9-1.2,1.9-2,2.7c-1.5,1.5-4,2.2-6.3,2.2C517.9,492.3,516.6,492.2,515.3,492.1z"/>
<path class="st7" d="M534.2,503.3c0,0-6-0.2-7.7-1.5c-1.8-1.3-9.2-2.8-9.6-0.7c-0.5,2-8.9,10.3-2.2,10.4c6.7,0.1,15.6-1.1,17.4-2.2
	C533.8,508.2,534.2,503.3,534.2,503.3z"/>
<ellipse class="st15" cx="163.7" cy="533.3" rx="1" ry="1"/>
<ellipse class="st15" cx="173" cy="537.9" rx="1" ry="1"/>
<ellipse class="st15" cx="177.8" cy="540" rx="1" ry="1"/>
<ellipse class="st15" cx="187.8" cy="543.9" rx="1" ry="1"/>
<ellipse class="st15" cx="182.7" cy="542.2" rx="1" ry="1"/>
<ellipse class="st15" cx="74" cy="503.5" rx="1" ry="1"/>
<ellipse class="st15" cx="73.5" cy="511.5" rx="1" ry="1"/>
<path class="st16" d="M263.1,182.5L263.1,182.5c0.2,0.1,0.2,0.2,0.1,0.3l-2,3c0,0.1-0.1,0.1-0.2,0l-0.1-0.1c-0.1,0-0.1-0.1,0-0.2
	l2-3C263,182.5,263.1,182.5,263.1,182.5z"/>
<g transform="translate(-63.054 -157.8845)">
	<path class="st17" d="M581.2,527.8c-37.5,0-64.5,24.1-64.5,80.2c0,63.7,26.9,80.5,64.5,80.5s66.1-18.5,66.1-80.5
		C647.2,541.7,618.7,527.8,581.2,527.8L581.2,527.8z M581.4,667.4c-26,0-39.6-15.2-39.6-59.3c0-38.9,14.1-59.4,40.1-59.4
		s40.1,13.5,40.1,59.4C622.1,651.1,607.4,667.4,581.4,667.4z"/>
	<path class="st17" d="M494.3,644.2h-15.5v-45.7c0-5.1-4.1-9.1-9.1-9.1H466c-5.1,0-9.1,4.1-9.1,9.1l0,0v45.7h-43.8
		c-2.9,0-5.2-2.3-5.2-5.2c0-0.9,0.2-1.7,0.6-2.4l46.3-87.6c2.4-4.5,0.7-10-3.8-12.4c-0.1-0.1-0.2-0.1-0.4-0.2l-2.7-1.3
		c-4.4-2.1-9.7-0.3-12,4l-56.5,105.7c-1,1.8-1.5,3.8-1.5,5.8c0,6.9,5.6,12.4,12.4,12.4l0,0h66.5v28.9c0,6.1,4.9,11,11,11l0,0l0,0
		c6.1,0,11-4.9,11-11l0,0V663h15.5c5.2,0,9.4-4.2,9.4-9.4C503.6,648.4,499.4,644.2,494.3,644.2L494.3,644.2z"/>
	<path class="st18" d="M781.5,644.2H766v-45.7c0-5.1-4.1-9.1-9.1-9.1l0,0h-3.6c-5.1,0-9.1,4.1-9.1,9.1l0,0v45.7h-43.8
		c-2.9,0-5.2-2.3-5.2-5.2c0-0.9,0.2-1.7,0.6-2.4l46.3-87.6c2.4-4.5,0.7-10-3.8-12.4c-0.1-0.1-0.2-0.1-0.4-0.2l-2.7-1.3
		c-4.4-2.1-9.7-0.3-12,4l-56.5,105.7c-1,1.8-1.5,3.8-1.5,5.8c0,6.9,5.6,12.4,12.4,12.4l0,0h66.5v28.9c0,6.1,4.9,11,11,11l0,0
		c6.1,0,11-4.9,11-11l0,0V663h15.5c5.2,0,9.4-4.2,9.4-9.4l0,0C790.9,648.4,786.7,644.2,781.5,644.2z"/>
	<path class="st19" d="M498.5,638.8H483v-45.7c0-5.1-4.1-9.1-9.1-9.1l0,0h-3.6c-5.1,0-9.1,4.1-9.1,9.1l0,0v45.7h-43.8
		c-2.9,0-5.2-2.3-5.2-5.2c0-0.9,0.2-1.7,0.6-2.4l46.3-87.6c2.4-4.5,0.7-10-3.8-12.4c-0.1-0.1-0.2-0.1-0.4-0.2l-2.7-1.3
		c-4.4-2.1-9.7-0.3-12,4l-56.5,105.7c-1,1.8-1.5,3.8-1.5,5.8c0,6.9,5.6,12.4,12.4,12.4h66.5v28.9c0,6.1,4.9,11,11,11l0,0l0,0
		c6.1,0,11-4.9,11-11l0,0v-28.9h15.5c5.2,0,9.4-4.2,9.4-9.4C507.9,643,503.7,638.8,498.5,638.8z"/>
	<path class="st19" d="M789.5,638.8H774v-45.7c0-5.1-4.1-9.1-9.1-9.1l0,0h-3.6c-5.1,0-9.1,4.1-9.1,9.1l0,0v45.7h-43.8
		c-2.9,0-5.2-2.3-5.2-5.2c0-0.9,0.2-1.7,0.6-2.4l46.3-87.6c2.4-4.5,0.7-10-3.8-12.4c-0.1-0.1-0.2-0.1-0.4-0.2l-2.7-1.3
		c-4.4-2.1-9.7-0.3-12,4l-56.5,105.7c-1,1.8-1.5,3.8-1.5,5.8c0,6.9,5.6,12.4,12.4,12.4l0,0h66.5v28.9c0,6.1,4.9,11,11,11l0,0
		c6.1,0,11-4.9,11-11l0,0v-28.9h15.5c5.2,0,9.4-4.2,9.4-9.4l0,0C798.9,643,794.7,638.8,789.5,638.8z"/>
	<path class="st19" d="M589.7,523c-37.5,0-64.5,24.1-64.5,80.2c0,63.7,26.9,80.5,64.5,80.5s66.1-18.5,66.1-80.5
		C655.8,536.9,627.3,523,589.7,523L589.7,523z M590,662.6c-26,0-39.6-15.2-39.6-59.3c0-38.9,14.1-59.4,40.1-59.4
		s40.1,13.5,40.1,59.4C630.7,646.3,616,662.6,590,662.6L590,662.6z"/>
</g>
<path class="st7" d="M345.4,549.5c-7.6-1.3-14.9-2.4-21.9-3.3l2.8-5.4c-0.9-0.3-5,2.8-5,2.8l3.6-15.6c-4.7,0.6-7.1,16.5-7.1,16.5
	l-5.3-5.4l2.5,6.1c-18.5-2.2-37-3.4-55.6-3.5l2.4-4.6c-0.9-0.3-5,2.8-5,2.8l3.6-15.6c-4.7,0.6-7.1,16.5-7.1,16.5l-5.3-5.4l2.7,6.4
	c-10.7,0.2-21.4,0.9-32,2.2c2.4-7.2,10.6-14,10.6-14c-6.2,1.9-9.5,5-11.2,7.9c-0.2-14.8,2.3-29.5,7.3-43.4c0,0-12.9,28-11.2,46.8
	l0.2,3.3c-10.9,1.6-16.4,3.2-16.4,3.2L345.4,549.5z"/>
<path class="st7" d="M175.1,552.8c-7.6-1.3-14.9-2.4-21.9-3.3l2.8-5.4c-0.9-0.3-5,2.8-5,2.8l3.6-15.6c-4.7,0.6-7.1,16.5-7.1,16.5
	l-5.3-5.4l2.5,6.1c-18.5-2.2-37-3.4-55.6-3.5l2.4-4.6c-0.9-0.3-5,2.8-5,2.8l3.6-15.6C85.4,528.1,83,544,83,544l-5.3-5.4l2.7,6.4
	c-10.7,0.2-21.4,0.9-32,2.2c2.4-7.2,10.6-14,10.6-14c-6.2,1.9-9.5,5-11.2,7.9c-0.2-14.8,2.3-29.5,7.3-43.4c0,0-12.9,28-11.2,46.8
	l0.2,3.3c-10.9,1.6-16.4,3.2-16.4,3.2L175.1,552.8z"/>
<ellipse class="st8" cx="191.9" cy="550.7" rx="150.1" ry="8.8"/>
<path class="st7" d="M138,494c0.2,35.2-20.6,47.7-46.4,47.8c-0.6,0-1.2,0-1.8,0c-1.2,0-2.4-0.1-3.6-0.1c-23.3-1.5-41.5-14.3-41.7-47
	c-0.2-33.9,42.8-77,46-80.1l0,0c0.1-0.1,0.2-0.2,0.2-0.2S137.8,458.8,138,494z"/>
<path class="st20" d="M89.9,536.5l16.9-24l-17,26.6v2.7c-1.2,0-2.4-0.1-3.6-0.1l1.6-35.2v-0.3v-0.1l0.2-3.3l-17.4-26.5l17.4,24v0.7
	l1.2-26.6L74.4,447l15.1,22.7l1.1-55.2v-0.2v0.2l0.1,43.5l14.5-17.4l-14.6,21.1l-0.2,23.8l13.5-23L90.4,489l-0.1,13.3l19.6-32
	L90.1,507L89.9,536.5z"/>
<path class="st7" d="M337.1,532c-6.9,4.1-9.7,12.3-9.7,12.3s8.5,1.6,15.4-2.5s9.7-12.3,9.7-12.3S344,527.9,337.1,532z"/>
<path class="st7" d="M339.5,534.5c-3.9,7-12,10-12,10s-1.8-8.5,2-15.5c3.9-7,12-10,12-10S343.4,527.5,339.5,534.5z"/>
<polygon class="st9" points="864,468.5 863.3,468.5 863.3,467.8 863.2,467.8 863.2,468.5 862.5,468.5 862.5,468.6 863.2,468.6 
	863.2,469.3 863.3,469.3 863.3,468.6 864,468.6 "/>
<polygon class="st9" points="823.2,509.6 822.5,509.6 822.5,508.9 822.4,508.9 822.4,509.6 821.7,509.6 821.7,509.8 822.4,509.8 
	822.4,510.5 822.5,510.5 822.5,509.8 823.2,509.8 "/>
<polygon class="st9" points="868.1,522 867.4,522 867.4,521.3 867.3,521.3 867.3,522 866.6,522 866.6,522.1 867.3,522.1 
	867.3,522.8 867.4,522.8 867.4,522.1 868.1,522.1 "/>
<circle class="st21" cx="893.2" cy="489.5" r="1.5"/>
<circle class="st9" cx="497.7" cy="87.1" r="2.6"/>
<path class="st9" d="M776.5,507.4l-0.4-0.1c10.8-47.6,58.2-77.5,105.8-66.8c22.9,5.2,42.8,19.3,55.3,39.2
	c5.3,8.4,9.1,17.6,11.3,27.3l-0.4,0.1c-9.2-40.3-44.5-68.4-85.8-68.4C821.6,438.8,785.5,467.6,776.5,507.4z"/>
<rect x="889.6" y="404" class="st9" width="3.9" height="156.1"/>
<path class="st7" d="M930,423.9c0.2,54.6-38.1,99-38.1,99s-38.8-44-39.1-98.6c-0.2-54.6,38.2-99,38.2-99S929.8,369.3,930,423.9z"/>
<rect x="823.8" y="473.2" class="st9" width="2.2" height="86.8"/>
<path class="st7" d="M846.3,484.2c0.1,30.3-21.2,55.1-21.2,55.1s-21.6-24.5-21.7-54.9c-0.1-30.3,21.2-55.1,21.2-55.1
	S846.2,453.9,846.3,484.2z"/>
<path class="st8" d="M846.3,484.2c0.1,30.3-21.2,55.1-21.2,55.1s-21.6-24.5-21.7-54.9c-0.1-30.3,21.2-55.1,21.2-55.1
	S846.2,453.9,846.3,484.2z"/>
<rect x="794.4" y="462.8" class="st9" width="2.2" height="86.8"/>
<path class="st7" d="M816.9,473.9c0.1,30.3-21.2,55.1-21.2,55.1s-21.6-24.5-21.7-54.9c-0.1-30.3,21.2-55.1,21.2-55.1
	S816.7,443.6,816.9,473.9z"/>
<polygon class="st9" points="827,380.6 826.3,380.6 826.3,379.9 826.2,379.9 826.2,380.6 825.5,380.6 825.5,380.7 826.2,380.7 
	826.2,381.4 826.3,381.4 826.3,380.7 827,380.7 "/>
<polygon class="st9" points="521.5,91.8 520.8,91.8 520.8,91.1 520.7,91.1 520.7,91.8 520,91.8 520,91.9 520.7,91.9 520.7,92.6 
	520.8,92.6 520.8,91.9 521.5,91.9 "/>
<polygon class="st9" points="864,434.1 863.3,434.1 863.3,433.4 863.2,433.4 863.2,434.1 862.5,434.1 862.5,434.2 863.2,434.2 
	863.2,434.9 863.3,434.9 863.3,434.2 864,434.2 "/>
<circle class="st21" cx="836.9" cy="400.8" r="1.5"/>
<ellipse transform="matrix(0.866 -0.5 0.5 0.866 -65.9396 315.6794)" class="st22" cx="556.1" cy="280.9" rx="1.8" ry="13.1"/>
<ellipse transform="matrix(0.5 -0.866 0.866 0.5 143.5252 1037.0492)" class="st22" cx="969.9" cy="394.2" rx="13.1" ry="1.8"/>
<circle class="st13" cx="923.4" cy="552.6" r="9.5"/>
<ellipse class="st13" cx="923.4" cy="539.7" rx="6.8" ry="7.2"/>
<ellipse class="st13" cx="923.4" cy="528.5" rx="4.9" ry="5.1"/>
<path class="st7" d="M803.5,540.2c-12.9-1.6-25.4-2.9-37.3-4l4.8-6.5c-1.5-0.4-8.5,3.4-8.5,3.4l6.1-18.7c-8,0.7-12.1,19.8-12.1,19.8
	l-9-6.5l4.3,7.3c-31.5-2.6-63-4.1-94.7-4.2l4.1-5.5c-1.5-0.4-8.5,3.4-8.5,3.4l6.1-18.7c-8,0.7-12.1,19.8-12.1,19.8l-9-6.5l4.6,7.7
	c-18.2,0.2-36.5,1.1-54.5,2.6c4.1-8.6,18.1-16.8,18.1-16.8c-10.6,2.3-16.2,6-19.1,9.5c-0.3-17.8,3.9-35.4,12.4-52.1
	c0,0-22,33.6-19.1,56.1l0.3,4c-18.6,1.9-27.9,3.8-27.9,3.8L803.5,540.2z"/>
</svg>
