<?xml version="1.0" encoding="utf-8"?>
<!-- Generator: Adobe Illustrator 23.0.1, SVG Export Plug-In . SVG Version: 6.00 Build 0)  -->
<svg version="1.1" xmlns="http://www.w3.org/2000/svg" xmlns:xlink="http://www.w3.org/1999/xlink" x="0px" y="0px"
	 viewBox="0 0 1434.3 1140" style="enable-background:new 0 0 1434.3 1140;" xml:space="preserve">
<style type="text/css">
	.st0{fill:#47795C;}
	.st1{fill:#F7F7F7;}
	.st2{fill:#587BC9;}
	.st3{fill:#9EA6AD;}
	.st4{fill:#D7E8F4;}
	.st5{fill:#305399;}
	.st6{fill:#7DB5DB;}
	.st7{fill:#3B455A;}
	.st8{fill:#FFFFFF;}
	.st9{opacity:7.000000e-02;fill:#2E4661;}
	.st10{fill:#EAC5B0;}
	.st11{opacity:3.000000e-02;fill:#272525;}
	.st12{opacity:0.2;fill:#BBBCBF;}
	.st13{opacity:0.5;fill:#D7E8F4;}
	.st14{opacity:0.22;}
	.st15{opacity:0.31;fill:#FFFFFF;}
	.st16{fill:#B3998A;}
	.st17{clip-path:url(#SVGID_2_);fill:#47795C;}
</style>
<g id="background">
</g>
<g id="object">
	<g>
		<circle class="st0" cx="686.1" cy="551.3" r="532.6"/>
		<g>
			<g>
				<path class="st1" d="M922,1014.3H422.7V295.9h554.1v671.6C976.8,993.4,952.2,1014.3,922,1014.3z"/>
				<rect x="422.6" y="295.9" class="st2" width="553.2" height="33.4"/>
			</g>
			<g>
				<g>
					<path class="st3" d="M837.1,691c7.5,0,7.5-8.4,0-8.4c-92.6,0-185.1,0-277.7,0c-7.5,0-7.5,8.4,0,8.4l0,0H837.1z"/>
				</g>
			</g>
			<g>
				<path class="st4" d="M687.1,352.4c-44.5,0-84.3,19.7-111.3,50.8l111.3,96.4l111.3-96.4C771.4,372.1,731.6,352.4,687.1,352.4z"/>
				<path class="st5" d="M843.5,478.1l-145.8,21v147.3c81.4,0,147.3-65.9,147.3-147.3C845,492,844.5,485,843.5,478.1z"/>
				<path class="st6" d="M575.9,403.8c-52.5,62.2-44.6,155.1,17.7,207.5c5.4,4.6,11.1,8.7,17,12.4l77.9-125L575.9,403.8z"/>
				<path class="st2" d="M688.4,646.2c-27.6,0-55.3-7.7-79.6-23.4l79.6-123.9L688.4,646.2z"/>
				<path class="st7" d="M851,470c-4.1-28.7-16.4-54.6-34.5-75.5L705.2,491L851,470z"/>
			</g>
			<g>
				<g>
					<rect x="487.8" y="851.7" class="st2" width="54.1" height="130.3"/>
					<rect x="487.8" y="801.3" class="st4" width="54.1" height="61.2"/>
				</g>
				<g>
					<rect x="844" y="857.6" class="st2" width="54.1" height="130.3"/>
					<rect x="844" y="747.6" class="st4" width="54.5" height="120.8"/>
				</g>
				<g>
					<rect x="725.3" y="847.3" class="st2" width="54.1" height="137.7"/>
					<rect x="725.3" y="835.1" class="st4" width="54.1" height="91.4"/>
				</g>
				<g>
					<rect x="606.6" y="799.4" class="st2" width="54.1" height="184.9"/>
					<rect x="606.6" y="727.8" class="st4" width="54.1" height="147.9"/>
				</g>
			</g>
			<g>
				<g>
					<path class="st8" d="M443.7,322.1c-3.9,0-7.1-3.2-7.1-7.1s3.2-7.1,7.1-7.1c3.9,0,7.1,3.2,7.1,7.1S447.6,322.1,443.7,322.1z
						 M443.7,309c-3.3,0-5.9,2.7-5.9,5.9c0,3.3,2.7,5.9,5.9,5.9c3.3,0,5.9-2.7,5.9-5.9C449.6,311.7,447,309,443.7,309z"/>
				</g>
				<g>
					<path class="st8" d="M465.6,322.1c-3.9,0-7.1-3.2-7.1-7.1s3.2-7.1,7.1-7.1s7.1,3.2,7.1,7.1S469.6,322.1,465.6,322.1z
						 M465.6,309c-3.3,0-5.9,2.7-5.9,5.9c0,3.3,2.7,5.9,5.9,5.9c3.3,0,5.9-2.7,5.9-5.9C471.6,311.7,468.9,309,465.6,309z"/>
				</g>
				<g>
					<path class="st8" d="M487.6,322.1c-3.9,0-7.1-3.2-7.1-7.1s3.2-7.1,7.1-7.1c3.9,0,7.1,3.2,7.1,7.1S491.5,322.1,487.6,322.1z
						 M487.6,309c-3.3,0-5.9,2.7-5.9,5.9c0,3.3,2.7,5.9,5.9,5.9c3.3,0,5.9-2.7,5.9-5.9C493.5,311.7,490.8,309,487.6,309z"/>
				</g>
			</g>
		</g>
		<path class="st9" d="M437.6,1035.2H84.4V489.7h386v512.7C470.4,1020.6,455.7,1035.2,437.6,1035.2z"/>
		<g>
			<g>
				<path class="st6" d="M408.7,1020H40.5V448.5h415.9v523.7C456.5,998.6,435.1,1020,408.7,1020z"/>
			</g>
			<rect x="84.7" y="494.1" class="st8" width="336.7" height="212.9"/>
			<path class="st4" d="M298,568c1.4,2.8,3.8,5.2,8.4,6.9c8.5,3.2,20,0.9,24.9-6.3c8.2-11.9,5.9-29,14.7-41.4c3.6-5,9.1-9.1,15.5-11
				c6.4-1.8,13.9-1.3,19.6,1.9c9.3,5.1,12.6,15.8,12.7,25.4c0.2,18.5-2.4,37.7-5.8,56c-1.6,8.9-4.1,18-10.5,25
				c-8.7,9.5-23,13.4-36.7,15.6c-34.7,5.3-70.3,2.1-105.3-1.2c-28.2-2.6-56.3-5.3-84.5-7.9c-7.9-0.7-31.3,0.5-36.1-5
				c-4.6-5.4-1-23.6,1.7-29.2c6-12.5,22.6-19.6,38.1-18.8c35,1.8,21.2-34.8,32.4-52.1c6-9.2,19.1-15.8,30.4-12
				c10.8,3.7,15.3,14.5,20.6,23.4c2.8,4.7,6.7,9.5,12.6,10.5c10,1.7,18.4-8.5,28.6-8.1c6,0.2,11.2,4.3,13.8,9.1
				C296.5,555.2,295.2,562.4,298,568z"/>
			<path class="st10" d="M399.4,695.5c0,0,0.1-15.3,0.1-16.2c0.1-22.9,0.1-45.7,0.1-68.6c0-21.9,1.8-43.7,1.5-65.5
				c-0.2-10.1-4.5-15.4-15.1-12.6c-10.5,2.7-20,8.9-26.6,17.4c-4.5,5.8-8.2,13.1-15.1,15.4c-12.4,4.2-22.5-9.8-33.6-16.6
				c-12-7.4-28.7-6.1-39.4,2.9c-13,11-16,30-27,43c-12.1,14.3-34.1,19.1-51.1,11.2c-7-3.2-13-8.3-19.8-11.7
				c-27.3-13.7-65.2,6-69.7,36.2v62.4C103.6,692.7,399.9,696,399.4,695.5z"/>
			<rect x="90.2" y="739.5" class="st5" width="25.3" height="25.3"/>
			<rect x="90.2" y="776.9" class="st2" width="25.3" height="25.3"/>
			<rect x="136.4" y="747.2" class="st1" width="73.7" height="7.7"/>
			<rect x="135.3" y="787.9" class="st1" width="73.7" height="7.7"/>
			<rect x="93.5" y="845.4" class="st1" width="321.3" height="8.3"/>
			<rect x="93.5" y="869.5" class="st7" width="143" height="114"/>
			<rect x="258.5" y="870.6" class="st2" width="156.2" height="49.7"/>
			<rect x="256.9" y="933.4" class="st5" width="156.2" height="49.7"/>
		</g>
		<g>
			<path class="st5" d="M276.3,212.3H13.5c-1,0-1.8,0.9-1.8,2v139.3c0,34.3,25.5,62.2,57.1,62.2h109l44.6,62.5
				c1.2,1.7,3.8,0.9,3.9-1.2l0.9-61.3h49.3c1,0,1.8-0.9,1.8-2V214.3C278.2,213.2,277.4,212.3,276.3,212.3z"/>
			<g>
				<rect x="46.1" y="245.6" class="st4" width="163.7" height="6.8"/>
				<rect x="46.1" y="297.6" class="st4" width="195.3" height="6.8"/>
				<rect x="46.1" y="349.6" class="st4" width="195.3" height="6.8"/>
			</g>
		</g>
		<g>
			<g>
				<path class="st2" d="M447.4,277.6h-195V139.4H435l39.1,41.3V249C474.1,264.8,462.1,277.6,447.4,277.6z"/>
				<polygon class="st10" points="473.9,181 434.7,182 434.7,139.4 				"/>
			</g>
			<g>
				<rect x="305.9" y="175.2" class="st6" width="124.4" height="5.9"/>
				<rect x="286.2" y="203.9" class="st6" width="144.1" height="5.9"/>
				<rect x="286.2" y="232.5" class="st6" width="144.1" height="5.9"/>
			</g>
		</g>
		<g>
			<g>
				<path class="st10" d="M840.1,554.2c-0.7,0-1.4-0.5-1.5-1.3c-0.3-2-0.5-4.1-0.5-6.1c0-0.8,0.6-1.5,1.4-1.6c0.8,0,1.5,0.6,1.6,1.4
					c0.1,1.9,0.3,3.9,0.5,5.8c0.1,0.8-0.5,1.6-1.3,1.7C840.2,554.2,840.2,554.2,840.1,554.2z"/>
			</g>
			<g>
				<path class="st10" d="M840.3,536.3c-0.1,0-0.2,0-0.2,0c-0.8-0.1-1.4-0.9-1.3-1.7c0.6-3.9,1.6-7.9,2.9-11.9
					c0.3-0.8,1.1-1.2,1.9-0.9c0.8,0.3,1.2,1.1,0.9,1.9c-1.3,3.8-2.2,7.6-2.8,11.3C841.6,535.8,841,536.3,840.3,536.3z M847.8,513.7
					c-0.2,0-0.5-0.1-0.7-0.2c-0.7-0.4-1-1.3-0.6-2c1.8-3.5,3.9-7,6.3-10.4c0.5-0.7,1.4-0.9,2.1-0.4c0.7,0.5,0.9,1.4,0.4,2.1
					c-2.3,3.3-4.3,6.7-6.1,10.1C848.8,513.4,848.3,513.7,847.8,513.7z M861.3,494.1c-0.3,0-0.7-0.1-1-0.4c-0.6-0.5-0.7-1.5-0.1-2.1
					c2.6-3,5.4-5.9,8.4-8.7c0.6-0.6,1.6-0.5,2.1,0.1c0.6,0.6,0.5,1.6-0.1,2.1c-2.9,2.7-5.7,5.6-8.2,8.5
					C862.1,493.9,861.7,494.1,861.3,494.1z M878.6,477.7c-0.4,0-0.9-0.2-1.2-0.6c-0.5-0.7-0.4-1.6,0.3-2.1c3.1-2.5,6.4-4.8,9.8-7
					c0.7-0.5,1.6-0.3,2.1,0.4c0.5,0.7,0.3,1.6-0.4,2.1c-3.3,2.2-6.5,4.5-9.6,6.9C879.3,477.6,879,477.7,878.6,477.7z M898.6,464.6
					c-0.5,0-1-0.3-1.3-0.8c-0.4-0.7-0.1-1.6,0.6-2c3.5-1.9,7.1-3.8,10.7-5.5c0.7-0.4,1.6,0,2,0.7c0.4,0.7,0,1.6-0.7,2
					c-3.6,1.7-7.1,3.5-10.6,5.4C899.1,464.5,898.9,464.6,898.6,464.6z M920.2,454.3c-0.6,0-1.2-0.4-1.4-0.9c-0.3-0.8,0.1-1.6,0.8-2
					c3.7-1.5,7.5-2.9,11.3-4.2c0.8-0.3,1.6,0.1,1.9,0.9c0.3,0.8-0.1,1.6-0.9,1.9c-3.8,1.3-7.5,2.7-11.1,4.2
					C920.6,454.3,920.4,454.3,920.2,454.3z M942.8,446.5c-0.7,0-1.3-0.4-1.4-1.1c-0.2-0.8,0.2-1.6,1-1.9c3.8-1.1,7.7-2.1,11.6-3
					c0.8-0.2,1.6,0.3,1.8,1.1c0.2,0.8-0.3,1.6-1.1,1.8c-3.9,0.9-7.8,1.9-11.5,3C943.1,446.5,943,446.5,942.8,446.5z M1134.1,442.3
					l-1.2,0c-0.8,0-1.5-0.7-1.5-1.5c0-0.8,0.7-1.5,1.5-1.5l1.2,0c3.7,0,7.3-0.1,10.6-0.4c0.8-0.1,1.5,0.6,1.6,1.4
					c0.1,0.8-0.6,1.5-1.4,1.6C1141.5,442.2,1137.9,442.3,1134.1,442.3z M1120.9,441.8C1120.9,441.8,1120.9,441.8,1120.9,441.8
					c-3.7-0.2-7.6-0.6-12.1-1c-0.8-0.1-1.4-0.8-1.3-1.6c0.1-0.8,0.8-1.4,1.6-1.3c4.4,0.4,8.3,0.8,11.9,1c0.8,0.1,1.5,0.8,1.4,1.6
					C1122.4,441.2,1121.7,441.8,1120.9,441.8z M966.1,441c-0.7,0-1.3-0.5-1.5-1.2c-0.2-0.8,0.4-1.6,1.2-1.8c3.9-0.7,7.9-1.4,11.9-2
					c0.8-0.1,1.6,0.4,1.7,1.3c0.1,0.8-0.4,1.6-1.3,1.7c-4,0.6-7.9,1.2-11.7,2C966.3,441,966.2,441,966.1,441z M1156.7,440.3
					c-0.7,0-1.3-0.5-1.5-1.2c-0.2-0.8,0.4-1.6,1.2-1.8c3.9-0.8,7.8-1.8,11.3-3c0.8-0.3,1.6,0.1,1.9,0.9c0.3,0.8-0.1,1.6-0.9,1.9
					c-3.7,1.3-7.7,2.3-11.8,3.1C1156.8,440.3,1156.8,440.3,1156.7,440.3z M1097.1,439.6c-0.1,0-0.1,0-0.2,0l-3.6-0.4
					c-2.8-0.3-5.5-0.6-8.3-0.9c-0.8-0.1-1.4-0.8-1.3-1.6c0.1-0.8,0.8-1.4,1.6-1.3c2.8,0.3,5.6,0.6,8.3,0.9l3.6,0.4
					c0.8,0.1,1.4,0.8,1.3,1.7C1098.5,439,1097.9,439.6,1097.1,439.6z M989.7,437.5c-0.8,0-1.4-0.6-1.5-1.3c-0.1-0.8,0.5-1.6,1.3-1.7
					c3.9-0.4,7.9-0.8,12-1.1c0.8-0.1,1.5,0.6,1.6,1.4s-0.6,1.5-1.4,1.6c-4,0.3-8,0.7-11.9,1.1C989.8,437.5,989.8,437.5,989.7,437.5z
					 M1073.3,437.3c0,0-0.1,0-0.1,0c-4-0.3-8-0.6-11.9-0.8c-0.8-0.1-1.5-0.8-1.4-1.6c0.1-0.8,0.8-1.5,1.6-1.4
					c3.9,0.2,7.9,0.5,12,0.8c0.8,0.1,1.4,0.8,1.4,1.6C1074.7,436.7,1074.1,437.3,1073.3,437.3z M1049.4,435.8
					C1049.4,435.8,1049.4,435.8,1049.4,435.8c-4.1-0.2-8.1-0.3-12-0.3c-0.8,0-1.5-0.7-1.5-1.5c0-0.8,0.7-1.5,1.5-1.5
					c3.9,0.1,7.9,0.2,12,0.3c0.8,0,1.5,0.7,1.4,1.6C1050.9,435.2,1050.2,435.8,1049.4,435.8z M1013.6,435.8c-0.8,0-1.5-0.6-1.5-1.4
					c0-0.8,0.6-1.5,1.4-1.6c3.9-0.2,8-0.3,12-0.3c0.8,0,1.5,0.7,1.5,1.5c0,0.8-0.7,1.5-1.5,1.5
					C1021.5,435.5,1017.5,435.6,1013.6,435.8C1013.6,435.8,1013.6,435.8,1013.6,435.8z M1179.2,432.5c-0.5,0-1.1-0.3-1.3-0.8
					c-0.4-0.7-0.1-1.6,0.6-2c3.4-1.8,6.7-4,9.8-6.3c0.7-0.5,1.6-0.4,2.1,0.3c0.5,0.7,0.4,1.6-0.3,2.1c-3.3,2.5-6.7,4.7-10.2,6.6
					C1179.6,432.4,1179.4,432.5,1179.2,432.5z M1198.2,418.1c-0.4,0-0.8-0.1-1.1-0.4c-0.6-0.6-0.6-1.5,0-2.1
					c2.7-2.7,5.3-5.6,7.8-8.8c0.5-0.6,1.5-0.8,2.1-0.2c0.6,0.5,0.8,1.5,0.2,2.1c-2.6,3.2-5.3,6.3-8.1,9.1
					C1199,418,1198.6,418.1,1198.2,418.1z M1213.1,399.5c-0.3,0-0.6-0.1-0.8-0.2c-0.7-0.4-0.9-1.4-0.4-2.1c2.1-3.2,4.1-6.7,6-10.2
					c0.4-0.7,1.3-1,2-0.6c0.7,0.4,1,1.3,0.6,2c-1.9,3.6-4,7.1-6.1,10.4C1214,399.2,1213.6,399.5,1213.1,399.5z"/>
			</g>
			<g>
				<path class="st10" d="M1224.3,378.3c-0.2,0-0.4,0-0.6-0.1c-0.8-0.3-1.1-1.2-0.8-2c0.8-1.8,1.6-3.6,2.3-5.5
					c0.3-0.8,1.2-1.1,2-0.8c0.8,0.3,1.1,1.2,0.8,2c-0.8,1.9-1.6,3.8-2.4,5.6C1225.5,378,1224.9,378.3,1224.3,378.3z"/>
			</g>
		</g>
		<g>
			<path class="st10" d="M1298.5,258.8l-6.3,142.3l-47-49.3c0,0,53.4-96.9,53.8-95.3l-2.1-1.7c1.6-0.5-57.2,93.4-57.2,93.4
				l-65.9-17.1l121.3-74.6L1298.5,258.8z"/>
		</g>
		<g>
			<rect x="938.2" y="719.5" class="st9" width="277.2" height="200.4"/>
			<g>
				<g>
					<g>
						<rect x="947.6" y="707.8" class="st5" width="279.1" height="201"/>
						<rect x="947.6" y="707.8" class="st2" width="278.7" height="16"/>
					</g>
					<path class="st11" d="M1226.2,758.4v-0.6h-34.3v-33.6h-0.6v33.6h-41.1v-33.6h-0.6v33.6h-41.1v-33.6h-0.6v33.6h-41.1v-33.6h-0.6
						v33.6h-41.1v-33.6h-0.6v33.6h-41.1v-33.6h-0.6v33.6h-34.2v0.6h34.2v38h-34.2v0.6h34.2v38h-34.2v0.6h34.2v38h-34.2v0.6h34.2
						v35.3h0.6v-35.3h41.1v35.3h0.6v-35.3h41.1v35.3h0.6v-35.3h41.1v35.3h0.6v-35.3h41.1v35.3h0.6v-35.3h41.1v35.3h0.6v-35.3h34.3
						v-0.6h-34.3v-38h34.3V835h-34.3v-38h34.3v-0.6h-34.3v-38H1226.2z M1149.6,758.4v38h-41.1v-38H1149.6z M1066.8,797h41.1v38
						h-41.1V797z M1066.2,835h-41.1v-38h41.1V835z M1108.5,797h41.1v38h-41.1V797z M1107.9,758.4v38h-41.1v-38H1107.9z
						 M1066.2,758.4v38h-41.1v-38H1066.2z M983.4,758.4h41.1v38h-41.1V758.4z M983.4,797h41.1v38h-41.1V797z M983.4,873.6v-38h41.1
						v38H983.4z M1025.1,873.6v-38h41.1v38H1025.1z M1066.8,873.6v-38h41.1v38H1066.8z M1108.5,873.6v-38h41.1v38H1108.5z
						 M1191.3,873.6h-41.1v-38h41.1V873.6z M1191.3,835h-41.1v-38h41.1V835z M1191.3,796.4h-41.1v-38h41.1V796.4z"/>
				</g>
				<path class="st1" d="M1196.7,749.6c-4.7,0-8.5,3.8-8.5,8.5c0,2.4,1,4.5,2.5,6.1c-9.9,8.5-19.8,17-29.6,25.5
					c-0.8,0.6-1.5,1.3-2.3,1.9c-1.5-1.2-3.3-1.9-5.3-1.9c-4.7,0-8.5,3.8-8.5,8.5c0,3,1.5,5.6,3.9,7.1c-2.2,5.2-4.3,10.4-6.5,15.6
					c-0.9,2.2-1.8,4.4-2.8,6.7c-0.6-0.1-1.3-0.2-1.9-0.2c-3.1,0-5.9,1.7-7.4,4.2c-9.5-6-19.1-12.1-28.6-18.1
					c-7.1-4.5-14.1-8.9-21.2-13.4c0.4-1,0.6-2,0.6-3.2c0-4.7-3.8-8.5-8.5-8.5c-4.7,0-8.5,3.8-8.5,8.5c0,0.6,0.1,1.2,0.2,1.7
					c-13.4,5.5-26.8,10.9-40.1,16.4c-1.3,0.5-2.6,1.1-3.9,1.6c-1.3-3-4.3-5.1-7.8-5.1c-4.7,0-8.5,3.8-8.5,8.5c0,2.4,1,4.6,2.7,6.2
					c-2,2.3-4,4.5-6,6.8c-9.5,10.8-19,21.5-28.5,32.3c-1.4-0.9-3-1.5-4.8-1.5c-4.7,0-8.5,3.8-8.5,8.5c0,4.7,3.8,8.5,8.5,8.5
					c4.7,0,8.5-3.8,8.5-8.5c0-1.8-0.6-3.5-1.5-4.9c8.1-9.2,16.2-18.4,24.3-27.6c3.5-4,7-8,10.5-12c1,0.4,2.1,0.6,3.2,0.6
					c4.7,0,8.5-3.8,8.5-8.5c0-0.1,0-0.2,0-0.3c0.2-0.1,0.4-0.2,0.6-0.2c14.7-6,29.3-12,44-17.9c1.5,2.4,4.2,3.9,7.2,3.9
					c2.5,0,4.7-1.1,6.2-2.7c6.4,4.1,12.8,8.1,19.2,12.2c10.4,6.6,20.8,13.1,31.2,19.7c-0.1,0.4-0.1,0.8-0.1,1.3
					c0,4.7,3.8,8.5,8.5,8.5c4.7,0,8.5-3.8,8.5-8.5c0-2.9-1.5-5.5-3.8-7.1c3.1-7.4,6.2-14.9,9.3-22.3c0.6,0.1,1.2,0.2,1.8,0.2
					c4.7,0,8.5-3.8,8.5-8.5c0-1.6-0.4-3-1.2-4.3c1.7-1.5,3.5-3,5.2-4.5c7.5-6.4,15-12.9,22.4-19.3c1.6-1.4,3.2-2.8,4.8-4.2
					c1,0.4,2.1,0.7,3.3,0.7c4.7,0,8.5-3.8,8.5-8.5S1201.4,749.6,1196.7,749.6z"/>
			</g>
		</g>
		<g>
			<g>
				<g>
					<g>
						<g>
							<g>
								<polygon class="st1" points="1250.3,619.2 1216.9,672.7 1027.4,553.3 1060.8,499.8 								"/>
								<path class="st5" d="M1315.6,696.7l-0.4,0.6c-10.5,16.9-29.3,24.2-42,16.2l-145.5-89.3L1166,560l145.8,91.9
									C1324.4,659.7,1326.1,679.8,1315.6,696.7z"/>
							</g>
							<polygon class="st12" points="1040.7,561.3 1049.8,567.9 1132.9,546.4 1063.7,502.2 							"/>
						</g>
						<g>
							<path class="st5" d="M1002.1,273.5C913.1,218,796,245.1,740.5,334C685,423,712.1,540.1,801,595.6
								c88.9,55.5,206,28.4,261.6-60.5C1118.1,446.1,1091,329,1002.1,273.5z M1040.1,521c-47.8,76.5-148.5,99.8-225,52
								c-76.5-47.8-99.8-148.5-52-225c47.8-76.5,148.5-99.8,225-52C1064.5,343.8,1087.8,444.5,1040.1,521z"/>
							
								<ellipse transform="matrix(0.7071 -0.7071 0.7071 0.7071 -43.2151 764.7715)" class="st13" cx="901.6" cy="434.6" rx="163.3" ry="163.3"/>
						</g>
					</g>
					<g>
						<g class="st14">
							<path class="st8" d="M783.9,428c-0.8-52.1,33-99.2,83.3-113.6c50.1-14.4,104.7,7.7,131.1,52.7c7.4,12.7,27.6,2.1,20.2-10.6
								c-30.3-51.8-90.5-78.6-149.2-66.1c-57.8,12.3-100.5,62-107.4,120.1c-0.7,5.6-0.8,11.3-0.8,16.9
								C761.3,442,784.1,442.7,783.9,428L783.9,428z"/>
						</g>
						
							<ellipse transform="matrix(0.9914 -0.131 0.131 0.9914 -43.8463 137.6726)" class="st15" cx="1024.4" cy="402.1" rx="15" ry="15"/>
					</g>
				</g>
				<path class="st6" d="M1129.7,622.1l36.4-61.2c1.2-2.1,0.7-4.8-1.3-6.3l-0.6-0.5c-2.3-1.7-5.5-1-7,1.4l-35.8,61.6
					c-1.3,2.3-0.5,5.3,1.8,6.6l0.1,0C1125.5,625.1,1128.4,624.3,1129.7,622.1z"/>
				<g>
					<path class="st1" d="M1060.9,435.7c-0.1,39.3-14.4,77.3-40.3,106.8c-25.6,29.1-61.2,47.9-99.5,53.4
						c-39.2,5.6-79.6-4.4-112.3-26.3c-31.9-21.4-55.1-54.4-65.3-91.3c-10.6-38.3-6.2-80,11.6-115.4c17.2-34.1,46.7-61.6,81.9-76.3
						c36.8-15.4,78.5-16.3,116.1-3.3c36.2,12.5,66.9,38.6,86.2,71.6C1053.5,379.3,1060.8,407.4,1060.9,435.7c0,5.6,8.7,5.6,8.7,0
						c-0.1-39.3-13.7-77.2-38.4-107.7c-24.1-29.8-58.7-50.7-96.1-58.8c-38.8-8.4-79.9-2.5-115,15.8c-33.8,17.6-61,47.1-76.5,81.8
						c-16.1,36.3-18.8,77.8-7.9,116.1c10.5,36.9,33.9,69.2,65,91.6c31.9,23,71.8,33.8,110.9,31.1c38.8-2.7,75.7-19.1,104.2-45.5
						c34.4-31.9,53.8-77.6,54-124.4C1069.6,430.1,1060.9,430.1,1060.9,435.7z"/>
				</g>
			</g>
			<path class="st16" d="M1293.1,732.5c6.1-16.1,15-48,20.1-63.4c-11.2-37.7-34.2-100.6-36.6-101.3c-14-4-26.4-7.7-40.3-11.8
				c-0.6-0.2-4.7,20.6-5.4,20.5c-0.5-0.1-0.7-4.3-0.9-9.1c0,0,0,0,0,0l-2.7-27.1c-0.1-2.3-1.6-4.2-3.8-4.8c-8.2-2.1-25.8-6.3-26.5-5
				c-0.3,0.5-1.8,24-3.1,30.7l-2.9-1.5l-3.8-43.9c0,0-30.5-7.7-31.1-6.3c-0.7,1.7-7.5,38.9-7.5,38.9s-11.8,88.8-13.1,95.1
				c-2,9.2-8.1,17.5-7.2,26.7c1,10.3,5.5,19.8,10,29.2c10.8,22.6,21.5,45.3,32.3,67.9c2.3,15.4,4.8,50.5,8.3,65.7
				c39.8-8,79.7-14.1,124-28.2C1303.9,804.5,1290.5,739.5,1293.1,732.5z"/>
			<g>
				<polygon class="st1" points="1167.8,890.9 1158.6,810.2 1317.6,751.4 1345.2,849.8 1168.4,902.6 				"/>
				<path class="st0" d="M1351.3,799c0,0-163.5,93.4-197.3,102.3l-9.3,220h278L1351.3,799z"/>
				<path class="st7" d="M1192.4,843.1c-1.3,4.8-6.2,7.7-11.1,6.4c-4.8-1.3-7.7-6.2-6.4-11.1c1.3-4.8,6.2-7.7,11.1-6.4
					C1190.8,833.3,1193.7,838.2,1192.4,843.1z"/>
			</g>
			<path class="st16" d="M1119.1,673.3l-21.2-33.4l-30.7-28.6c0,0-6-17.2,13.3-17.7c19.2-0.5,32.2,15.6,40.7,28.4
				c3.7,5.6,21.8,21.9,35.9,31.9c18.4,13.1-0.8,70.6-0.8,70.6S1121.2,676.5,1119.1,673.3z"/>
		</g>
	</g>
</g>
</svg>
