<?xml version="1.0" encoding="utf-8"?>
<!-- Generator: Adobe Illustrator 23.0.1, SVG Export Plug-In . SVG Version: 6.00 Build 0)  -->
<svg version="1.1" xmlns="http://www.w3.org/2000/svg" xmlns:xlink="http://www.w3.org/1999/xlink" x="0px" y="0px"
	 viewBox="0 0 421.3 355.6" style="enable-background:new 0 0 421.3 355.6;" xml:space="preserve">
<style type="text/css">
	.st0{display:none;}
	.st1{display:inline;fill:#F9FFF3;}
	.st2{opacity:0.1;fill:#2C2A40;}
	.st3{fill:#F9B587;}
	.st4{fill:#F39568;}
	.st5{fill:#2C2A40;}
	.st6{fill:#B0B1CA;}
	.st7{opacity:0.2;fill:#2C2A40;}
	.st8{fill:#6C8C31;}
	.st9{fill:none;}
	.st10{fill:#5B5B6C;}
	.st11{fill:#A5C723;}
	.st12{fill:#B8E019;}
	.st13{fill:#FFFFFF;}
	.st14{fill:#00497B;}
	.st15{fill:#007BB0;}
</style>
<g id="BACKGROUND" class="st0">
	<rect x="-39.3" y="-58.7" class="st1" width="500" height="500"/>
</g>
<g id="OBJECTS">
	<path class="st2" d="M371.9,122.1c-9-34.8-41.7-32.6-72.6-26.2c-16.7,3.5-40,8.3-64.4,1.2c-52.4-15.3-112.7-19.1-142.4,0
		c-29.7,19.1-47.6,42.1-39,74.2c8.6,32.1,30.3,61,11.8,78.2s-18.2,82.3,57.9,87.4c76.1,5.1,68.5-67.9,118.8-64.6
		s153.4,52.8,157.8,17c4.4-35.8-51.6-61.4-31.5-120.9C372.2,156.7,376,138,371.9,122.1z"/>
	<g>
		<path class="st2" d="M200.6,65.2c0,0,1.9-12.5,7.4-12c1.5,0.1,2.5,1.7,3.2,3.3c0.4,1,1.9,0.9,2.2-0.1c1.4-5.1,4.4-12.8,8.9-12.8
			c4.7,0,4.9,8.9,4.5,14.2c-0.1,0.8,1,1.2,1.4,0.5c1.2-1.8,3.1-3.6,5.3-3.1c4.3,1,3.1,9.9,3.1,9.9H200.6z"/>
		<path class="st2" d="M2,182.5c0,0,1.9-12.5,7.4-12c1.5,0.1,2.5,1.7,3.2,3.3c0.4,1,1.9,0.9,2.2-0.1c1.4-5.1,4.4-12.8,8.9-12.8
			c4.7,0,4.9,8.9,4.5,14.2c-0.1,0.8,1,1.2,1.4,0.5c1.2-1.8,3.1-3.6,5.3-3.1c4.3,1,3.1,9.9,3.1,9.9H2z"/>
		<path class="st2" d="M384.1,132.7c0,0,1.9-12.5,7.4-12c1.5,0.1,2.5,1.7,3.2,3.3c0.4,1,1.9,0.9,2.2-0.1c1.4-5.1,4.4-12.8,8.9-12.8
			c4.7,0,4.9,8.9,4.5,14.2c-0.1,0.8,1,1.2,1.4,0.5c1.2-1.8,3.1-3.6,5.3-3.1c4.3,1,3.1,9.9,3.1,9.9H384.1z"/>
	</g>
	<g>
		<g>
			<g>
				<path class="st3" d="M266.3,165c0,0-5.7,5-13.9,8.1c0,0-4.7,3-10.8,6.4c0,0,0,0,0,0c-7.1,4.1-12.6,6.7-17.9,8.2
					c-4.4,1.2-8.3,2.7-11.3,4c-0.4,0.2-0.7,0.3-1,0.5h0c-2.9,1.3-4.7,2.3-4.7,2.3l-3.7-8.7c0,0,6.7-6.6,10.6-9.9
					c4.9-4.1,13.8-12.8,24.1-16.5c0,0,0,0,0,0c0.8-0.3,1.6-0.5,2.4-0.7c0,0,8.4-5.8,14.5-9c2-1.1,3.8-1.8,4.9-2
					C259.6,147.6,269.3,156.6,266.3,165z"/>
				<path class="st4" d="M243.3,163.5c0,0-3.5-3.9-5.5-4.2c0,0,0,0,0,0c0.8-0.3,1.6-0.5,2.4-0.7C240.1,158.6,243,161.4,243.3,163.5z
					"/>
				<path class="st4" d="M266.3,165c0,0-5.7,5-13.9,8.1c0,0-4.7,3-10.8,6.4c4.2-3,10.8-9.4,15.9-13.7c3.5-3,1.6-6.8,0.1-10.3
					c-0.6-1.5-2.1-4.1-2.8-5.7c0-0.1-0.1-0.1-0.2-0.1c2-1.1,3.8-1.8,4.9-2C259.6,147.6,269.3,156.6,266.3,165z"/>
			</g>
			<path class="st3" d="M211,188.8l1.1,10.4c0.1,1.1-0.3,2.2-1.1,2.9l-6.1,5.6c-0.7,0.7-1.8,0.6-2.5-0.1l0,0
				c-0.6-0.6-0.6-1.5-0.2-2.2l4.5-6.6l-0.8-2l-2.6,4l-2.1,3.9l-1.1,6.1c-0.2,0.9-1,1.5-1.9,1.3l0,0c-0.8-0.2-1.3-0.9-1.2-1.7
				l0.6-7.4l0.9-5.4l-2.2,5.5l-2.4,9.1c-0.2,0.6-0.7,1-1.3,1.1l0,0c-0.9,0.1-1.8-0.6-1.7-1.6l0.5-8l1.6-5.7l-4.8,8l-2.6,5.6
				c-0.3,0.6-1,0.9-1.6,0.7l0,0c-0.7-0.2-1.1-1-0.9-1.7l2-6.6l3.4-6.5l-3.3,5.1l-0.9,2c-0.2,0.4-0.7,0.6-1.1,0.4l0,0
				c-0.4-0.2-0.6-0.6-0.5-0.9l0.5-2.3l2.3-4.8l17.5-11.6C203.1,185.7,206,184.7,211,188.8z"/>
			<path class="st4" d="M212.2,191.7c-0.4,0.2-0.5,0.2-0.8,0.4h0c0,0-0.3-1.4-2.4-3.1C209.1,189,210.7,189.5,212.2,191.7z"/>
		</g>
		<path class="st5" d="M373.3,171c-0.4,0.7-1.1,1.2-2,1.5c0.7,10.6,0.4,19.7-1.2,23.8c-4.9,12.7-46.8,18.9-56.9,9.7
			c-10.1-9.2-15.5-69.9-2-79.5c10.1-7.2,31.4-8.3,41.5-8.4c4.2-0.1,8.1,2.5,9.7,6.4c2.5,6.3,4.8,16.3,6.5,26.9
			c0.6,0,1.2,0.1,1.9,0.3C373,152.4,374.3,169.1,373.3,171z"/>
		<g>
			<path class="st6" d="M296.5,296.3c0.4,1.5,1,3,2.1,4.4c0,0-4.4,1.8-8.5,3.5c-3.1,1.3-8.3,2-11.6,3.3c-0.8,0.3-1.5,0.7-2.1,1.1
				c-0.1,0.1-0.3,0.2-0.4,0.3c-1.8,1.7-11.5,5.7-14.5,6.5c-0.3,0.1-0.5,0.1-0.7,0.1c-0.9,0-2.2-0.4-3-1.6v0c-0.7-1.1-1-2.9-0.2-5.7
				c0.7-2.7,3-6,5.3-8.8c2.8-3.4,6.1-6.2,9.9-8.4c3.5-2.1,8-4.8,8.9-5.7c2.8-3.1,5.3-6.6,9.2-8.1c1-0.4,2.3-0.5,3.6-0.5
				c4.2,0.1,9.2,1.8,9.2,1.8S294.3,287.2,296.5,296.3z"/>
			<path class="st5" d="M294.5,276.6c-1.9,1.4-4.9,3.8-6.2,6c-1.9,3.3-9.3,6.8-12.5,8.9c-3.2,2.1-15.6,11.8-16.8,17.1
				c-1.1,4.6,1.1,6.4,2.4,6.8c-0.3,0.1-0.5,0.1-0.7,0.1c-1.7,0-4.8-1.4-3.2-7.4c0.7-2.7,3-6,5.3-8.8c2.8-3.4,6.1-6.2,9.9-8.4
				c3.5-2.1,8-4.8,8.9-5.7c2.8-3.1,5.3-6.6,9.2-8.1C291.9,276.6,293.1,276.5,294.5,276.6z"/>
			<path class="st7" d="M298.6,300.7c0,0-4.4,1.8-8.5,3.5c-3.1,1.3-8.3,2-11.6,3.3c-0.8,0.3-1.5,0.7-2.1,1.1
				c-0.1,0.1-0.3,0.2-0.4,0.3c-1.8,1.7-11.5,5.7-14.5,6.5c-0.3,0.1-0.5,0.1-0.7,0.1c-0.9,0-2.2-0.4-3-1.6v0c0,0,6.3-1.4,9.6-3.5
				c2.1-1.4,5-3.5,7.8-5c-0.6-1.2-1.5-2.7-2.9-4.6c0.1,0.1,2.3,1.7,4.3,3.9c1.1-0.5,2.1-0.8,3-0.9c3.2-0.3,13.4-3.7,17-7.5
				C296.8,297.8,297.5,299.2,298.6,300.7z"/>
		</g>
		<g>
			<path class="st6" d="M274.9,267.5c-0.1,4.9,1,9,0.8,10.7c-0.3,3.1-5.6,9.4-5.6,9.4c-0.4,3.6-3.2,8.6-7,11.3v0c0,0,0,0-0.1,0
				c0,0-0.1,0.1-0.1,0.1c-2.2,1.5-4.7,2.2-7.3,1.3c-0.3-0.1-0.6-0.2-0.8-0.3c-4.8-2.3-6.3-19,0-25.7c6.1-6.5,8.7-19.7,14.8-21.2
				c6.1-1.5,9.2,1.2,9.2,1.2c-0.2,0.2-0.3,0.5-0.5,0.7C275.7,259.1,275,263.6,274.9,267.5z"/>
			<path class="st5" d="M278.8,254.2c-0.2,0.2-0.3,0.5-0.5,0.7c-0.6-0.2-6.3-2.2-9.9,0c-3.7,2.4-5.8,11.4-7.8,13.9
				c-2,2.5-8.1,11.5-8.3,15c-0.2,3.5-1,12.3,2.4,14.8c3.2,2.4,7,1,8.2,0.3c-2.5,1.7-5.3,2.3-8.1,1c-4.8-2.3-6.3-19,0-25.7
				c6.1-6.5,8.7-19.7,14.8-21.2C275.7,251.5,278.8,254.2,278.8,254.2z"/>
			<path class="st7" d="M275.7,278.2c-0.3,2.9-4.8,8.4-5.5,9.3l-0.1,0.1c0,0,0,0,0,0c-0.4,3.6-3.2,8.6-7,11.3v0c0,0,0,0-0.1,0
				c0,0-0.1,0.1-0.1,0.1c-2.2,1.5-4.7,2.2-7.3,1.3c0.4-0.2,0.9-0.4,1.5-0.5c4.3-0.9,8-6.9,8.8-10.1c0.2-1,1-2.2,2-3.5
				c-1.5-0.8-3.4-1.8-5-1.8c0,0,2-0.7,5.6,0.9c2.2-2.8,5-5.8,5.3-7.1c0.5-2.1,0.9-10.7,0.9-10.7
				C274.8,272.4,275.9,276.5,275.7,278.2z"/>
		</g>
		<g>
			<path class="st3" d="M401.2,96.1l-12.3,6.9l-12.5,6.9c0,0-5-11.3-0.5-18.4c0,0,1-0.6,2.6-1.4c1.1-0.6,2.5-1.3,3.9-1.9
				c0.8-0.4,1.6-0.7,2.4-1c0,0,1.2-4.1,3.3-8.7c1.1-2.4,1.3-4.1,1.1-5.1c-0.1-0.9-0.4-1.3-0.4-1.3s6.4-3.2,10.1-6.4
				C398.9,65.7,406.8,83.7,401.2,96.1z"/>
			<path class="st4" d="M391,92.2c0,0-5.3,1.3-8.7-4c0.8-0.4,1.6-0.7,2.4-1C384.8,87.2,387.2,91.5,391,92.2z"/>
			<path class="st4" d="M388.8,102.9l-12.5,6.9c0,0-5-11.3-0.5-18.4c0,0,1-0.6,2.6-1.4c0,0,0.1,9.6,1.5,12
				C381.2,104.5,385.6,103.7,388.8,102.9z"/>
			<g>
				<path class="st3" d="M398.9,65.7c-1.5,1.7-8,6.3-8.9,6.7c-0.3,0.2-0.8,0-1.2-0.4c-0.4,0-3.3,0.1-4.9-0.6
					c-0.9-0.4-0.9-1.6-0.6-2.9c-2.1-0.5-6.2-3.7-6.1-6.8c0.1-3.3,3.6-3.6,3.6-3.6c0.1-3.8,3.7-3.2,3.7-3.2c0.2-1.7,3.2-2.4,3.2-2.4
					c0.3-1.4,2.3-1.7,3.5-1.1c1.2,0.6,8.1,8.6,8.4,10.1C399.8,63,398.9,65.7,398.9,65.7z"/>
				<path class="st4" d="M388.6,66.7c0.5,1.9-1.1,2.2-1.1,2.2c0.3-0.2,0.3-1.1,0.2-1.8c0,0,0-0.5-0.2-1.1c0,0,0,0,0,0
					c-0.2-0.6-0.6-1.4-1.4-1.7c-1.4-0.6-2.1-0.2-2.1-0.2l-2.9-3.9c1.5,0.9,3.5,3,3.5,3c2.5-0.1,3.5,1.8,3.8,2.8c0.5,0,1.1-0.3,1.3-1
					c0.4-1.4-0.5-2.7-0.5-2.7l-4-5.3c0,0,5.4,5.1,5.6,7C390.9,66.7,388.6,66.7,388.6,66.7z"/>
				<path class="st4" d="M389.2,55.4c0,0,3.5,4.2,4,5.4c0.5,1.3-0.3,2.5-1.2,2.8c-0.9,0.2-1.5-0.2-1.5-0.2l0,1.3
					c0,0,3.6,0.6,3.6-2.8C394.1,60.1,389.2,55.4,389.2,55.4z"/>
				<path class="st4" d="M393.8,61c0,0,0.9,0.8,1.9,0.5c1-0.3,1.3-1,1-1.7c0,0,0.6,0.6,0.1,1.5c-0.7,1.2-2.5,1-3,0.8V61z"/>
			</g>
			<path class="st4" d="M393.2,71.4c0,0-1.1,2.1-4,1.9c-0.1-0.9-0.4-1.3-0.4-1.3S391.2,72.2,393.2,71.4z"/>
		</g>
		<path class="st8" d="M352.1,232.5c0,0-3.6-7.9-3-12.5c0.7-4.5,6.8,2.6,7.6,4.5C357.6,226.4,356.4,231.7,352.1,232.5z"/>
		<path class="st5" d="M306.1,278.9c-3.6,1.6-7.4,2.5-10.5,2.6c3.3-2.4,7.2-3.3,7.2-3.3C303.8,278.3,305,278.6,306.1,278.9z"/>
		<g>
			<path class="st9" d="M320.2,254.1c-0.7,3.1,0.1,6.9-2.1,13.9c-1.6,4.8-6.5,8.6-12,10.9c4.9,1.4,10.1,2.6,10.1,2.6
				c8.5-0.3,24.5,3.2,24.5,3.2C325.7,270.6,320.2,254.1,320.2,254.1z"/>
			<path class="st5" d="M376.8,296.8c-0.7-14.3-24.2-50.7-27.9-78.4l-14.8-5.3c-2-0.6-1.1-0.2-3.4-0.9c0,0-34.9-18-50.5,5.7
				c0,0-2,8.4,2.8,17.3c2,3.7,3.5,15.1,2,17.4c0,0-2,0.2-6.2,1.6c-2.6,0.9-6.7,2.6-9.4,3.7c-3.4,1.4-6.1,4.4-7,8
				c-0.5,1.9-0.5,4,0.3,6.4c2.6,7.6,9.2,8.4,13.5,7.7c0,0,9.2,0,16.4,1.3c0.9,0.2,1.9,0.2,3,0.2c-2,1.5-3.8,3.5-4.3,6.2
				c-1.5,7.2,5.5,12.5,5.5,12.5s0.7,1.5,6.3,1.2c5.6-0.3,5.6-1.8,10.2,0s37,15.2,47.7,15.7C371.7,317.6,377.5,311.1,376.8,296.8z
				 M316.2,281.5c0,0-5.2-1.2-10.1-2.6c5.4-2.3,10.4-6.2,12-10.9c2.3-7,1.4-10.8,2.1-13.9c0,0,5.4,16.5,20.5,30.6
				C340.7,284.7,324.7,281.2,316.2,281.5z"/>
			<g>
				<g>
					<path class="st10" d="M280.1,257.6c-0.5,0.1-1,0.2-1.5,0.3l0.2,0.7c0.5-0.1,1-0.2,1.5-0.3c0.5-0.1,1-0.2,1.5-0.3l-0.2-0.7
						C281.1,257.3,280.6,257.5,280.1,257.6z"/>
					<path class="st10" d="M264.6,262.8l0.4,0.7c0.9-0.5,1.8-1,2.7-1.5l-0.3-0.7C266.4,261.8,265.5,262.3,264.6,262.8z"/>
					<path class="st10" d="M273.7,259l0.2,0.7c0.9-0.2,1.9-0.5,3-0.7l-0.2-0.7C275.6,258.5,274.6,258.8,273.7,259z"/>
					<path class="st10" d="M289.8,246.8l0.8,0c-0.1-1-0.2-2.1-0.3-3.1l-0.7,0.1C289.7,244.7,289.8,245.8,289.8,246.8z"/>
					<path class="st10" d="M283.6,215.6l-0.8,0c-0.1,1-0.1,2.1-0.1,3.1l0.8,0C283.5,217.6,283.6,216.6,283.6,215.6z"/>
					<path class="st10" d="M289.3,241.9l0.7-0.1c-0.2-1.1-0.4-2.1-0.7-3.1l-0.7,0.2C288.9,239.9,289.1,240.9,289.3,241.9z"/>
					<path class="st10" d="M269,260.6l0.3,0.7c0.8-0.4,1.8-0.7,2.9-1l-0.2-0.7C270.8,259.8,269.9,260.2,269,260.6z"/>
					<path class="st10" d="M289,254.7c-0.2,0.3-0.5,0.5-1,0.8l0.3,0.7c0.6-0.3,1.1-0.6,1.3-1c0.3-0.4,0.5-0.9,0.7-1.6l-0.7-0.2
						C289.3,254.1,289.1,254.5,289,254.7z"/>
					<path class="st10" d="M288.8,237c-0.4-1.1-0.8-2-1.2-2.9l-0.7,0.4c0.4,0.8,0.8,1.8,1.2,2.8L288.8,237z"/>
					<path class="st10" d="M283.5,220.4l-0.8,0c0,1.1,0.1,2.1,0.2,3.1l0.8-0.1C283.6,222.5,283.5,221.5,283.5,220.4z"/>
					<path class="st10" d="M290.7,248.6l-0.8,0c0,0.1,0,0.2,0,0.3c0,1,0,1.9-0.1,2.7l0.8,0.1c0.1-0.8,0.1-1.8,0.1-2.8
						C290.7,248.8,290.7,248.7,290.7,248.6z"/>
					<path class="st10" d="M284.5,228.3c-0.3-0.9-0.5-1.9-0.6-3l-0.7,0.1c0.2,1.1,0.4,2.1,0.6,3.1L284.5,228.3z"/>
					<path class="st10" d="M285.1,229.9l-0.7,0.3c0.4,1,0.9,1.8,1.4,2.5c0.1,0.1,0.1,0.2,0.2,0.2l0.6-0.4c-0.1-0.1-0.1-0.2-0.2-0.3
						C285.9,231.6,285.5,230.8,285.1,229.9z"/>
					<path class="st10" d="M283.3,256.9l0.2,0.7c1.3-0.3,2.2-0.5,3-0.8l-0.2-0.7C285.5,256.3,284.6,256.6,283.3,256.9z"/>
				</g>
			</g>
			<g>
				<g>
					<path class="st10" d="M322.3,252.5c-0.5-0.8-0.8-1.3-0.8-1.3l0.6-0.4c0,0,0.3,0.5,0.8,1.3L322.3,252.5z"/>
				</g>
				<g>
					<path class="st10" d="M308,282.4c0.8,0.2,1.8,0.4,2.9,0.7l0.2-0.7c-1.2-0.3-2.1-0.6-2.9-0.7L308,282.4z"/>
					<path class="st10" d="M303.4,280.9l-0.1,0.7c0.8,0.1,1.4,0.2,2,0.2c0.2,0,0.5,0.1,0.9,0.1l0.1-0.7c-0.4-0.1-0.8-0.1-1-0.1
						C304.8,281.1,304.2,281,303.4,280.9z"/>
					<path class="st10" d="M312.6,283.6c0.9,0.2,1.9,0.5,2.9,0.8l0.2-0.7c-1-0.3-2-0.6-2.9-0.8L312.6,283.6z"/>
					
						<rect x="318.4" y="283.4" transform="matrix(0.2701 -0.9628 0.9628 0.2701 -41.6402 514.8113)" class="st10" width="0.8" height="3"/>
					<path class="st10" d="M321.8,286.1c1,0.3,1.9,0.5,2.9,0.8l0.2-0.7c-1-0.3-1.9-0.5-2.9-0.8L321.8,286.1z"/>
					<path class="st10" d="M333.7,267.9c-0.6-0.8-1.2-1.6-1.7-2.5l-0.6,0.4c0.6,0.8,1.1,1.6,1.7,2.5L333.7,267.9z"/>
					<path class="st10" d="M348.3,286.7c-0.2-0.8-0.7-1.7-1.6-2.7l-0.6,0.5c0.8,0.9,1.3,1.7,1.4,2.4L348.3,286.7z"/>
					<path class="st10" d="M336.5,271.7c-0.6-0.8-1.2-1.6-1.8-2.4l-0.6,0.4c0.6,0.8,1.2,1.6,1.8,2.4L336.5,271.7z"/>
					<path class="st10" d="M298.7,280.6l-0.1,0.3c1.1,0.2,2.1,0.4,3,0.5l0.1-0.7c-0.4-0.1-0.9-0.2-1.4-0.2
						C299.8,280.5,299.2,280.5,298.7,280.6z"/>
					<path class="st10" d="M323.3,254c0.5,0.7,1,1.6,1.7,2.5l0.6-0.4c-0.6-0.9-1.2-1.8-1.7-2.5L323.3,254z"/>
					<path class="st10" d="M341.5,290c-0.3,0-0.6,0-1-0.1l-0.1,0.8c0.4,0,0.7,0.1,1,0.1c0.1,0,0.1,0,0.2,0c0.7,0,1.4-0.1,1.9-0.1
						l-0.1-0.8C342.8,289.9,342.1,289.9,341.5,290z"/>
					<path class="st10" d="M345.1,282.3c-0.5-0.5-1.1-1.1-1.7-1.8l-0.6,0.5c0.6,0.7,1.2,1.3,1.7,1.8c0.1,0.1,0.2,0.2,0.4,0.3
						l0.5-0.5C345.3,282.6,345.2,282.5,345.1,282.3z"/>
					<path class="st10" d="M342.2,279.2c-0.6-0.7-1.2-1.5-1.9-2.3l-0.6,0.5c0.7,0.9,1.3,1.6,1.9,2.3L342.2,279.2z"/>
					<path class="st10" d="M336.9,273.6c0.6,0.8,1.2,1.7,1.8,2.4l0.6-0.5c-0.6-0.7-1.2-1.6-1.8-2.4L336.9,273.6z"/>
					<path class="st10" d="M345,289.5l0.2,0.7c1.4-0.3,2.3-0.9,2.8-1.6l-0.6-0.4C347,288.8,346.2,289.3,345,289.5z"/>
					<path class="st10" d="M326.4,287.4c1,0.3,2,0.5,2.9,0.8l0.2-0.7c-0.9-0.3-1.9-0.5-2.9-0.8L326.4,287.4z"/>
					<path class="st10" d="M335.6,289.8c1.1,0.3,2.1,0.5,3,0.6l0.1-0.7c-0.8-0.1-1.8-0.4-2.9-0.6L335.6,289.8z"/>
					<path class="st10" d="M328.6,261.9c0.6,0.8,1.1,1.6,1.7,2.5l0.6-0.4c-0.6-0.8-1.2-1.7-1.7-2.5L328.6,261.9z"/>
					<path class="st10" d="M328.3,260c-0.6-0.9-1.2-1.7-1.7-2.5L326,258c0.5,0.8,1.1,1.6,1.7,2.5L328.3,260z"/>
					<path class="st10" d="M331,288.6c1,0.3,2,0.5,2.9,0.7l0.2-0.7c-0.9-0.2-1.9-0.5-2.9-0.7L331,288.6z"/>
				</g>
			</g>
		</g>
		<path class="st5" d="M306.1,278.9c-3.6,1.6-7.4,2.5-10.5,2.6c3.3-2.4,7.2-3.3,7.2-3.3C303.8,278.3,305,278.6,306.1,278.9z"/>
		<g>
			<path class="st11" d="M377.6,111.7c-0.1,4.8-0.3,8.2-0.3,8.2c-0.9,0.3-1.8,0.7-2.8,1.2c-6.5,3.3-14.6,10.2-16.6,17.2
				c-0.8,2.8-1.1,8.5-1.3,15.1c-0.1,5.3-0.1,11,0,16.1c0,0.3,0,0.5,0,0.8c0.1,6.4,0.3,11.6,0.3,13.1c0,4.1-0.8,16.3-1,21.5
				c-0.2,5.3,1.3,10.9,2,19.7c0.7,8.9-5.8,7.8-5.8,7.8c6.3-2.6,3-10.1-1-11.7c-0.6-0.2-1.3-0.5-2.1-0.8c0,0,0,0,0,0
				c-9.5-3.4-31.7-9.1-43-10.7c-16.8-2.5-25.9,8.6-25.9,8.6s3.3-18.3,6.1-21.9c2.8-3.6,4.4-15.5,5.6-20.4c0.2-0.7,0.2-1.5,0.3-2.4
				c0.2-4.4-0.8-11.4-1.4-15c-0.2-1.4-0.4-2.3-0.4-2.3c-1.7,2.8-12.7,8.6-18.4,11.4c-2,1-3.3,1.6-3.3,1.6l-4.7-7.1l-9.3-14.1
				c0,0,0.6-0.6,2.5-2.1c1.4-1.1,3.4-2.6,6.3-4.8c7.1-5.3,15.5-14.8,18.6-16.3c3.1-1.5,3.6-1.3,7.7-5.3c2.9-2.8,13.3-6.1,19.3-7.9
				c2.6-0.7,4.3-1.2,4.3-1.2c8,2.4,13.9-0.9,13.9-0.9s2.2-1.4,5.2-3.2c4.8-2.9,11.7-6.8,14.5-7c3.6-0.3,19.1-4.6,25.7-6.5
				c1.8-0.5,2.9-0.8,2.9-0.8C377.4,97.3,377.7,105.6,377.6,111.7z"/>
			<g>
				<path class="st5" d="M320.1,117.6c-7.1,0.4-10.1-4.9-10.8-6.3c2.6-0.7,4.3-1.2,4.3-1.2c8,2.4,13.9-0.9,13.9-0.9s2.2-1.4,5.2-3.2
					C333.6,113.1,328.1,117.2,320.1,117.6z"/>
				<path class="st5" d="M272.1,167.2c-2,1-3.3,1.6-3.3,1.6l-14-21.2c0,0,0.6-0.6,2.5-2.1L272.1,167.2z"/>
				<path class="st5" d="M377.3,120c-0.9,0.3-1.8,0.7-2.8,1.2c1.2-11.9-0.7-24-1.6-28.8c1.8-0.5,2.9-0.8,2.9-0.8
					C378.6,101.9,377.3,120,377.3,120z"/>
			</g>
			<path class="st12" d="M356.6,169.5c-11.5-5-39.6-14.1-64.4,3.6c0.2-4.4-0.8-11.4-1.4-15c3.8-2.4,21.8-13.2,39.1-12.6
				c11.9,0.4,21.2,4.7,26.7,7.9C356.5,158.7,356.6,164.5,356.6,169.5z"/>
		</g>
		<g>
			<path class="st5" d="M301,70.5c0,0-4.6-1-5.1,4.3c-0.5,4.5,5.3,6.2,5.3,6.2S303,73.3,301,70.5z"/>
			<path class="st5" d="M303.3,78.2c0,0-4.6-1-5.1,4.3c-0.5,4.5,5.3,6.2,5.3,6.2S305.3,81,303.3,78.2z"/>
			<path class="st5" d="M300.3,71.5c0,0-7.3-2.8-4.8-10.8c2.5-8,11.9-4.8,11.9-4.8s0.3-5.6,6.6-5.9c6.2-0.3,8.5,4.7,8.5,4.7
				s4.2-4.2,9.4-2.9c5.1,1.3,6.9,7.5,5.3,10.4c0,0,3.3-0.6,5.7,3.2c2.5,3.8,3.1,9.4,0,11.5c0,0,3.7,4,1.7,9.5
				c-2,5.4-7.4,5.3-7.4,5.3s1,7.1-5.9,8.8c-6.9,1.7-6.2-4.4-6.2-4.4S313.1,68.4,300.3,71.5z"/>
			<g>
				<path class="st3" d="M329,103.4l1,4.9c0.3,1.2-0.2,2.5-1.3,3.3c-8.8,6.4-15.6,2-17-0.2c1.1-1,20-19,20.3-29.1
					C332.1,82.4,334.3,94.9,329,103.4z"/>
				<path class="st3" d="M300.8,85.1c-0.4,1.4-0.5,2.9-0.4,4.4c0.1,1.3,0.4,2.5,0.9,3.7l3.1,8c1.2,3,4.1,4.9,7.3,4.8
					c3.7-0.2,8.5-1,12.8-3.8c8-5.3,8-17.5,8-17.5s-0.7-12.4-10.9-17.1c-10.3-4.7-20.8,0.8-20.8,0.8l-1.2,8.7c-0.1,0.5-0.1,1-0.1,1.5
					c0,1.6,0.2,3.3,0.7,4.8L300.8,85.1z"/>
				<path class="st5" d="M309.2,75.9c0,0,5.8-5.6,9.8-0.6l-0.7,1.3c0,0-4-3.5-8.7,0.9L309.2,75.9z"/>
				<path class="st4" d="M300.8,85.1c-0.4,1.4-0.5,2.9-0.4,4.4c1.2-0.9,3.7-1.6,8.8-0.9c0,0-2.7-2.2-5.4-2.2c-0.7,0-1.2-0.7-1-1.4
					l1.5-4.6c0,0-0.5-0.9-1.7-1.3c-0.7-0.2-2.1-0.5-3.2-0.6c0,1.6,0.2,3.3,0.7,4.8L300.8,85.1z"/>
				<path class="st5" d="M299.6,77.1c2,0.1,3.5,0.7,3.5,0.7l0.2,1.5c-1.4-0.5-2.6-0.6-3.7-0.6c-0.5,0-1-0.4-0.9-0.8c0,0,0,0,0,0
					C298.7,77.4,299.2,77.1,299.6,77.1z"/>
				<path class="st13" d="M303.1,92.3l13.7-1.3c0,0-1.6,7.4-8.9,7.2C302.2,98,303.1,92.3,303.1,92.3z"/>
				<path class="st4" d="M312.4,105.8c0,0,8.5-1.1,13.1-12.9c0,0,2.1,4.4-0.4,10.7c-2.5,6.3-13.4,7.9-13.4,7.9L312.4,105.8z"/>
				<path class="st3" d="M328.9,82.6c0,0,2.6-4.9,6.4-2.7c3.8,2.2,1.7,13.5-3.8,11.4C326,89.2,328.9,82.6,328.9,82.6z"/>
			</g>
			<path class="st5" d="M310.9,80.3c0,0,0.8-2.5,3-2.5c3.2,0,3.8,2.7,3.8,2.7S314.6,76.2,310.9,80.3z"/>
			<path class="st5" d="M303.7,82c0,0-2.2-2.6-3.5,0.6C300.1,82.6,301.6,80.5,303.7,82z"/>
			<path class="st5" d="M300.3,71.5c0,0,3.7,0.9,6.9-1.2c3.1-2.2,2.4-4.1,2.4-4.1s1.3,3.2,5.5,2.9c4.3-0.3,4.8-1.5,4.8-1.5
				s-0.2,4.8,3.3,5.5s5.6-2.1,5.6-2.1S313.3,57.3,308,61C302.7,64.6,298.1,66.5,300.3,71.5z"/>
			<path class="st5" d="M327,71.6c0,0-2.1,4.1,1.5,6.4c0,0-0.1,3.5-1.3,6.4l2.7,0c0,0,2-3.5,1.8-6.5C331.5,75,331.5,70.4,327,71.6z"
				/>
		</g>
		<path class="st4" d="M398.9,65.7c0,0-0.6,1.6-1.5,2.2c0,0,1.5-0.1,2-0.9L398.9,65.7z"/>
		<path class="st11" d="M263,298.9C263,298.9,263,298.9,263,298.9L263,298.9C263,298.9,263,298.9,263,298.9z"/>
		<path class="st7" d="M349.1,220c-9.5-3.4-31.7-9.1-43-10.7c-16.8-2.5-25.9,8.6-25.9,8.6s3.3-18.3,6.1-21.9
			c2.8-3.6,4.4-15.5,5.6-20.4c0.2-0.7,0.2-1.5,0.3-2.4c0.2-4.4-0.8-11.4-1.4-15c-0.2-1.4-0.4-2.3-0.4-2.3
			c-1.7,2.8-12.7,8.6-18.4,11.4c-2,1-3.3,1.6-3.3,1.6l-4.7-7.1l-0.6-3.1c0,0,12.3-6.7,29.2-15.8c0,0,7.6,9.6,7.5,20.7
			c-0.2,19.8-3,33.2,9.2,37.8C321.2,205.8,347.5,219.2,349.1,220z"/>
		<path class="st7" d="M377.6,111.7c-0.1,4.8-0.3,8.2-0.3,8.2c-0.9,0.3-1.8,0.7-2.8,1.2c-6.5,3.3-14.6,10.2-16.6,17.2
			c-0.8,2.8-1.1,8.5-1.3,15.1c-0.1,5.3-0.1,11,0,16.1c0,0.3,0,0.5,0,0.8c0,0-4.3-29.7-1.9-38.4C357.2,123.3,377.2,112,377.6,111.7z"
			/>
		<path class="st5" d="M295.9,118.8c-3.6,21.4-2.9,46.7-2.9,46.7c1.3,6.7-1.5,12.3-1.5,12.3c-13.7-14.8-4.3-59,0.8-67.9
			c6.3-11,15.4,1.9,15.4,1.9l-4.7,1.5c0,0-1.6-2.3-3.6-1.8C297.4,111.9,295.9,118.8,295.9,118.8z"/>
		<path class="st5" d="M334.6,104.7c0,0,1.4-10.8,9.3-11.1c12.5-0.4,15.6,32.4,16.6,50.2c1,17.8-3.9,21.3-3.9,21.3l-0.2-10.1
			c0,0-6.5-43.7-9.7-51.4c-3.5-8.4-6.5-4.3-9.7,0l-2.8,1.3"/>
	</g>
	<g>
		<g>
			<path class="st3" d="M61.4,93.5c-20.2-5.2-36-24.3-40.2-28.9c-0.4-0.4-0.8-1.1-1.2-2c0,0,0,0,0,0C16,54.3,9.6,27,8.1,20.8
				c-0.1-0.4-0.2-0.7-0.2-1c0-0.2-0.1-0.3-0.1-0.3l11.5-5c0,0,0.9,11,6.5,19.9c5.5,8.9,10.6,23,10.6,23
				c10.8,5.3,22.4,15.2,22.4,15.2C64.9,85.3,61.4,93.5,61.4,93.5z"/>
			<path class="st4" d="M61.4,93.5c-20.2-5.2-36-24.3-40.2-28.9c-0.4-0.4-0.8-1.1-1.2-2c0.2,0.2,15.2,13,20.8,16.3
				c5.7,3.3,12.1,6.2,15.2,4c3.2-2.2,4-6.4,2.8-10.2C64.9,85.3,61.4,93.5,61.4,93.5z"/>
			<g>
				<path class="st3" d="M8.5,20.1c2.2-0.1,9.9-2.1,10.9-2.5c0.3-0.2,0.5-0.6,0.5-1.2c0.3-0.3,2.3-2.5,2.7-4.2
					c0.3-0.9-0.7-1.7-1.8-2.4c1-1.9,1.1-7.1-1.2-9.1c-2.6-2.1-5.1,0.5-5.1,0.5c-3-2.4-4.8,0.8-4.8,0.8C8.3,1.2,5.8,3,5.8,3
					C4.5,2.3,3,3.7,2.7,4.9C2.4,6.2,4.1,16.7,5,17.9C6,19.1,8.5,20.1,8.5,20.1z"/>
				<path class="st4" d="M15.9,12.8c1.1,1.6,2.4,0.5,2.4,0.5c-0.4,0.1-1-0.5-1.5-1c0,0-0.4-0.3-0.7-0.8c0,0,0,0,0,0
					c-0.4-0.6-0.7-1.3-0.4-2.2c0.4-1.5,1.2-1.7,1.2-1.7L15.8,3c-0.3,1.7,0.1,4.6,0.1,4.6c-1.7,1.9-0.9,3.8-0.3,4.7
					c-0.4,0.4-0.9,0.6-1.5,0.4c-1.3-0.6-1.8-2.2-1.8-2.2L10.8,4c0,0,0.4,7.4,1.8,8.8C14.5,14.6,15.9,12.8,15.9,12.8z"/>
				<path class="st4" d="M6.9,6c0,0,1,5.4,1.6,6.5c0.6,1.2,2.1,1.4,2.9,0.9c0.8-0.6,0.8-1.3,0.8-1.3l1,0.9c0,0-1.9,3.1-4.5,0.9
					C7.4,12.8,6.9,6,6.9,6z"/>
				<path class="st4" d="M8.2,13.2c0,0,0.1,1.2-0.9,1.8c-0.9,0.6-1.6,0.3-2-0.3c0,0,0.1,0.9,1.1,1.1C7.9,16,8.9,14.5,9.1,14
					L8.2,13.2z"/>
			</g>
			<path class="st4" d="M10.6,20.1c0,0-1,0.8-2.5,0.7c-0.1-0.4-0.2-0.7-0.2-1C7.9,19.8,9.1,20.2,10.6,20.1z"/>
			<path class="st4" d="M19.7,17.4c0,0-1.2,1.2-2.3,1.5c0,0,1.4,0.1,2.4-0.6L19.7,17.4z"/>
			<path class="st4" d="M36.4,57.4c0,0-3.9,3.2-6,3.6c0,0,4.4,1.5,8.1-2.5L36.4,57.4z"/>
		</g>
		<path class="st5" d="M48.8,155.1c0.5,0.7,1.3,1,2.2,1.2c0.7,10.6,2.1,19.6,4.2,23.5c6.5,11.9,48.8,12.7,57.6,2.3
			c8.8-10.4,6.5-71.3-8.2-79.1c-11-5.8-32.2-4.2-42.2-3.1c-4.2,0.5-7.7,3.5-8.8,7.6c-1.7,6.6-2.7,16.7-3,27.5
			c-0.6,0.1-1.2,0.3-1.8,0.6C46.8,136.7,47.5,153.4,48.8,155.1z"/>
		<path class="st3" d="M207.5,96c0,0-3.2,12-8.3,25.3c-0.8,2-1.6,4-2.4,6.1c-3.5,8.3-7.6,16.5-12,22c-2.4,3-4.8,5.2-7.3,6.3
			c0,0-7.2,1-12.2-2c-5-3-24.7-12.7-27.1-16.9c0,0,7.6-10.7,14.7-11.7c0,0,2.7,1.4,6.4,3.6c4.1,2.4,9.4,5.7,14.1,9.2
			c0.5,0.3,0.9,0.7,1.3,1c0,0,0.4-0.7,1-2c1.7-3.2,5.3-9.8,9.7-16.8c0.9-1.5,1.9-3,2.9-4.5c0.2-0.3,0.4-0.7,0.7-1
			c7.8-11.6,8.8-20,8.8-20S205.4,93.9,207.5,96z"/>
		<path class="st4" d="M199.2,121.3c-0.8,2-1.6,4-2.4,6.1l-11.3-7.3c0.9-1.5,1.9-3,2.9-4.5L199.2,121.3z"/>
		<path class="st4" d="M184.7,149.4c-2.4,3-4.8,5.2-7.3,6.3c0,0-7.2,1-12.2-2c-5-3-24.7-12.7-27.1-16.9c0,0,7.6-10.7,14.7-11.7
			c0,0,2.7,1.4,6.4,3.6c-0.4,1.5-2.2,6.9-5.3,9.5c-3.6,3.1,4.8,10.1,12.1,13.2C173.3,154.5,178.4,154.4,184.7,149.4z"/>
		<path class="st4" d="M174.4,147c0.8-3.4-1-9.2-1-9.2c0.5,0.3,0.9,0.7,1.3,1c0,0,0.4-0.7,1-2C176.5,144.2,174.4,147,174.4,147z"/>
		<path class="st6" d="M140.9,325.2c-6.7-3.9-9.1-7.7-13.1-14.4c-2.4-4-4.6-7.3-6-9.4c-1-1.4-1.1-3.3-0.3-4.8
			c0.1-0.1,0.1-0.2,0.2-0.4c1.6-3,4.2-7.2,6.5-7.3l2.6,1.4l8.8,4.8c0,0,3.9,8.9,3.7,12.7c-0.1,3.4,6.4,11.2,8.4,15.6
			c0.2,0.4,0.3,0.7,0.4,1c0.1,0.2,0.1,0.4,0.1,0.6C152.6,329,147.6,329.1,140.9,325.2z"/>
		<path class="st5" d="M140.9,325.2c-6.7-3.9-9.1-7.7-13.1-14.4c-2.4-4-4.6-7.3-6-9.4c-1-1.4-1.1-3.3-0.3-4.8
			c0.1-0.1,0.1-0.2,0.2-0.4c0.4,1.6,1.4,5.1,3.7,7.7c3,3.5,7.5,11.5,8.5,13c1.1,1.5,8.5,8,13.3,8.9c3.8,0.8,4.5,0,4.8-1.3
			c0.1,0.2,0.1,0.4,0.1,0.6C152.6,329,147.6,329.1,140.9,325.2z"/>
		<path class="st7" d="M140.9,325.2c-6.7-3.9-9.1-7.7-13.1-14.4c-2.4-4-4.6-7.3-6-9.4c-1-1.4-1.1-3.3-0.3-4.8
			c0.1-0.1,0.1-0.2,0.2-0.4c1.6-3,4.2-7.2,6.5-7.3l2.6,1.4c0,0-5,4.5-3.4,9.4c1.6,5,6.9,12.4,9.7,15.7c2.7,3.2,8.7,8.7,14.6,8
			c0.2,0.4,0.3,0.7,0.4,1c0.1,0.2,0.1,0.4,0.1,0.6C152.6,329,147.6,329.1,140.9,325.2z"/>
		<path class="st6" d="M138.4,348.1c-0.2,4.5-3.3,8.5-10.3,7.4c-7.9-1.3-10.1-7.9-11.9-11.9c-1.8-4-6.2-18-8.1-23.5
			c-1-3-0.7-6.3-0.2-8.7c0.4-2,0.9-3.4,0.9-3.4l2.8,0.4l16.1,2.4c0,0,3,6.4,3.7,13.6c0.6,6.2,4.7,14.2,6.3,19.5c0,0,0,0,0,0
			c0.3,0.9,0.5,1.7,0.6,2.4C138.4,346.9,138.5,347.5,138.4,348.1z"/>
		<path class="st7" d="M138.4,348.1c-0.2,4.5-3.3,8.5-10.3,7.4c-7.9-1.3-10.1-7.9-11.9-11.9c-1.8-4-6.2-18-8.1-23.5
			c-1-3-0.7-6.3-0.2-8.7c0.4-2,0.9-3.4,0.9-3.4l2.8,0.4c-0.3,2.8,0.9,10.7,3.2,14.9c2.8,5.3,4.8,16.9,9.6,22.1
			c4.8,5.2,13.5,6.1,13.3-1.4c0.3,0.9,0.5,1.7,0.6,2.4C138.4,346.9,138.5,347.5,138.4,348.1z"/>
		<path class="st5" d="M138.4,348.1c-0.2,4.5-3.3,8.5-10.3,7.4c-7.9-1.3-10.1-7.9-11.9-11.9c-1.8-4-6.2-18-8.1-23.5
			c-1-3-0.7-6.3-0.2-8.7c0.4,2.5,2.5,10.4,5,16.7c4,10.3,7.2,19.3,10,22.3C125.8,353.4,136.8,355.4,138.4,348.1z"/>
		<path class="st14" d="M56.1,91.8l6.3,2c0,0-1.1,4.5-2.9,4.5C57.7,98.2,55.6,97.2,56.1,91.8z"/>
		<g>
			<path class="st9" d="M140.9,251.6c1.2,3.1,0.1,6.2-1.3,11.3c5.4-7.8,14.4-20.2,14.4-20.2l-26.2-8.1
				C127.8,234.6,139.5,248.2,140.9,251.6z"/>
			<path class="st5" d="M186,232.2c-0.3-1.2-0.9-2.3-1.8-3.2c-2.7-3.1-10.7-11.4-26.8-21c-20.5-12.2-24.3-11.2-34.6-18.8
				c0,0-35-3.9-49.4,10c-0.1,0.1-0.3,0.3-0.4,0.4c-1.3,1.3-2.4,2.8-3.3,4.5c0,0,0,18.2,7.2,24.8s29.7,30.1,31.8,29.8
				c0,0,0.2,3.6,2.9,3.8c0,0-3.7,14.9-2.2,21.3c0,0-2.3,5.4-1.2,9.2c1.2,3.9-0.3,7.7-0.3,10.1c0,2.4,2,12.8,8.6,14.9
				c6.5,2.2,13.8-0.2,14.3-5.9c0.5-5.7-0.8-9.4-0.3-12.6c0.1-0.9,0.7-3.4,1.6-6.8c2.4,1.5,6.2,2.6,7.5,2.4
				c1.7-0.3,5.2-10.2,7.4-10.9c2.2-0.7,9.9-10.2,15.4-15.6C167.7,263.5,189.9,247,186,232.2z M127.8,234.6l26.2,8.1
				c0,0-9,12.4-14.4,20.2c1.4-5.1,2.5-8.3,1.3-11.3C139.5,248.2,127.8,234.6,127.8,234.6z"/>
			<g>
				<g>
					<path class="st10" d="M74.3,200.7l-1,0.2c-0.1-0.6-0.2-1-0.2-1.3c0.1-0.1,0.3-0.3,0.4-0.4l0.5-0.1
						C74.1,199,74.1,199.6,74.3,200.7z"/>
				</g>
				<g>
					<path class="st10" d="M74.7,202.9l-1,0.2c0.2,1.1,0.4,2.2,0.6,3.2l1-0.2C75.1,205.1,74.9,204,74.7,202.9z M75.8,208.3l-1,0.2
						c0.2,1.1,0.5,2.2,0.7,3.2l1-0.2C76.3,210.5,76,209.4,75.8,208.3z M77.1,213.7l-1,0.3c0.3,1.1,0.6,2.2,0.9,3.2l1-0.3
						C77.7,215.9,77.4,214.9,77.1,213.7z M78.7,219l-0.9,0.3c0.4,1.2,0.9,2.2,1.3,3.1l0.9-0.5C79.5,221.2,79.1,220.2,78.7,219z
						 M81.2,223.7l-0.7,0.7c0.5,0.5,1.3,1.3,2.3,2.4l0.7-0.7C82.4,225,81.6,224.2,81.2,223.7z M85.1,227.6l-0.7,0.7
						c0.7,0.7,1.5,1.5,2.4,2.3l0.7-0.7C86.6,229.1,85.8,228.4,85.1,227.6z M89.1,231.5l-0.7,0.7c0.8,0.7,1.6,1.5,2.4,2.3l0.7-0.7
						C90.7,233,89.9,232.3,89.1,231.5z M93.1,235.4l-0.7,0.7c0.8,0.7,1.6,1.5,2.4,2.3l0.7-0.7C94.7,236.9,93.9,236.1,93.1,235.4z
						 M97.2,239.2l-0.7,0.7c0.8,0.8,1.6,1.5,2.4,2.3l0.7-0.7C98.8,240.7,98,239.9,97.2,239.2z M101.2,243l-0.7,0.7
						c0.8,0.8,1.6,1.5,2.4,2.2l0.7-0.7C102.9,244.5,102.1,243.8,101.2,243z M105.3,246.8l-0.7,0.7c0.9,0.8,1.7,1.5,2.5,2.2l0.7-0.8
						C107,248.3,106.2,247.5,105.3,246.8z M109.5,250.5l-0.7,0.8c1,0.9,1.9,1.6,2.5,2.1l0.6-0.8C111.3,252,110.5,251.3,109.5,250.5z
						 M113.8,253.8l-0.4,0.9c0.7,0.3,1.2,1,1.4,2.3l1-0.2C115.5,255.7,115.1,254.4,113.8,253.8z M116.1,259.1l-1,0.1
						c0.1,1,0.3,2.2,0.6,3.3l1-0.3C116.4,261.2,116.2,260,116.1,259.1z M115.8,264.6c-0.1,0.8-0.2,1.9-0.4,3.2l1,0.2
						c0.2-1.4,0.4-2.4,0.5-3.3L115.8,264.6z M114.9,270c-0.2,0.8-0.3,1.7-0.5,2.6l-0.1,0.7l1,0.2l0.1-0.7c0.2-0.9,0.4-1.7,0.5-2.6
						L114.9,270z M113.8,275.5c-0.3,1.3-0.5,2.3-0.6,3.2l1,0.2c0.2-0.9,0.4-2,0.6-3.2L113.8,275.5z M113.9,281.1l-1-0.1
						c-0.1,1.1-0.2,2.1-0.2,2.9c0,0.2,0,0.3,0,0.5l1,0c0-0.1,0-0.3,0-0.4C113.7,283.1,113.7,282.2,113.9,281.1z M113.8,286.6l-1,0
						c0,0.6,0,1.1,0,1.7c0,0.5,0,1,0,1.5l1,0c0-0.5,0-1.1,0-1.6C113.8,287.8,113.8,287.2,113.8,286.6z M112.7,292.1
						c0,0.6-0.1,1.2-0.1,1.8c0,0.5-0.1,1-0.1,1.5l1,0.1c0-0.5,0.1-1,0.1-1.5c0-0.6,0.1-1.2,0.1-1.8L112.7,292.1z M113.4,300.5
						c0-0.5,0-1,0-1.6c0-0.4,0-0.7,0-1.1l-1,0c0,0.4,0,0.8,0,1.1c0,0.6,0,1.1,0,1.7c0,0.2,0,0.3,0,0.5l1,0
						C113.5,300.8,113.4,300.6,113.4,300.5z M112.3,303.2c-0.1,0.9-0.3,2-0.5,3.2l1,0.2c0.2-1.2,0.4-2.3,0.5-3.3L112.3,303.2z
						 M111.4,308.7c-0.2,1-0.5,2.1-0.7,3.2l1,0.2c0.3-1.1,0.5-2.2,0.8-3.2L111.4,308.7z"/>
				</g>
			</g>
			<g>
				<path class="st10" d="M123.8,227.7c0,0,1.2,0.4,3.1,1l0.3-1c-1.9-0.7-3.1-1-3.1-1L123.8,227.7z"/>
				<path class="st10" d="M132.5,229.6c-1.1-0.4-2.2-0.7-3.1-1.1l-0.3,1c0.9,0.3,2,0.7,3.1,1.1L132.5,229.6z"/>
				<polygon class="st10" points="138.8,269.7 139.7,270.3 141.6,267.6 140.7,267 				"/>
				
					<rect x="135.4" y="272.7" transform="matrix(0.5753 -0.818 0.818 0.5753 -165.2908 228.1079)" class="st10" width="3.3" height="1"/>
				<path class="st10" d="M133.9,276.7c0,0.6,0,1.1,0.1,1.7l1.2-1.7l-0.8-0.6L133.9,276.7z"/>
				<path class="st10" d="M137.8,231.4c-1.1-0.4-2.1-0.7-3.1-1.1l-0.3,1c1,0.3,2,0.7,3.1,1.1L137.8,231.4z"/>
				<path class="st10" d="M153.5,236.9c-1-0.3-2-0.7-3.1-1.1l-0.3,0.9c1.1,0.4,2.1,0.8,3.1,1.1L153.5,236.9z"/>
				<path class="st10" d="M143,233.2c-1-0.4-2.1-0.7-3.1-1.1l-0.3,1c1,0.4,2.1,0.7,3.1,1.1L143,233.2z"/>
				<path class="st10" d="M152.3,252l0.7,0.7c0.7-0.7,1.4-1.6,2.2-2.4l-0.8-0.7C153.7,250.4,152.9,251.3,152.3,252z"/>
				<path class="st10" d="M155.9,247.9l0.8,0.6c0.8-1,1.5-1.8,2-2.6l-0.8-0.6C157.4,246.1,156.7,246.9,155.9,247.9z"/>
				<path class="st10" d="M158.7,238.8c-0.7-0.3-1.8-0.7-3.1-1.2l-0.3,0.9c1.3,0.5,2.3,0.9,3.1,1.2L158.7,238.8z"/>
				<path class="st10" d="M160.8,240.5l-0.9,0.3c0,0.1,0.1,0.3,0.1,0.5c0,0.6-0.3,1.3-0.7,2.2l0.9,0.5c0.6-1.1,0.9-2,0.9-2.7
					C160.9,241,160.8,240.7,160.8,240.5z"/>
				<polygon class="st10" points="142,265.2 142.9,265.8 144.7,263.1 143.9,262.5 				"/>
				<path class="st10" d="M148.6,256.2l0.8,0.7c0.6-0.7,1.2-1.4,2.2-2.4l-0.7-0.7C149.8,254.7,149.2,255.5,148.6,256.2z"/>
				<path class="st10" d="M146.8,258.4l-1.6,2.3l0.8,0.6l1.6-2.3c0.1-0.1,0.2-0.3,0.3-0.4l-0.8-0.6
					C147,258.1,146.9,258.2,146.8,258.4z"/>
				<path class="st10" d="M144.9,234.9c1.1,0.4,2.1,0.7,3.1,1.1l0.3-1c-1-0.4-2-0.7-3.1-1.1L144.9,234.9z"/>
			</g>
		</g>
		<path class="st15" d="M157.5,127.5c-1.2,5.2-6.2,10-10.1,13.1c0,0,0,0,0,0c-2.8,2.2-5.1,3.5-5.1,3.5l-2.4-2l-7.3-6.3
			c0,0,0,0-3.5,7.2c-3.5,7.2-2.5,25.7-2.9,31c-0.4,4.6,6.7,15.4,8.2,19c0.2,0.5,0.3,0.9,0.2,1.1c-0.6,1.5-18.1,3.8-29.5,0
			c-11.4-3.8-34.4,10-35.2,9.8c-0.8-0.3-1.4-33.9-4.9-48.9c-3.5-15,2.3-54.2,2.3-54.2l-4.7-1.5l-2.1-0.7c-6.2,0.3-4.2-7-4.2-7
			s0.2,7.4,4,5.5c1.7-0.9,1.6-5.9,1-11.2c-0.7-6.5-2.2-13.3-2.3-13.4c0.1,0,1.2,0.3,3,0.8c6,1.7,19.2,5.6,24.2,8.6
			c1.5,0.9,5.1,3.5,7.9,5.5c2.1,1.5,3.7,2.7,3.7,2.7c9.9,5.4,13,5.1,21.1,7.5c0.4,0.1,0.7,0.2,1.1,0.3c9.8,2.9,21,6.4,25.1,13.4
			c3.2,5.4,8.6,11.7,11.2,14.6C157,127,157.5,127.5,157.5,127.5z"/>
		<path class="st5" d="M62.5,99.4l-2.1-0.7c-6.2,0.3-4.2-7-4.2-7s0.2,7.4,4,5.5c1.7-0.9,1.6-5.9,1-11.2c-0.7-6.5-2.2-13.3-2.3-13.4
			c0.1,0,1.2,0.3,3,0.8C63.3,79.5,66,92.8,62.5,99.4z"/>
		<path class="st5" d="M157.5,127.5c-1.2,5.2-6.2,10-10.1,13.1c0,0,0,0,0,0c-2.8,2.2-5.1,3.5-5.1,3.5l-2.4-2
			c8-5.4,13.6-12.2,15.8-16.6C156.6,126.5,157.5,127.5,157.5,127.5z"/>
		<path class="st5" d="M117.9,97.5c-1.6,4.2-4,8-16.3,5c-13.9-3.4-6.3-14-6.3-14c2.1,1.5,2.3,1.7,2.3,1.7c9.9,5.4,10.1,4.3,18.2,6.7
			C116.2,97.1,117.5,97.4,117.9,97.5z"/>
		<path class="st7" d="M147.4,140.7c-2.8,2.2-5.1,3.5-5.1,3.5l-9.6-8.3c0,0,0,0-3.5,7.2c-3.5,7.2-2.5,25.7-2.9,31
			c-6.9-16.4,5.2-46.6,5.2-46.6C134.8,134.4,147.2,140.5,147.4,140.7z"/>
		<path class="st7" d="M134.5,194.3c-0.6,1.5-18.1,3.8-29.5,0c-11.4-3.8-34.4,10-35.2,9.8c-0.8-0.3-1.4-33.9-4.9-48.9
			c-3.5-15,2.3-54.2,2.3-54.2l-6.9-2.2c-6.2,0.3-4.2-7-4.2-7s0.2,7.4,4,5.5c1.7-0.9,1.6-5.9,1-11.2c0,0,12,8.6,18.9,10.6
			c0,0-1.9,12.3-3.8,28.4c-1.8,16.1-0.7,27.1,3,38.3c3.7,11.2,11.9,22,23.4,23.2c11.4,1.2,22.6,9.2,31.7,6.5
			C134.5,193.7,134.6,194.1,134.5,194.3z"/>
		<g>
			<path class="st5" d="M137.7,59.8C137.7,59.8,137.7,59.8,137.7,59.8c-0.3,0.3-0.5,0.4-0.5,0.4L99.5,73.4c0,0-5.6-2.6-5.3-12.4
				c0.2-7.1,4.8-10.3,7.3-11.6c-0.3-0.3-0.6-0.6-0.8-0.9c-0.3-0.4,0-1.1,0.5-1.1c0.5,0,0.9,0,1.2,0.1c-0.1-0.5-0.2-0.9-0.2-1.4
				c0-0.6,0.6-0.9,1-0.6c0.8,0.5,1.3,0.9,1.6,1.4c0,0,0,0,0-0.1c3.7-3.7,8.5-5.9,13.7-6.2c2.8-0.2,6.3-0.4,9.7-0.8
				c6.6-0.7,11.7,0.5,13.6-1.5C142.1,38.3,150.3,51.8,137.7,59.8z"/>
			<path class="st5" d="M136.9,57.4c0,0,3.9,9-2.5,14.4C134.4,71.8,133.5,61,136.9,57.4z"/>
			<path class="st3" d="M114.5,99.2c-0.1,0.1-0.1,0.1-0.2,0.2c-0.8,0.6-1.9,1.3-3.7,1.8c-3.3,1-10.5-2.2-13.6-3.7
				c-0.8-0.4-1.2-1.4-0.9-2.3c1.8-4.7,2.6-9.6,2.6-14.6c0-7.6,3.1-14.7,3.1-14.7c-0.8,3.6,0.6,8.8,2.7,14
				C107.9,88.6,113.4,97.4,114.5,99.2z"/>
			<path class="st3" d="M131.9,76.3c0,1.5-0.2,3-0.7,4.4c-0.4,1.2-1,2.4-1.7,3.5l-5,7.1c-1.9,2.6-5.2,3.8-8.3,2.9
				c-3.6-1-8.1-3.1-11.6-6.9c-6.6-7.2-3.6-19.2-3.6-19.2s3.7-12,14.9-14.1c11.2-2.1,20.2,5.8,20.2,5.8l-0.9,8.8
				c-0.1,0.5-0.1,1-0.2,1.5c-0.4,1.6-1,3.2-1.9,4.5L131.9,76.3z"/>
			<path class="st5" d="M125.9,65.2c0,0-4.3-7-9.5-2.9l0.4,1.5c0,0,4.8-2.5,8.3,3L125.9,65.2z"/>
			<path class="st4" d="M131.9,76.3c0,1.5-0.2,3-0.7,4.4c-1-1.2-3.3-2.5-8.4-3c0,0,3.2-1.5,5.8-0.9c0.7,0.2,1.4-0.4,1.3-1.1
				l-0.4-4.9c0,0,0.8-0.8,2-0.8c0.7,0,2.2,0,3.3,0.2c-0.4,1.6-1,3.2-1.9,4.5L131.9,76.3z"/>
			<path class="st5" d="M135,68.7c-1.9-0.3-3.6-0.2-3.6-0.2l-0.5,1.4c1.5-0.1,2.7,0,3.8,0.3c0.5,0.1,1-0.1,1.1-0.6c0,0,0,0,0,0
				C135.8,69.2,135.4,68.8,135,68.7z"/>
			<path class="st13" d="M127.9,82.8l-13.2-4.6c0,0-0.3,7.7,7,9.3C127.4,88.7,127.9,82.8,127.9,82.8z"/>
			<path class="st4" d="M115.4,93.7l-0.6,5.2c-0.1,0.1-0.2,0.2-0.3,0.3c-0.1,0.1-0.1,0.1-0.2,0.2c-1.9-0.9-10.1-5-10.9-10.9
				c-0.5-3.8,0.2-6.6,1-8.4c0.6-1.4,1.2-2.2,1.2-2.2C107.3,90.6,115.4,93.7,115.4,93.7z"/>
			<path class="st3" d="M104.9,67c0,0-1.3-5.5-5.6-4.2c-4.3,1.3-4.9,12.8,1,12.1C106.2,74.2,104.9,67,104.9,67z"/>
			<path class="st5" d="M117.6,53.8c0,0-2.5,0.3-2.8,3.4c-0.3,3.1-0.8,8.5-4.9,8.4c-4-0.1-4.4,4.8-4.4,4.8l-2.9-0.7
				c0,0-0.3-8.7,1.6-11.7C106.2,55,114.3,50.7,117.6,53.8z"/>
			<path class="st5" d="M117.1,67.6c0,0,1.4-1.8,4.2-1c2.8,0.8,2.6,3.8,2.6,3.8S122.4,66.5,117.1,67.6z"/>
			<path class="st5" d="M130.2,72.5c0,0,1-0.6,2.1-0.2c1.1,0.4,0.7,1.9,0.7,1.9S132.8,72.3,130.2,72.5z"/>
		</g>
		<g>
			<g>
				
					<rect x="166.8" y="82.5" transform="matrix(0.8454 0.5342 -0.5342 0.8454 83.752 -88.1372)" class="st5" width="54.7" height="36.2"/>
				<polygon class="st5" points="226.9,99.9 207.6,130.5 161.3,101.3 163.3,101.2 226.1,96.7 226.6,98.9 226.6,98.9 				"/>
				<path class="st13" d="M226.6,98.9l-18.5,29.4c-0.6-0.4-0.4-0.2-1.4-0.9l-12.7-29.3l32-1.3L226.6,98.9z"/>
				
					<rect x="168.1" y="79.9" transform="matrix(0.8454 0.5342 -0.5342 0.8454 82.4273 -88.6288)" class="st5" width="52.3" height="36.2"/>
			</g>
			<path class="st3" d="M211.7,84.5C211.7,84.5,211.7,84.5,211.7,84.5c-0.4-0.8-1.4-1.5-2.1-1.6c0-0.7-0.7-1.3-1.5-1.7
				c-0.5-0.2-1-0.2-1.5-0.1c-0.2-0.8-1.1-1.5-1.7-1.3c0,0-0.1,0-0.4,0.1c-0.1-0.6-0.4-1-0.4-1h0c-0.4-0.9-1.9-1.7-2.6-1.4
				c0,0-5.8,1-7.1,5c-1.4,4-3.1,8.6-1.1,8.3c0.6-0.1,1.3-0.6,1.9-1.5c-0.7,2.4-1,4.3,0.3,4.1c0.7-0.1,1.6-1,2.4-2.1
				c-0.6,2.1-0.7,3.5,0.5,3.4c1.1-0.1,2.5-1.9,3.5-3.9c-0.7,2.3-0.9,4.1,0.4,3.9c1.6-0.2,2.7-3.4,4.3-5.9c1.9-2.9,1.8-1.2,3.8-2
				l1.5,0.9C212.6,86,211.8,84.6,211.7,84.5z"/>
		</g>
		<path class="st5" d="M95.3,88.6c0,0,1.6-13.3-3.9-14.4c-10.7-2.1-22.6,13.7-29,30.2c-9.7,24.8,1.5,43.4,1.5,43.4l0.2-9.5
			c0,0-0.9-20.6,8.7-37C82.4,85.1,89,80.7,90.4,81.8s1.5,4.3,1.5,4.3L95.3,88.6z"/>
		<path class="st5" d="M119.8,98.1c0,0,3.2-8.3,13.5-4.6c9,3.2,8,12.8,6.7,25.4c-1.4,12.6-13.6,43.7-13.6,43.7s-0.5-11,0.9-17.5
			c0,0,8.4-27.7,5.4-38.6c-3-10.9-9.8-7.5-9.8-7.5L119.8,98.1z"/>
	</g>
</g>
<g id="DESIGNED_BY_FREEPIK" class="st0">
</g>
</svg>
