<?xml version="1.0" encoding="utf-8"?>
<!-- Generator: Adobe Illustrator 23.0.1, SVG Export Plug-In . SVG Version: 6.00 Build 0)  -->
<svg version="1.1" xmlns="http://www.w3.org/2000/svg" xmlns:xlink="http://www.w3.org/1999/xlink" x="0px" y="0px"
	 viewBox="0 0 612 436.5" style="enable-background:new 0 0 612 436.5;" xml:space="preserve">
<style type="text/css">
	.st0{fill-rule:evenodd;clip-rule:evenodd;fill:#49535A;}
	.st1{fill-rule:evenodd;clip-rule:evenodd;fill:#E5E6E7;}
	.st2{fill-rule:evenodd;clip-rule:evenodd;fill:#59595B;}
	.st3{fill-rule:evenodd;clip-rule:evenodd;fill:#898888;}
	.st4{fill-rule:evenodd;clip-rule:evenodd;fill:#718E8C;}
	.st5{fill-rule:evenodd;clip-rule:evenodd;fill:#63807F;}
	.st6{fill-rule:evenodd;clip-rule:evenodd;fill:#6F5E46;}
	.st7{fill-rule:evenodd;clip-rule:evenodd;fill:#796A53;}
	.st8{fill-rule:evenodd;clip-rule:evenodd;fill:#CFD0D2;}
	.st9{fill-rule:evenodd;clip-rule:evenodd;fill:#BABCBE;}
	.st10{fill-rule:evenodd;clip-rule:evenodd;fill:#807F6F;}
	.st11{fill-rule:evenodd;clip-rule:evenodd;fill:#A6A58F;}
	.st12{fill-rule:evenodd;clip-rule:evenodd;fill:#238EBB;}
	.st13{fill-rule:evenodd;clip-rule:evenodd;fill:#1E81A9;}
	.st14{fill-rule:evenodd;clip-rule:evenodd;fill:#885633;}
	.st15{fill-rule:evenodd;clip-rule:evenodd;fill:#825230;}
	.st16{fill-rule:evenodd;clip-rule:evenodd;fill:#754C24;}
	.st17{fill-rule:evenodd;clip-rule:evenodd;fill:#684421;}
	.st18{fill-rule:evenodd;clip-rule:evenodd;fill:#F0D0BF;stroke:#272525;stroke-width:0.5;stroke-miterlimit:2.6131;}
	.st19{fill-rule:evenodd;clip-rule:evenodd;fill:#545457;}
	.st20{fill-rule:evenodd;clip-rule:evenodd;fill:#A5A7A9;}
	.st21{fill-rule:evenodd;clip-rule:evenodd;fill:#6D6E70;}
	.st22{fill-rule:evenodd;clip-rule:evenodd;fill:#4E5052;}
	.st23{fill-rule:evenodd;clip-rule:evenodd;fill:#4C4C4F;}
	.st24{fill-rule:evenodd;clip-rule:evenodd;fill:url(#XMLID_554_);}
	.st25{fill-rule:evenodd;clip-rule:evenodd;fill:url(#XMLID_555_);}
	.st26{fill-rule:evenodd;clip-rule:evenodd;fill:#5C5D62;}
	.st27{fill-rule:evenodd;clip-rule:evenodd;fill:url(#XMLID_556_);}
	.st28{fill-rule:evenodd;clip-rule:evenodd;fill:url(#XMLID_557_);}
	.st29{fill-rule:evenodd;clip-rule:evenodd;fill:#495E5D;}
	.st30{fill-rule:evenodd;clip-rule:evenodd;fill:#566E6D;}
	.st31{fill-rule:evenodd;clip-rule:evenodd;fill:#598276;}
	.st32{fill-rule:evenodd;clip-rule:evenodd;fill:url(#XMLID_558_);}
	.st33{fill-rule:evenodd;clip-rule:evenodd;fill:url(#XMLID_559_);}
	.st34{fill-rule:evenodd;clip-rule:evenodd;fill:url(#XMLID_560_);}
	.st35{fill-rule:evenodd;clip-rule:evenodd;fill:url(#XMLID_561_);}
	.st36{fill-rule:evenodd;clip-rule:evenodd;fill:url(#XMLID_562_);}
	.st37{fill-rule:evenodd;clip-rule:evenodd;fill:url(#XMLID_563_);}
	.st38{fill-rule:evenodd;clip-rule:evenodd;fill:url(#XMLID_564_);}
	.st39{fill-rule:evenodd;clip-rule:evenodd;fill:url(#XMLID_565_);}
	.st40{fill-rule:evenodd;clip-rule:evenodd;fill:url(#XMLID_566_);}
	.st41{fill-rule:evenodd;clip-rule:evenodd;fill:url(#XMLID_567_);}
	.st42{fill-rule:evenodd;clip-rule:evenodd;fill:url(#XMLID_568_);}
	.st43{fill-rule:evenodd;clip-rule:evenodd;fill:#8F5744;}
	.st44{fill-rule:evenodd;clip-rule:evenodd;fill:url(#XMLID_569_);}
	.st45{fill:url(#XMLID_570_);}
	.st46{fill-rule:evenodd;clip-rule:evenodd;fill:url(#XMLID_571_);}
	.st47{fill-rule:evenodd;clip-rule:evenodd;fill:url(#XMLID_572_);}
	.st48{fill:url(#XMLID_573_);}
	.st49{fill-rule:evenodd;clip-rule:evenodd;fill:url(#XMLID_574_);}
	.st50{fill-rule:evenodd;clip-rule:evenodd;fill:url(#XMLID_575_);}
	.st51{fill-rule:evenodd;clip-rule:evenodd;fill:#333333;}
	.st52{fill-rule:evenodd;clip-rule:evenodd;fill:url(#XMLID_576_);}
	.st53{fill-rule:evenodd;clip-rule:evenodd;fill:url(#XMLID_577_);}
	.st54{fill-rule:evenodd;clip-rule:evenodd;fill:url(#XMLID_578_);}
	.st55{fill-rule:evenodd;clip-rule:evenodd;fill:url(#XMLID_579_);}
	.st56{fill-rule:evenodd;clip-rule:evenodd;fill:#8C6239;}
	.st57{fill-rule:evenodd;clip-rule:evenodd;fill:#A67C52;}
	.st58{fill-rule:evenodd;clip-rule:evenodd;fill:url(#XMLID_580_);}
	.st59{fill-rule:evenodd;clip-rule:evenodd;fill:#42210B;}
	.st60{fill-rule:evenodd;clip-rule:evenodd;fill:url(#XMLID_581_);}
	.st61{fill-rule:evenodd;clip-rule:evenodd;fill:url(#XMLID_582_);}
	.st62{fill-rule:evenodd;clip-rule:evenodd;fill:#B3B3B3;}
	.st63{fill-rule:evenodd;clip-rule:evenodd;fill:#CCCCCC;}
	.st64{fill-rule:evenodd;clip-rule:evenodd;fill:url(#XMLID_583_);}
	.st65{fill-rule:evenodd;clip-rule:evenodd;fill:url(#XMLID_584_);}
	.st66{fill-rule:evenodd;clip-rule:evenodd;fill:#B55232;}
	.st67{fill-rule:evenodd;clip-rule:evenodd;fill:#A14A2B;}
	.st68{fill-rule:evenodd;clip-rule:evenodd;fill:#736357;}
	.st69{fill-rule:evenodd;clip-rule:evenodd;fill:#63554B;}
	.st70{fill-rule:evenodd;clip-rule:evenodd;fill:#8BA0A9;}
	.st71{fill-rule:evenodd;clip-rule:evenodd;fill:#7B8E96;}
	.st72{fill-rule:evenodd;clip-rule:evenodd;fill:#4B545A;}
	.st73{fill-rule:evenodd;clip-rule:evenodd;fill:#603E1E;}
	.st74{fill-rule:evenodd;clip-rule:evenodd;fill:#51351D;}
	.st75{fill-rule:evenodd;clip-rule:evenodd;fill:#484F5B;}
	.st76{fill-rule:evenodd;clip-rule:evenodd;fill:#3C424C;}
	.st77{fill-rule:evenodd;clip-rule:evenodd;fill:#6F604C;}
	.st78{fill-rule:evenodd;clip-rule:evenodd;fill:#796C58;}
	.st79{fill-rule:evenodd;clip-rule:evenodd;fill:#BBBCBE;}
	.st80{fill-rule:evenodd;clip-rule:evenodd;fill:#C6A279;}
	.st81{fill-rule:evenodd;clip-rule:evenodd;fill:#A98C69;}
	.st82{fill-rule:evenodd;clip-rule:evenodd;fill:url(#XMLID_585_);}
	.st83{fill-rule:evenodd;clip-rule:evenodd;fill:url(#XMLID_586_);}
	.st84{fill-rule:evenodd;clip-rule:evenodd;fill:url(#XMLID_587_);}
	.st85{fill-rule:evenodd;clip-rule:evenodd;fill:url(#XMLID_588_);}
	.st86{fill-rule:evenodd;clip-rule:evenodd;fill:url(#XMLID_589_);}
	.st87{fill-rule:evenodd;clip-rule:evenodd;fill:url(#XMLID_590_);}
	.st88{fill-rule:evenodd;clip-rule:evenodd;fill:url(#XMLID_591_);}
	.st89{fill-rule:evenodd;clip-rule:evenodd;fill:url(#XMLID_592_);}
	.st90{fill-rule:evenodd;clip-rule:evenodd;fill:url(#XMLID_593_);}
	.st91{fill-rule:evenodd;clip-rule:evenodd;fill:url(#XMLID_594_);}
	.st92{fill-rule:evenodd;clip-rule:evenodd;fill:url(#XMLID_595_);}
	.st93{fill-rule:evenodd;clip-rule:evenodd;fill:url(#XMLID_596_);}
	.st94{fill-rule:evenodd;clip-rule:evenodd;fill:url(#XMLID_597_);}
	.st95{fill-rule:evenodd;clip-rule:evenodd;fill:url(#XMLID_598_);}
	.st96{fill-rule:evenodd;clip-rule:evenodd;fill:url(#XMLID_599_);}
	.st97{fill-rule:evenodd;clip-rule:evenodd;fill:url(#XMLID_600_);}
	.st98{fill:url(#XMLID_601_);}
	.st99{fill-rule:evenodd;clip-rule:evenodd;fill:url(#XMLID_602_);}
	.st100{fill-rule:evenodd;clip-rule:evenodd;fill:url(#XMLID_603_);}
	.st101{fill:url(#XMLID_604_);}
	.st102{fill-rule:evenodd;clip-rule:evenodd;fill:url(#XMLID_605_);}
	.st103{fill-rule:evenodd;clip-rule:evenodd;fill:url(#XMLID_606_);}
	.st104{fill-rule:evenodd;clip-rule:evenodd;fill:url(#XMLID_607_);}
	.st105{fill-rule:evenodd;clip-rule:evenodd;fill:url(#XMLID_608_);}
	.st106{fill-rule:evenodd;clip-rule:evenodd;fill:url(#XMLID_613_);}
	.st107{fill-rule:evenodd;clip-rule:evenodd;fill:url(#XMLID_614_);}
	.st108{fill-rule:evenodd;clip-rule:evenodd;fill:url(#XMLID_615_);}
	.st109{fill-rule:evenodd;clip-rule:evenodd;fill:url(#XMLID_616_);}
	.st110{fill-rule:evenodd;clip-rule:evenodd;fill:url(#XMLID_625_);}
	.st111{fill-rule:evenodd;clip-rule:evenodd;fill:url(#XMLID_627_);}
	.st112{fill-rule:evenodd;clip-rule:evenodd;fill:url(#XMLID_750_);}
</style>
<g id="background">
</g>
<g id="objects">
	<g>
		<g id="XMLID_491_">
			<polygon id="XMLID_552_" class="st0" points="146.4,273.2 262.7,273.2 262.7,305.1 146.4,305.1 146.4,302.5 156.5,302.5 
				156.5,275.8 146.4,275.8 			"/>
			<path id="XMLID_551_" class="st1" d="M148.9,275.8h111.3v26.7H147.9c2-4.2,3.2-9.1,3.2-14.4C151.1,283.6,150.3,279.5,148.9,275.8
				z"/>
			<path id="XMLID_550_" class="st2" d="M199.6,273.2c21.6,0,41.5,0,63.1,0c8.9,0,8.9,31.8,0,31.8c-21.6,0-41.5,0-63.1,0
				C207,299.6,206.5,279.9,199.6,273.2z"/>
			<path id="XMLID_549_" class="st3" d="M201.4,302.5h-44.9h-8.5h-1.5v2.6h51.6h5.4c5-7.7,4.9-23.5,0.2-31.8h-5.6h-51.6v2.6h2.4h7.6
				H201C205.3,282.9,205.6,295.9,201.4,302.5z"/>
			<polygon id="XMLID_548_" class="st0" points="272,241.4 155.7,241.4 155.7,273.2 272,273.2 272,270.6 261.9,270.6 261.9,244 
				272,244 			"/>
			<path id="XMLID_547_" class="st1" d="M269.5,244H158.3v26.7h112.2c-2-4.2-3.2-9.1-3.2-14.4C267.3,251.8,268.1,247.7,269.5,244z"
				/>
			<path id="XMLID_546_" class="st4" d="M218.8,241.4c-21.6,0-41.5,0-63.1,0c-8.9,0-8.9,31.8,0,31.8c21.6,0,41.5,0,63.1,0
				C211.4,267.8,211.9,248.1,218.8,241.4z"/>
			<path id="XMLID_545_" class="st5" d="M217,270.6h44.9h8.5h1.5v2.6h-51.6H215c-5-7.7-4.9-23.5-0.2-31.8h5.6H272v2.6h-2.4h-7.6
				h-44.6C213.1,251,212.8,264.1,217,270.6z"/>
			<path id="XMLID_544_" class="st6" d="M166.1,216.3h82.7c4.9,0,8.8,3.1,8.8,6.8v11.4c0,3.8-4,6.8-8.8,6.8h-82.7v-1.8h16.5v-21.5
				h-16.5V216.3z"/>
			<polygon id="XMLID_543_" class="st7" points="166.1,216.3 215.4,216.3 215.4,241.4 166.1,241.4 166.1,239.6 182.6,239.6 
				182.6,218.1 166.1,218.1 			"/>
			<path id="XMLID_542_" class="st8" d="M167.7,239.6h81.4c3.2,0,6.5-2,6.5-5v-11.4c0-3.1-3.3-5-6.5-5h-81.4c1,3.3,1.5,6.9,1.5,10.8
				C169.2,232.7,168.6,236.3,167.7,239.6z"/>
			<path id="XMLID_541_" class="st1" d="M216.7,239.6c1-3.3,1.5-6.9,1.5-10.8c0-3.8-0.5-7.5-1.5-10.8h-34.1h-14.9
				c1,3.3,1.5,6.9,1.5,10.8c0,3.8-0.5,7.5-1.5,10.8H216.7z"/>
			<g id="XMLID_530_">
				<rect id="XMLID_540_" x="217.4" y="245.7" class="st9" width="48.7" height="0.7"/>
				<rect id="XMLID_539_" x="217.4" y="248" class="st9" width="48.7" height="0.7"/>
				<rect id="XMLID_538_" x="217.4" y="250.3" class="st9" width="48.7" height="0.7"/>
				<rect id="XMLID_537_" x="217.4" y="252.7" class="st9" width="48.7" height="0.7"/>
				<rect id="XMLID_536_" x="217.4" y="255" class="st9" width="48.7" height="0.7"/>
				<rect id="XMLID_535_" x="217.4" y="257.3" class="st9" width="48.7" height="0.7"/>
				<rect id="XMLID_534_" x="217.4" y="259.7" class="st9" width="48.7" height="0.7"/>
				<rect id="XMLID_533_" x="217.4" y="262" class="st9" width="48.7" height="0.7"/>
				<rect id="XMLID_532_" x="217.4" y="264.3" class="st9" width="48.7" height="0.7"/>
				<rect id="XMLID_531_" x="217.4" y="266.7" class="st9" width="48.7" height="0.7"/>
			</g>
			<rect id="XMLID_529_" x="217.4" y="269" class="st9" width="48.7" height="0.7"/>
			<g id="XMLID_518_">
				<rect id="XMLID_528_" x="152.5" y="278.7" class="st9" width="48.7" height="0.7"/>
				<rect id="XMLID_527_" x="152.5" y="281" class="st9" width="48.7" height="0.7"/>
				<rect id="XMLID_526_" x="152.5" y="283.4" class="st9" width="48.7" height="0.7"/>
				<rect id="XMLID_525_" x="152.5" y="285.7" class="st9" width="48.7" height="0.7"/>
				<rect id="XMLID_524_" x="152.5" y="288" class="st9" width="48.7" height="0.7"/>
				<rect id="XMLID_523_" x="152.5" y="290.3" class="st9" width="48.7" height="0.7"/>
				<rect id="XMLID_522_" x="152.5" y="292.7" class="st9" width="48.7" height="0.7"/>
				<rect id="XMLID_521_" x="152.5" y="295" class="st9" width="48.7" height="0.7"/>
				<rect id="XMLID_520_" x="152.5" y="297.3" class="st9" width="48.7" height="0.7"/>
				<rect id="XMLID_519_" x="152.5" y="299.7" class="st9" width="48.7" height="0.7"/>
			</g>
			<g id="XMLID_507_">
				<rect id="XMLID_517_" x="170.5" y="219.9" class="st9" width="81.9" height="0.6"/>
				<rect id="XMLID_516_" x="170.5" y="221.9" class="st9" width="81.9" height="0.6"/>
				<rect id="XMLID_515_" x="170.5" y="223.9" class="st9" width="81.9" height="0.6"/>
				<rect id="XMLID_514_" x="170.5" y="225.9" class="st9" width="81.9" height="0.6"/>
				<rect id="XMLID_513_" x="170.5" y="227.9" class="st9" width="81.9" height="0.6"/>
				<rect id="XMLID_512_" x="170.5" y="229.9" class="st9" width="81.9" height="0.6"/>
				<rect id="XMLID_511_" x="170.5" y="231.9" class="st9" width="81.9" height="0.6"/>
				<rect id="XMLID_510_" x="170.5" y="233.9" class="st9" width="81.9" height="0.6"/>
				<rect id="XMLID_509_" x="170.5" y="235.9" class="st9" width="81.9" height="0.6"/>
				<rect id="XMLID_508_" x="170.5" y="237.9" class="st9" width="81.9" height="0.6"/>
			</g>
			<polygon id="XMLID_506_" class="st0" points="145.9,193 262.2,193 262.2,216.3 145.9,216.3 145.9,214.4 156,214.4 156,194.9 
				145.9,194.9 			"/>
			<path id="XMLID_505_" class="st1" d="M148.4,194.9h111.3v19.5H147.4c2-3.1,3.2-6.7,3.2-10.5C150.6,200.6,149.8,197.6,148.4,194.9
				z"/>
			<path id="XMLID_504_" class="st10" d="M199.1,193c21.6,0,41.5,0,63.1,0c8.9,0,8.9,23.3,0,23.3c-21.6,0-41.5,0-63.1,0
				C206.5,212.3,206,197.9,199.1,193z"/>
			<path id="XMLID_503_" class="st11" d="M200.9,214.4H156h-8.5h-1.5v1.9h51.6h5.4c5-5.6,4.9-17.2,0.2-23.3h-5.6h-51.6v1.9h2.4h7.6
				h44.6C204.8,200,205.1,209.6,200.9,214.4z"/>
			<g id="XMLID_492_">
				<rect id="XMLID_502_" x="152" y="197" class="st9" width="48.7" height="0.5"/>
				<rect id="XMLID_501_" x="152" y="198.7" class="st9" width="48.7" height="0.5"/>
				<rect id="XMLID_500_" x="152" y="200.4" class="st9" width="48.7" height="0.5"/>
				<rect id="XMLID_499_" x="152" y="202.1" class="st9" width="48.7" height="0.5"/>
				<rect id="XMLID_498_" x="152" y="203.8" class="st9" width="48.7" height="0.5"/>
				<rect id="XMLID_497_" x="152" y="205.5" class="st9" width="48.7" height="0.5"/>
				<rect id="XMLID_496_" x="152" y="207.2" class="st9" width="48.7" height="0.5"/>
				<rect id="XMLID_495_" x="152" y="208.9" class="st9" width="48.7" height="0.5"/>
				<rect id="XMLID_494_" x="152" y="210.6" class="st9" width="48.7" height="0.5"/>
				<rect id="XMLID_493_" x="152" y="212.3" class="st9" width="48.7" height="0.5"/>
			</g>
		</g>
		<g id="XMLID_429_">
			<polygon id="XMLID_490_" class="st0" points="150.2,385.3 266.5,385.3 266.5,417.1 150.2,417.1 150.2,414.5 160.2,414.5 
				160.2,387.9 150.2,387.9 			"/>
			<path id="XMLID_489_" class="st1" d="M152.6,387.9h111.3v26.7H151.7c2-4.2,3.2-9.1,3.2-14.4C154.9,395.7,154.1,391.6,152.6,387.9
				z"/>
			<path id="XMLID_488_" class="st2" d="M203.4,385.3c21.6,0,41.5,0,63.1,0c8.9,0,8.9,31.8,0,31.8c-21.6,0-41.5,0-63.1,0
				C210.8,411.7,210.3,392,203.4,385.3z"/>
			<path id="XMLID_487_" class="st3" d="M205.2,414.5h-44.9h-8.5h-1.5v2.6h51.6h5.4c5-7.7,4.9-23.5,0.2-31.8h-5.6h-51.6v2.6h2.4h7.6
				h44.6C209,394.9,209.4,408,205.2,414.5z"/>
			<polygon id="XMLID_486_" class="st0" points="275.7,353.5 159.4,353.5 159.4,385.3 275.7,385.3 275.7,382.7 265.7,382.7 
				265.7,356 275.7,356 			"/>
			<path id="XMLID_485_" class="st1" d="M273.3,356H162v26.7h112.2c-2-4.2-3.2-9.1-3.2-14.4C271,363.9,271.8,359.7,273.3,356z"/>
			<path id="XMLID_484_" class="st4" d="M222.5,353.5c-21.6,0-41.5,0-63.1,0c-8.9,0-8.9,31.8,0,31.8c21.6,0,41.5,0,63.1,0
				C215.1,379.9,215.6,360.1,222.5,353.5z"/>
			<path id="XMLID_483_" class="st5" d="M220.8,382.7h44.9h8.5h1.5v2.6h-51.6h-5.4c-5-7.7-4.9-23.5-0.2-31.8h5.6h51.6v2.6h-2.4h-7.6
				h-44.6C216.9,363.1,216.6,376.2,220.8,382.7z"/>
			<path id="XMLID_482_" class="st6" d="M169.9,328.4h82.7c4.9,0,8.8,3.1,8.8,6.8v11.4c0,3.8-4,6.8-8.8,6.8h-82.7v-1.8h16.5v-21.5
				h-16.5V328.4z"/>
			<polygon id="XMLID_481_" class="st7" points="169.9,328.4 219.2,328.4 219.2,353.5 169.9,353.5 169.9,351.7 186.4,351.7 
				186.4,330.1 169.9,330.1 			"/>
			<path id="XMLID_480_" class="st8" d="M171.5,351.7h81.4c3.2,0,6.5-2,6.5-5v-11.4c0-3.1-3.3-5-6.5-5h-81.4c1,3.3,1.5,6.9,1.5,10.8
				C172.9,344.7,172.4,348.4,171.5,351.7z"/>
			<path id="XMLID_479_" class="st1" d="M220.5,351.7c1-3.3,1.5-6.9,1.5-10.8c0-3.8-0.5-7.5-1.5-10.8h-34.1h-14.9
				c1,3.3,1.5,6.9,1.5,10.8c0,3.8-0.5,7.5-1.5,10.8H220.5z"/>
			<g id="XMLID_468_">
				<rect id="XMLID_478_" x="221.1" y="357.7" class="st9" width="48.7" height="0.7"/>
				<rect id="XMLID_477_" x="221.1" y="360.1" class="st9" width="48.7" height="0.7"/>
				<rect id="XMLID_476_" x="221.1" y="362.4" class="st9" width="48.7" height="0.7"/>
				<rect id="XMLID_475_" x="221.1" y="364.7" class="st9" width="48.7" height="0.7"/>
				<rect id="XMLID_474_" x="221.1" y="367.1" class="st9" width="48.7" height="0.7"/>
				<rect id="XMLID_473_" x="221.1" y="369.4" class="st9" width="48.7" height="0.7"/>
				<rect id="XMLID_472_" x="221.1" y="371.7" class="st9" width="48.7" height="0.7"/>
				<rect id="XMLID_471_" x="221.1" y="374.1" class="st9" width="48.7" height="0.7"/>
				<rect id="XMLID_470_" x="221.1" y="376.4" class="st9" width="48.7" height="0.7"/>
				<rect id="XMLID_469_" x="221.1" y="378.7" class="st9" width="48.7" height="0.7"/>
			</g>
			<rect id="XMLID_467_" x="221.1" y="381.1" class="st9" width="48.7" height="0.7"/>
			<g id="XMLID_456_">
				<rect id="XMLID_466_" x="156.3" y="390.8" class="st9" width="48.7" height="0.7"/>
				<rect id="XMLID_465_" x="156.3" y="393.1" class="st9" width="48.7" height="0.7"/>
				<rect id="XMLID_464_" x="156.3" y="395.4" class="st9" width="48.7" height="0.7"/>
				<rect id="XMLID_463_" x="156.3" y="397.8" class="st9" width="48.7" height="0.7"/>
				<rect id="XMLID_462_" x="156.3" y="400.1" class="st9" width="48.7" height="0.7"/>
				<rect id="XMLID_461_" x="156.3" y="402.4" class="st9" width="48.7" height="0.7"/>
				<rect id="XMLID_460_" x="156.3" y="404.7" class="st9" width="48.7" height="0.7"/>
				<rect id="XMLID_459_" x="156.3" y="407.1" class="st9" width="48.7" height="0.7"/>
				<rect id="XMLID_458_" x="156.3" y="409.4" class="st9" width="48.7" height="0.7"/>
				<rect id="XMLID_457_" x="156.3" y="411.7" class="st9" width="48.7" height="0.7"/>
			</g>
			<g id="XMLID_445_">
				<rect id="XMLID_455_" x="174.3" y="331.9" class="st9" width="81.9" height="0.6"/>
				<rect id="XMLID_454_" x="174.3" y="333.9" class="st9" width="81.9" height="0.6"/>
				<rect id="XMLID_453_" x="174.3" y="335.9" class="st9" width="81.9" height="0.6"/>
				<rect id="XMLID_452_" x="174.3" y="337.9" class="st9" width="81.9" height="0.6"/>
				<rect id="XMLID_451_" x="174.3" y="339.9" class="st9" width="81.9" height="0.6"/>
				<rect id="XMLID_450_" x="174.3" y="341.9" class="st9" width="81.9" height="0.6"/>
				<rect id="XMLID_449_" x="174.3" y="343.9" class="st9" width="81.9" height="0.6"/>
				<rect id="XMLID_448_" x="174.3" y="345.9" class="st9" width="81.9" height="0.6"/>
				<rect id="XMLID_447_" x="174.3" y="347.9" class="st9" width="81.9" height="0.6"/>
				<rect id="XMLID_446_" x="174.3" y="350" class="st9" width="81.9" height="0.6"/>
			</g>
			<polygon id="XMLID_444_" class="st0" points="149.7,305.1 266,305.1 266,328.4 149.7,328.4 149.7,326.5 159.7,326.5 159.7,306.9 
				149.7,306.9 			"/>
			<path id="XMLID_443_" class="st1" d="M152.2,306.9h111.3v19.5H151.2c2-3.1,3.2-6.7,3.2-10.5C154.4,312.7,153.6,309.6,152.2,306.9
				z"/>
			<path id="XMLID_442_" class="st12" d="M202.9,305.1c21.6,0,41.5,0,63.1,0c8.9,0,8.9,23.3,0,23.3c-21.6,0-41.5,0-63.1,0
				C210.3,324.4,209.8,309.9,202.9,305.1z"/>
			<path id="XMLID_441_" class="st13" d="M204.7,326.5h-44.9h-8.5h-1.5v1.9h51.6h5.4c5-5.6,4.9-17.2,0.2-23.3h-5.6h-51.6v1.9h2.4
				h7.6h44.6C208.5,312.1,208.9,321.7,204.7,326.5z"/>
			<g id="XMLID_430_">
				<rect id="XMLID_440_" x="155.8" y="309.1" class="st9" width="48.7" height="0.5"/>
				<rect id="XMLID_439_" x="155.8" y="310.8" class="st9" width="48.7" height="0.5"/>
				<rect id="XMLID_438_" x="155.8" y="312.5" class="st9" width="48.7" height="0.5"/>
				<rect id="XMLID_437_" x="155.8" y="314.2" class="st9" width="48.7" height="0.5"/>
				<rect id="XMLID_436_" x="155.8" y="315.9" class="st9" width="48.7" height="0.5"/>
				<rect id="XMLID_435_" x="155.8" y="317.6" class="st9" width="48.7" height="0.5"/>
				<rect id="XMLID_434_" x="155.8" y="319.3" class="st9" width="48.7" height="0.5"/>
				<rect id="XMLID_433_" x="155.8" y="321" class="st9" width="48.7" height="0.5"/>
				<rect id="XMLID_432_" x="155.8" y="322.7" class="st9" width="48.7" height="0.5"/>
				<rect id="XMLID_431_" x="155.8" y="324.4" class="st9" width="48.7" height="0.5"/>
			</g>
		</g>
		<g id="XMLID_367_">
			<polygon id="XMLID_428_" class="st0" points="343.9,262.7 460.1,262.7 460.1,286.4 343.9,286.4 343.9,284.4 353.9,284.4 
				353.9,264.6 343.9,264.6 			"/>
			<path id="XMLID_427_" class="st1" d="M346.3,264.6h111.3v19.8H345.4c2-3.1,3.2-6.8,3.2-10.7C348.5,270.5,347.7,267.4,346.3,264.6
				z"/>
			<path id="XMLID_426_" class="st14" d="M397,262.7c21.6,0,41.5,0,63.1,0c8.9,0,8.9,23.6,0,23.6c-21.6,0-41.5,0-63.1,0
				C404.4,282.3,403.9,267.7,397,262.7z"/>
			<path id="XMLID_425_" class="st15" d="M398.8,284.4h-44.9h-8.5h-1.5v1.9h51.6h5.4c5-5.7,4.9-17.5,0.2-23.6h-5.6h-51.6v1.9h2.4
				h7.6h44.6C402.7,269.9,403,279.6,398.8,284.4z"/>
			<polygon id="XMLID_424_" class="st0" points="469.4,239.1 353.1,239.1 353.1,262.7 469.4,262.7 469.4,260.8 459.3,260.8 
				459.3,241 469.4,241 			"/>
			<path id="XMLID_423_" class="st1" d="M466.9,241H355.7v19.8h112.2c-2-3.1-3.2-6.8-3.2-10.7C464.7,246.8,465.5,243.7,466.9,241z"
				/>
			<path id="XMLID_422_" class="st4" d="M416.2,239.1c-21.6,0-41.5,0-63.1,0c-8.9,0-8.9,23.6,0,23.6c21.6,0,41.5,0,63.1,0
				C408.8,258.7,409.3,244.1,416.2,239.1z"/>
			<path id="XMLID_421_" class="st5" d="M414.4,260.8h44.9h8.5h1.5v1.9h-51.6h-5.4c-5-5.7-4.9-17.5-0.2-23.6h5.6h51.6v1.9h-2.4h-7.6
				h-44.6C410.6,246.3,410.2,256,414.4,260.8z"/>
			<path id="XMLID_420_" class="st6" d="M363.6,220.5h82.7c4.9,0,8.8,2.3,8.8,5.1v8.5c0,2.8-4,5.1-8.8,5.1h-82.7v-1.3H380v-16h-16.5
				V220.5z"/>
			<polygon id="XMLID_419_" class="st7" points="363.6,220.5 412.8,220.5 412.8,239.1 363.6,239.1 363.6,237.8 380,237.8 380,221.8 
				363.6,221.8 			"/>
			<path id="XMLID_418_" class="st8" d="M365.1,237.8h81.4c3.2,0,6.5-1.5,6.5-3.7v-8.5c0-2.3-3.3-3.7-6.5-3.7h-81.4
				c1,2.4,1.5,5.1,1.5,8C366.6,232.6,366.1,235.3,365.1,237.8z"/>
			<path id="XMLID_417_" class="st1" d="M414.1,237.8c1-2.4,1.5-5.1,1.5-8c0-2.8-0.5-5.5-1.5-8H380h-14.9c1,2.4,1.5,5.1,1.5,8
				c0,2.8-0.5,5.5-1.5,8H414.1z"/>
			<g id="XMLID_406_">
				<rect id="XMLID_416_" x="414.8" y="242.3" class="st9" width="48.7" height="0.5"/>
				<rect id="XMLID_415_" x="414.8" y="244" class="st9" width="48.7" height="0.5"/>
				<rect id="XMLID_414_" x="414.8" y="245.7" class="st9" width="48.7" height="0.5"/>
				<rect id="XMLID_413_" x="414.8" y="247.5" class="st9" width="48.7" height="0.5"/>
				<rect id="XMLID_412_" x="414.8" y="249.2" class="st9" width="48.7" height="0.5"/>
				<rect id="XMLID_411_" x="414.8" y="250.9" class="st9" width="48.7" height="0.5"/>
				<rect id="XMLID_410_" x="414.8" y="252.7" class="st9" width="48.7" height="0.5"/>
				<rect id="XMLID_409_" x="414.8" y="254.4" class="st9" width="48.7" height="0.5"/>
				<rect id="XMLID_408_" x="414.8" y="256.1" class="st9" width="48.7" height="0.5"/>
				<rect id="XMLID_407_" x="414.8" y="257.9" class="st9" width="48.7" height="0.5"/>
			</g>
			<rect id="XMLID_405_" x="414.8" y="259.6" class="st9" width="48.7" height="0.5"/>
			<g id="XMLID_394_">
				<rect id="XMLID_404_" x="349.9" y="266.8" class="st9" width="48.7" height="0.5"/>
				<rect id="XMLID_403_" x="349.9" y="268.5" class="st9" width="48.7" height="0.5"/>
				<rect id="XMLID_402_" x="349.9" y="270.3" class="st9" width="48.7" height="0.5"/>
				<rect id="XMLID_401_" x="349.9" y="272" class="st9" width="48.7" height="0.5"/>
				<rect id="XMLID_400_" x="349.9" y="273.7" class="st9" width="48.7" height="0.5"/>
				<rect id="XMLID_399_" x="349.9" y="275.4" class="st9" width="48.7" height="0.5"/>
				<rect id="XMLID_398_" x="349.9" y="277.2" class="st9" width="48.7" height="0.5"/>
				<rect id="XMLID_397_" x="349.9" y="278.9" class="st9" width="48.7" height="0.5"/>
				<rect id="XMLID_396_" x="349.9" y="280.6" class="st9" width="48.7" height="0.5"/>
				<rect id="XMLID_395_" x="349.9" y="282.4" class="st9" width="48.7" height="0.5"/>
			</g>
			<g id="XMLID_383_">
				<rect id="XMLID_393_" x="367.9" y="223.1" class="st9" width="81.9" height="0.5"/>
				<rect id="XMLID_392_" x="367.9" y="224.6" class="st9" width="81.9" height="0.5"/>
				<rect id="XMLID_391_" x="367.9" y="226.1" class="st9" width="81.9" height="0.5"/>
				<rect id="XMLID_390_" x="367.9" y="227.6" class="st9" width="81.9" height="0.5"/>
				<rect id="XMLID_389_" x="367.9" y="229.1" class="st9" width="81.9" height="0.5"/>
				<rect id="XMLID_388_" x="367.9" y="230.5" class="st9" width="81.9" height="0.5"/>
				<rect id="XMLID_387_" x="367.9" y="232" class="st9" width="81.9" height="0.5"/>
				<rect id="XMLID_386_" x="367.9" y="233.5" class="st9" width="81.9" height="0.5"/>
				<rect id="XMLID_385_" x="367.9" y="235" class="st9" width="81.9" height="0.5"/>
				<rect id="XMLID_384_" x="367.9" y="236.5" class="st9" width="81.9" height="0.5"/>
			</g>
			<polygon id="XMLID_382_" class="st0" points="343.4,203.2 459.6,203.2 459.6,220.5 343.4,220.5 343.4,219.1 353.4,219.1 
				353.4,204.6 343.4,204.6 			"/>
			<path id="XMLID_381_" class="st1" d="M345.8,204.6h111.3v14.5H344.9c2-2.3,3.2-5,3.2-7.8C348,208.8,347.2,206.6,345.8,204.6z"/>
			<path id="XMLID_380_" class="st16" d="M396.6,203.2c21.6,0,41.5,0,63.1,0c8.9,0,8.9,17.3,0,17.3c-21.6,0-41.5,0-63.1,0
				C403.9,217.5,403.4,206.8,396.6,203.2z"/>
			<path id="XMLID_379_" class="st17" d="M398.3,219.1h-44.9h-8.5h-1.5v1.4H395h5.4c5-4.2,4.9-12.8,0.2-17.3H395h-51.6v1.4h2.4h7.6
				h44.6C402.2,208.4,402.5,215.5,398.3,219.1z"/>
			<g id="XMLID_368_">
				<rect id="XMLID_378_" x="349.4" y="206.1" class="st9" width="48.7" height="0.4"/>
				<rect id="XMLID_377_" x="349.4" y="207.4" class="st9" width="48.7" height="0.4"/>
				<rect id="XMLID_376_" x="349.4" y="208.7" class="st9" width="48.7" height="0.4"/>
				<rect id="XMLID_375_" x="349.4" y="209.9" class="st9" width="48.7" height="0.4"/>
				<rect id="XMLID_374_" x="349.4" y="211.2" class="st9" width="48.7" height="0.4"/>
				<rect id="XMLID_373_" x="349.4" y="212.5" class="st9" width="48.7" height="0.4"/>
				<rect id="XMLID_372_" x="349.4" y="213.7" class="st9" width="48.7" height="0.4"/>
				<rect id="XMLID_371_" x="349.4" y="215" class="st9" width="48.7" height="0.4"/>
				<rect id="XMLID_370_" x="349.4" y="216.3" class="st9" width="48.7" height="0.4"/>
				<rect id="XMLID_369_" x="349.4" y="217.5" class="st9" width="48.7" height="0.4"/>
			</g>
		</g>
		<g id="XMLID_305_">
			<polygon id="XMLID_366_" class="st0" points="335,385.5 478.7,385.5 478.7,424.9 335,424.9 335,421.7 347.4,421.7 347.4,388.7 
				335,388.7 			"/>
			<path id="XMLID_365_" class="st1" d="M338,388.7h137.5v33H336.8c2.5-5.2,3.9-11.3,3.9-17.8C340.8,398.4,339.8,393.3,338,388.7z"
				/>
			<path id="XMLID_364_" class="st2" d="M400.7,385.5c26.6,0,51.3,0,78,0c11,0,11,39.3,0,39.3c-26.6,0-51.3,0-78,0
				C409.8,418.2,409.2,393.8,400.7,385.5z"/>
			<path id="XMLID_363_" class="st3" d="M402.9,421.7h-55.5h-10.5H335v3.2h63.8h6.6c6.2-9.5,6.1-29.1,0.3-39.3h-6.9H335v3.2h3h9.4
				h55.1C407.7,397.5,408.1,413.6,402.9,421.7z"/>
			<polygon id="XMLID_362_" class="st0" points="490.1,346.2 346.4,346.2 346.4,385.5 490.1,385.5 490.1,382.4 477.7,382.4 
				477.7,349.4 490.1,349.4 			"/>
			<path id="XMLID_361_" class="st1" d="M487.1,349.4H349.6v33h138.7c-2.5-5.2-3.9-11.3-3.9-17.8
				C484.3,359.1,485.3,353.9,487.1,349.4z"/>
			<path id="XMLID_360_" class="st4" d="M424.4,346.2c-26.6,0-51.3,0-78,0c-11,0-11,39.3,0,39.3c26.6,0,51.3,0,78,0
				C415.2,378.9,415.9,354.5,424.4,346.2z"/>
			<path id="XMLID_359_" class="st5" d="M422.2,382.4h55.5h10.5h1.9v3.2h-63.8h-6.6c-6.2-9.5-6.1-29.1-0.3-39.3h6.9h63.8v3.2h-3
				h-9.4h-55.1C417.4,358.1,417,374.3,422.2,382.4z"/>
			<path id="XMLID_358_" class="st6" d="M359.3,315.2h102.2c6,0,10.9,3.8,10.9,8.5v14.1c0,4.7-4.9,8.5-10.9,8.5H359.3V344h20.3
				v-26.6h-20.3V315.2z"/>
			<polygon id="XMLID_357_" class="st7" points="359.3,315.2 420.2,315.2 420.2,346.2 359.3,346.2 359.3,344 379.7,344 379.7,317.4 
				359.3,317.4 			"/>
			<path id="XMLID_356_" class="st8" d="M361.3,344h100.6c3.9,0,8-2.5,8-6.2v-14.1c0-3.8-4.1-6.2-8-6.2H361.3
				c1.2,4.1,1.8,8.6,1.8,13.3C363.1,335.4,362.4,339.9,361.3,344z"/>
			<path id="XMLID_355_" class="st1" d="M421.8,344c1.2-4.1,1.8-8.6,1.8-13.3c0-4.7-0.7-9.2-1.8-13.3h-42.2h-18.4
				c1.2,4.1,1.8,8.6,1.8,13.3c0,4.7-0.7,9.2-1.8,13.3H421.8z"/>
			<g id="XMLID_344_">
				<rect id="XMLID_354_" x="422.6" y="351.5" class="st9" width="60.2" height="0.9"/>
				<rect id="XMLID_353_" x="422.6" y="354.4" class="st9" width="60.2" height="0.9"/>
				<rect id="XMLID_352_" x="422.6" y="357.3" class="st9" width="60.2" height="0.9"/>
				<rect id="XMLID_351_" x="422.6" y="360.1" class="st9" width="60.2" height="0.9"/>
				<rect id="XMLID_350_" x="422.6" y="363" class="st9" width="60.2" height="0.9"/>
				<rect id="XMLID_349_" x="422.6" y="365.9" class="st9" width="60.2" height="0.9"/>
				<rect id="XMLID_348_" x="422.6" y="368.8" class="st9" width="60.2" height="0.9"/>
				<rect id="XMLID_347_" x="422.6" y="371.7" class="st9" width="60.2" height="0.9"/>
				<rect id="XMLID_346_" x="422.6" y="374.5" class="st9" width="60.2" height="0.9"/>
				<rect id="XMLID_345_" x="422.6" y="377.4" class="st9" width="60.2" height="0.9"/>
			</g>
			<rect id="XMLID_343_" x="422.6" y="380.3" class="st9" width="60.2" height="0.9"/>
			<g id="XMLID_332_">
				<rect id="XMLID_342_" x="342.5" y="392.3" class="st9" width="60.2" height="0.9"/>
				<rect id="XMLID_341_" x="342.5" y="395.2" class="st9" width="60.2" height="0.9"/>
				<rect id="XMLID_340_" x="342.5" y="398.1" class="st9" width="60.2" height="0.9"/>
				<rect id="XMLID_339_" x="342.5" y="401" class="st9" width="60.2" height="0.9"/>
				<rect id="XMLID_338_" x="342.5" y="403.8" class="st9" width="60.2" height="0.9"/>
				<rect id="XMLID_337_" x="342.5" y="406.7" class="st9" width="60.2" height="0.9"/>
				<rect id="XMLID_336_" x="342.5" y="409.6" class="st9" width="60.2" height="0.9"/>
				<rect id="XMLID_335_" x="342.5" y="412.5" class="st9" width="60.2" height="0.9"/>
				<rect id="XMLID_334_" x="342.5" y="415.4" class="st9" width="60.2" height="0.9"/>
				<rect id="XMLID_333_" x="342.5" y="418.2" class="st9" width="60.2" height="0.9"/>
			</g>
			<g id="XMLID_321_">
				<rect id="XMLID_331_" x="364.7" y="319.6" class="st9" width="101.3" height="0.8"/>
				<rect id="XMLID_330_" x="364.7" y="322.1" class="st9" width="101.3" height="0.8"/>
				<rect id="XMLID_329_" x="364.7" y="324.5" class="st9" width="101.3" height="0.8"/>
				<rect id="XMLID_328_" x="364.7" y="327" class="st9" width="101.3" height="0.8"/>
				<rect id="XMLID_327_" x="364.7" y="329.5" class="st9" width="101.3" height="0.8"/>
				<rect id="XMLID_326_" x="364.7" y="332" class="st9" width="101.3" height="0.8"/>
				<rect id="XMLID_325_" x="364.7" y="334.4" class="st9" width="101.3" height="0.8"/>
				<rect id="XMLID_324_" x="364.7" y="336.9" class="st9" width="101.3" height="0.8"/>
				<rect id="XMLID_323_" x="364.7" y="339.4" class="st9" width="101.3" height="0.8"/>
				<rect id="XMLID_322_" x="364.7" y="341.9" class="st9" width="101.3" height="0.8"/>
			</g>
			<polygon id="XMLID_320_" class="st0" points="334.4,286.4 478.1,286.4 478.1,315.2 334.4,315.2 334.4,312.8 346.8,312.8 
				346.8,288.7 334.4,288.7 			"/>
			<path id="XMLID_319_" class="st1" d="M337.4,288.7h137.5v24.1H336.2c2.5-3.8,3.9-8.2,3.9-13C340.2,295.8,339.2,292,337.4,288.7z"
				/>
			<path id="XMLID_318_" class="st10" d="M400.1,286.4c26.6,0,51.3,0,78,0c11,0,11,28.8,0,28.8c-26.6,0-51.3,0-78,0
				C409.2,310.3,408.6,292.4,400.1,286.4z"/>
			<path id="XMLID_317_" class="st11" d="M402.3,312.8h-55.5h-10.5h-1.9v2.3h63.8h6.6c6.2-6.9,6.1-21.3,0.3-28.8h-6.9h-63.8v2.3h3
				h9.4h55.1C407.1,295.1,407.5,306.9,402.3,312.8z"/>
			<g id="XMLID_306_">
				<rect id="XMLID_316_" x="341.9" y="291.3" class="st9" width="60.2" height="0.6"/>
				<rect id="XMLID_315_" x="341.9" y="293.4" class="st9" width="60.2" height="0.6"/>
				<rect id="XMLID_314_" x="341.9" y="295.5" class="st9" width="60.2" height="0.6"/>
				<rect id="XMLID_313_" x="341.9" y="297.6" class="st9" width="60.2" height="0.6"/>
				<rect id="XMLID_312_" x="341.9" y="299.7" class="st9" width="60.2" height="0.6"/>
				<rect id="XMLID_311_" x="341.9" y="301.9" class="st9" width="60.2" height="0.6"/>
				<rect id="XMLID_310_" x="341.9" y="304" class="st9" width="60.2" height="0.6"/>
				<rect id="XMLID_309_" x="341.9" y="306.1" class="st9" width="60.2" height="0.6"/>
				<rect id="XMLID_308_" x="341.9" y="308.2" class="st9" width="60.2" height="0.6"/>
				<rect id="XMLID_307_" x="341.9" y="310.3" class="st9" width="60.2" height="0.6"/>
			</g>
		</g>
		<g id="XMLID_243_">
			<polygon id="XMLID_304_" class="st0" points="0.5,381.5 121.5,381.5 121.5,414.6 0.5,414.6 0.5,412 11,412 11,384.2 0.5,384.2 
							"/>
			<path id="XMLID_303_" class="st1" d="M3.1,384.2h115.8V412H2.1c2.1-4.3,3.3-9.5,3.3-15C5.4,392.4,4.5,388,3.1,384.2z"/>
			<path id="XMLID_302_" class="st2" d="M55.9,381.5c22.4,0,43.2,0,65.7,0c9.3,0,9.3,33.1,0,33.1c-22.4,0-43.2,0-65.7,0
				C63.6,409,63,388.5,55.9,381.5z"/>
			<path id="XMLID_301_" class="st3" d="M57.7,412H11H2.1H0.5v2.7h53.7h5.6c5.2-8,5.1-24.5,0.2-33.1h-5.8H0.5v2.7h2.5H11h46.4
				C61.7,391.6,62.1,405.1,57.7,412z"/>
			<polygon id="XMLID_300_" class="st0" points="131.1,348.4 10.1,348.4 10.1,381.5 131.1,381.5 131.1,378.8 120.7,378.8 
				120.7,351.1 131.1,351.1 			"/>
			<path id="XMLID_299_" class="st1" d="M128.6,351.1H12.8v27.8h116.8c-2.1-4.3-3.3-9.5-3.3-15C126.3,359.2,127.1,354.9,128.6,351.1
				z"/>
			<path id="XMLID_298_" class="st4" d="M75.8,348.4c-22.4,0-43.2,0-65.7,0c-9.3,0-9.3,33.1,0,33.1c22.4,0,43.2,0,65.7,0
				C68.1,375.9,68.6,355.3,75.8,348.4z"/>
			<path id="XMLID_297_" class="st5" d="M74,378.8h46.7h8.9h1.6v2.7H77.4h-5.6c-5.2-8-5.1-24.5-0.2-33.1h5.8h53.7v2.7h-2.5h-7.9
				H74.3C69.9,358.4,69.6,372,74,378.8z"/>
			<path id="XMLID_296_" class="st6" d="M21,322.3h86.1c5.1,0,9.2,3.2,9.2,7.1v11.9c0,3.9-4.1,7.1-9.2,7.1H21v-1.9h17.1v-22.4H21
				V322.3z"/>
			<polygon id="XMLID_295_" class="st7" points="21,322.3 72.3,322.3 72.3,348.4 21,348.4 21,346.5 38.1,346.5 38.1,324.1 21,324.1 
							"/>
			<path id="XMLID_294_" class="st8" d="M22.6,346.5h84.7c3.3,0,6.8-2.1,6.8-5.3v-11.9c0-3.2-3.5-5.3-6.8-5.3H22.6
				c1,3.4,1.5,7.2,1.5,11.2S23.6,343.1,22.6,346.5z"/>
			<path id="XMLID_293_" class="st1" d="M73.6,346.5c1-3.4,1.5-7.2,1.5-11.2s-0.6-7.8-1.5-11.2H38.1H22.6c1,3.4,1.5,7.2,1.5,11.2
				s-0.6,7.8-1.5,11.2H73.6z"/>
			<g id="XMLID_282_">
				<rect id="XMLID_292_" x="74.3" y="352.9" class="st9" width="50.7" height="0.7"/>
				<rect id="XMLID_291_" x="74.3" y="355.3" class="st9" width="50.7" height="0.7"/>
				<rect id="XMLID_290_" x="74.3" y="357.7" class="st9" width="50.7" height="0.7"/>
				<rect id="XMLID_289_" x="74.3" y="360.1" class="st9" width="50.7" height="0.7"/>
				<rect id="XMLID_288_" x="74.3" y="362.6" class="st9" width="50.7" height="0.7"/>
				<rect id="XMLID_287_" x="74.3" y="365" class="st9" width="50.7" height="0.7"/>
				<rect id="XMLID_286_" x="74.3" y="367.4" class="st9" width="50.7" height="0.7"/>
				<rect id="XMLID_285_" x="74.3" y="369.8" class="st9" width="50.7" height="0.7"/>
				<rect id="XMLID_284_" x="74.3" y="372.3" class="st9" width="50.7" height="0.7"/>
				<rect id="XMLID_283_" x="74.3" y="374.7" class="st9" width="50.7" height="0.7"/>
			</g>
			<rect id="XMLID_281_" x="74.3" y="377.1" class="st9" width="50.7" height="0.7"/>
			<g id="XMLID_270_">
				<rect id="XMLID_280_" x="6.8" y="387.2" class="st9" width="50.7" height="0.7"/>
				<rect id="XMLID_279_" x="6.8" y="389.6" class="st9" width="50.7" height="0.7"/>
				<rect id="XMLID_278_" x="6.8" y="392.1" class="st9" width="50.7" height="0.7"/>
				<rect id="XMLID_277_" x="6.8" y="394.5" class="st9" width="50.7" height="0.7"/>
				<rect id="XMLID_276_" x="6.8" y="396.9" class="st9" width="50.7" height="0.7"/>
				<rect id="XMLID_275_" x="6.8" y="399.3" class="st9" width="50.7" height="0.7"/>
				<rect id="XMLID_274_" x="6.8" y="401.8" class="st9" width="50.7" height="0.7"/>
				<rect id="XMLID_273_" x="6.8" y="404.2" class="st9" width="50.7" height="0.7"/>
				<rect id="XMLID_272_" x="6.8" y="406.6" class="st9" width="50.7" height="0.7"/>
				<rect id="XMLID_271_" x="6.8" y="409" class="st9" width="50.7" height="0.7"/>
			</g>
			<g id="XMLID_259_">
				<rect id="XMLID_269_" x="25.6" y="326" class="st9" width="85.3" height="0.6"/>
				<rect id="XMLID_268_" x="25.6" y="328.1" class="st9" width="85.3" height="0.6"/>
				<rect id="XMLID_267_" x="25.6" y="330.1" class="st9" width="85.3" height="0.6"/>
				<rect id="XMLID_266_" x="25.6" y="332.2" class="st9" width="85.3" height="0.6"/>
				<rect id="XMLID_265_" x="25.6" y="334.3" class="st9" width="85.3" height="0.6"/>
				<rect id="XMLID_264_" x="25.6" y="336.4" class="st9" width="85.3" height="0.6"/>
				<rect id="XMLID_263_" x="25.6" y="338.5" class="st9" width="85.3" height="0.6"/>
				<rect id="XMLID_262_" x="25.6" y="340.6" class="st9" width="85.3" height="0.6"/>
				<rect id="XMLID_261_" x="25.6" y="342.7" class="st9" width="85.3" height="0.6"/>
				<rect id="XMLID_260_" x="25.6" y="344.7" class="st9" width="85.3" height="0.6"/>
			</g>
			<polygon id="XMLID_258_" class="st0" points="0,298 121,298 121,322.3 0,322.3 0,320.3 10.4,320.3 10.4,300 0,300 			"/>
			<path id="XMLID_257_" class="st1" d="M2.5,300h115.8v20.3H1.6c2.1-3.2,3.3-6.9,3.3-11C4.9,306,4,302.8,2.5,300z"/>
			<path id="XMLID_256_" class="st10" d="M55.4,298c22.4,0,43.2,0,65.7,0c9.3,0,9.3,24.2,0,24.2c-22.4,0-43.2,0-65.7,0
				C63,318.1,62.5,303.1,55.4,298z"/>
			<path id="XMLID_255_" class="st11" d="M57.2,320.3H10.4H1.6H0v2h53.7h5.6c5.2-5.8,5.1-17.9,0.2-24.2h-5.8H0v2h2.5h7.9h46.4
				C61.2,305.4,61.6,315.3,57.2,320.3z"/>
			<g id="XMLID_244_">
				<rect id="XMLID_254_" x="6.3" y="302.2" class="st9" width="50.7" height="0.5"/>
				<rect id="XMLID_253_" x="6.3" y="304" class="st9" width="50.7" height="0.5"/>
				<rect id="XMLID_252_" x="6.3" y="305.7" class="st9" width="50.7" height="0.5"/>
				<rect id="XMLID_251_" x="6.3" y="307.5" class="st9" width="50.7" height="0.5"/>
				<rect id="XMLID_250_" x="6.3" y="309.3" class="st9" width="50.7" height="0.5"/>
				<rect id="XMLID_249_" x="6.3" y="311.1" class="st9" width="50.7" height="0.5"/>
				<rect id="XMLID_248_" x="6.3" y="312.8" class="st9" width="50.7" height="0.5"/>
				<rect id="XMLID_247_" x="6.3" y="314.6" class="st9" width="50.7" height="0.5"/>
				<rect id="XMLID_246_" x="6.3" y="316.4" class="st9" width="50.7" height="0.5"/>
				<rect id="XMLID_245_" x="6.3" y="318.2" class="st9" width="50.7" height="0.5"/>
			</g>
		</g>
		<path id="XMLID_242_" class="st8" d="M147.1,186.4c-0.9-1.1-3.9-12.7-3.9-12.7l8.4-1.4c0,0,25.8,2.6,37.1,7.8
			c11.3,5.1,12.5,10.8,12.5,10.8c11.7-6.7,40.2-19.7,59.5-16.5l10.3,1.7l-9.5,17.2L201.5,207L147.1,186.4z"/>
		<path id="XMLID_241_" class="st18" d="M307,194.4c-2.8-1.3-9.2-1.5-13.2,0.2c-4,1.7-55,43.2-54.5,47.5
			c0.5,4.2,10.8,14.2,13.3,13.5c2.5-0.7,52.5-34.8,53.2-37C306.5,216.4,307,194.4,307,194.4z"/>
		<path id="XMLID_240_" class="st2" d="M390.4,199.7c42.7,0,43.4,65.8,45.7,100.3c2.2,31.6,6.5,78.2-0.9,90.7
			c-7.4,12.5-29.5,12.5-54.4,0.8c-24.9-11.7-34.2-13.3-34.5-46.2c-0.3-32.9-9.6-78.1-1.5-107.2c4.5-16.4,7.2-32.4,18.5-38.1
			C372,195.6,390.4,199.7,390.4,199.7z"/>
		<path id="XMLID_239_" class="st19" d="M417.1,249.7c0,1.7-11.6,35-16.6,54.9c-4.9,19.9,5.8,28.5-9.3,44.8
			c-15.1,16.3-28.3,23.2-36.6,8.4c-8.3-14.8,19.6-84.1,19.6-87.3C374.3,267.3,417.1,250,417.1,249.7z"/>
		<path id="XMLID_238_" class="st20" d="M391.8,300.4c0,3.6,7.2,49,7.2,49h-7.8l-8-49H391.8z"/>
		<path id="XMLID_237_" class="st21" d="M390.8,194.5c-3.8,1.1,0.3,14.9-1,21.7c-1.3,6.8,5,40.1,20,52.4
			c15,12.3,21.4,23.9,25.6,20.1c4.1-3.6,17.7-3.5,13.4-9.7c-13.6-19.4-19.4-73.2-28.8-79.9c-19.6-14-33-11.5-40.1-9.1
			C374.6,191.9,390.8,194.5,390.8,194.5z"/>
		<path id="XMLID_236_" class="st22" d="M400.6,257c2.6,4.6,5.6,8.7,9.2,11.6c15,12.3,21.4,23.9,25.6,20.1c1.1-1,2.1-2.2,3-3.6
			c-1-0.8-2.1-1.7-3.4-2.9c-15.2-14-31.1-34.1-32.5-34.5C401.8,247.6,401,252.2,400.6,257z"/>
		<path id="XMLID_235_" class="st2" d="M428.4,313.1c1.7,0,10.5-0.8,15.8,5.7c5.3,6.5,5.9,19.2,4.3,43
			c-1.6,23.9-15.6,30.1-20.4,28.5c-4.8-1.5-10.3-9.6-10.3-9.6L428.4,313.1z"/>
		<path id="XMLID_234_" class="st23" d="M428.8,311.6c0.5,0,1.7-0.1,3.3,0c-1.2,10.6-3.5,36.3-2.8,45.8c0.9,11.9,2.1,25,7.8,24.3
			c5.6-0.7,11.1-14.9,11.2-15.3c-3.3,18.9-15.3,23.9-19.6,22.5c-1.9-0.6-3.9-2.2-5.6-4c-1.5-3.8-2.6-9-3.2-15L428.8,311.6z"/>
		<path id="XMLID_233_" class="st21" d="M422.9,299.1c3.2-0.2,16.1-1.2,20.8,5.8c4.7,7,7.8,18.8,4.8,25.2c-2.9,6.5-23.9,8-24.2,1.6
			C424,325.4,422.9,299.1,422.9,299.1z"/>
		<path id="XMLID_232_" class="st2" d="M440.4,329.5c1.5,0,2.6-1.9,2.6-4.2c0-2.3-1.2-4.2-2.6-4.2c-1.5,0-2.6,1.9-2.6,4.2
			C437.8,327.6,439,329.5,440.4,329.5z"/>
		<linearGradient id="XMLID_554_" gradientUnits="userSpaceOnUse" x1="244.8474" y1="226.9013" x2="313.825" y2="226.9013">
			<stop  offset="0" style="stop-color:#D1957B"/>
			<stop  offset="0.5281" style="stop-color:#C47257"/>
			<stop  offset="0.7128" style="stop-color:#BF6049"/>
			<stop  offset="1" style="stop-color:#B84936"/>
		</linearGradient>
		<path id="XMLID_231_" class="st24" d="M312.2,202.8c-0.5-2.7,0.3-12.1-4.8-12.3c-25.7-1-44.9,27.1-62.5,44.7
			c0,0,28.3,29.5,29.1,28c0.7-1.5,34.5-28.5,38.3-39.8C315.9,212.3,312.2,202.8,312.2,202.8z"/>
		<linearGradient id="XMLID_555_" gradientUnits="userSpaceOnUse" x1="350.6799" y1="327.0195" x2="272.0251" y2="167.1599">
			<stop  offset="5.618000e-03" style="stop-color:#D37C50"/>
			<stop  offset="0.8123" style="stop-color:#E5B64F"/>
			<stop  offset="1" style="stop-color:#EAC44F"/>
		</linearGradient>
		<path id="XMLID_230_" class="st25" d="M342.9,183.9c0,0,29.5,6.8,34.5,7.8c5,1,32,7.8,33.5,9.5c1.5,1.7-16.5,83-33.5,119.5
			c-17,36.5-36.5,51.5-36.5,51.5s-68-17.4-83-24.9c-15-7.5-27.3-11.6-24.8-11.6c2.5,0,41.3-43.5,50.3-68.5c9-25,5.5-67,13-72.5
			C303.9,189.1,342.9,183.9,342.9,183.9z"/>
		<path id="XMLID_229_" class="st26" d="M359.1,215.4c-5.8,38,18,78.7,19.3,80.8c1.2,2.1,9.5-7.5,6.7-9.8
			c-2.7-2.3-9.7-37.5-6.4-56.8c3.3-19.3,6-26.9,12-34.7c1.9-2.5-15.1-6.8-19.4-4.5C365.7,193.2,361.4,200.8,359.1,215.4z"/>
		<linearGradient id="XMLID_556_" gradientUnits="userSpaceOnUse" x1="311.1986" y1="200.2159" x2="365.5637" y2="200.2159">
			<stop  offset="0" style="stop-color:#BE8C60"/>
			<stop  offset="0.4888" style="stop-color:#9C6837"/>
			<stop  offset="1" style="stop-color:#63411C"/>
		</linearGradient>
		<path id="XMLID_228_" class="st27" d="M349.6,183.3c0,0,11.9,1.9,14.9,6.1c5.6,7.9-11.7,21.4-17.6,24.4
			c-8.6,4.3-32.2,6.7-35.5-6.1c-1-3.9,3.1-10.6,8.1-15.8c5-5.2,11-6.9,17.6-8.1C343.7,182.6,349.6,183.3,349.6,183.3z"/>
		<linearGradient id="XMLID_557_" gradientUnits="userSpaceOnUse" x1="315.83" y1="186.95" x2="361.9091" y2="186.95">
			<stop  offset="0" style="stop-color:#A67C52"/>
			<stop  offset="1" style="stop-color:#754C24"/>
		</linearGradient>
		<path id="XMLID_227_" class="st28" d="M328.6,163.9c0.8,2-0.8,17.5-2.3,20.8c-3.1,7-24.3,27.3,3.8,29.1
			c16.8,1.1,31.3-18.3,31.7-21.1c0.4-2.8-4.3-4.2-6.2-10.2c-2-6,0.2-22.3,0.2-22.3L328.6,163.9z"/>
		<path id="XMLID_226_" class="st29" d="M147.9,182.7c-1-1.1-6.2-8.3-6.2-8.3l1.5-0.8l56.6,21.8l71.1-19.5l1.3,1l-5.9,11.5
			l-65.7,14.4L147.9,182.7z"/>
		<polygon id="XMLID_225_" class="st30" points="199.3,197 141.7,174.4 166.7,278.4 222.3,296 233.8,293.4 210.2,193.9 		"/>
		<path id="XMLID_224_" class="st31" d="M297.2,279.9c-3,0-75,16-75,16l-23-99l73-20L297.2,279.9z"/>
		<linearGradient id="XMLID_558_" gradientUnits="userSpaceOnUse" x1="118.0505" y1="389.6057" x2="206.9871" y2="389.6057">
			<stop  offset="0" style="stop-color:#8F9093"/>
			<stop  offset="3.832744e-03" style="stop-color:#8E8F92"/>
			<stop  offset="0.1041" style="stop-color:#78797B"/>
			<stop  offset="0.2117" style="stop-color:#68696B"/>
			<stop  offset="0.3319" style="stop-color:#5E5F61"/>
			<stop  offset="0.4888" style="stop-color:#5B5C5E"/>
			<stop  offset="0.7136" style="stop-color:#58595B"/>
			<stop  offset="0.8859" style="stop-color:#4F5051"/>
			<stop  offset="1" style="stop-color:#454546"/>
		</linearGradient>
		<path id="XMLID_223_" class="st32" d="M206.2,367.2c-2.5,0-37.5-6-51.8-5.8c-14.2,0.2-20,0-29.3,8.5c-9.2,8.5-8,24.7-4.8,36.5
			c3.3,11.8,9.3,12.5,20.5,10.5c11.2-2,24.1-9.5,35.2-9.5s13.8,2.3,21.8,0.8c8-1.5,9.2,1.3,9-4.5S206.2,367.2,206.2,367.2z"/>
		<linearGradient id="XMLID_559_" gradientUnits="userSpaceOnUse" x1="118.0505" y1="389.6057" x2="161.055" y2="389.6057">
			<stop  offset="0" style="stop-color:#A79077"/>
			<stop  offset="1" style="stop-color:#5C493D"/>
		</linearGradient>
		<path id="XMLID_222_" class="st33" d="M161.1,361.6c-2.5-0.2-4.7-0.2-6.6-0.2c-14.2,0.2-20,0-29.3,8.5c-9.2,8.5-8,24.7-4.8,36.5
			c2.9,10.6,8.1,12.3,17.4,11c-13.5-13.8-19.1-41.3,0.8-51.8C143.8,362.9,153.2,362,161.1,361.6z"/>
		<linearGradient id="XMLID_560_" gradientUnits="userSpaceOnUse" x1="159.471" y1="391.0923" x2="349.053" y2="391.0923">
			<stop  offset="0" style="stop-color:#8F9093"/>
			<stop  offset="3.832744e-03" style="stop-color:#8E8F92"/>
			<stop  offset="0.1041" style="stop-color:#78797B"/>
			<stop  offset="0.2117" style="stop-color:#68696B"/>
			<stop  offset="0.3319" style="stop-color:#5E5F61"/>
			<stop  offset="0.4888" style="stop-color:#5B5C5E"/>
			<stop  offset="0.7136" style="stop-color:#58595B"/>
			<stop  offset="0.8859" style="stop-color:#4F5051"/>
			<stop  offset="1" style="stop-color:#454546"/>
		</linearGradient>
		<path id="XMLID_221_" class="st34" d="M198.7,373.1c-5.9,1.8-50.4-3.2-55,5c-2.5,4.5,0,22,1.5,27.5c1.5,5.5,8,3.3,11.2,2.3
			c3.3-1,13.5-4.5,24.5-3.5c11,1,19.4,5.6,21.1-1.1C203.8,396.6,198.2,373.2,198.7,373.1z"/>
		<linearGradient id="XMLID_561_" gradientUnits="userSpaceOnUse" x1="290.4481" y1="403.9224" x2="382.1971" y2="403.9224">
			<stop  offset="0" style="stop-color:#8F9093"/>
			<stop  offset="3.832744e-03" style="stop-color:#8E8F92"/>
			<stop  offset="0.1041" style="stop-color:#78797B"/>
			<stop  offset="0.2117" style="stop-color:#68696B"/>
			<stop  offset="0.3319" style="stop-color:#5E5F61"/>
			<stop  offset="0.4888" style="stop-color:#5B5C5E"/>
			<stop  offset="0.7136" style="stop-color:#58595B"/>
			<stop  offset="0.8859" style="stop-color:#4F5051"/>
			<stop  offset="1" style="stop-color:#454546"/>
		</linearGradient>
		<path id="XMLID_220_" class="st35" d="M312,373.9c21,2.2,48.3,1,56.5,2c8.2,1,15.7,2,13.2,13.3c-2.5,11.2-15.8,42.7-23.5,44.5
			s-36.2-6.7-43.5-12c-7.3-5.3-24.8-14-24.3-14.8C291,406.2,312,373.9,312,373.9z"/>
		<linearGradient id="XMLID_562_" gradientUnits="userSpaceOnUse" x1="329.901" y1="394.3628" x2="238.4129" y2="358.5948">
			<stop  offset="0" style="stop-color:#8F9093"/>
			<stop  offset="3.832744e-03" style="stop-color:#8E8F92"/>
			<stop  offset="0.1041" style="stop-color:#78797B"/>
			<stop  offset="0.2117" style="stop-color:#68696B"/>
			<stop  offset="0.3319" style="stop-color:#5E5F61"/>
			<stop  offset="0.4888" style="stop-color:#5B5C5E"/>
			<stop  offset="0.7136" style="stop-color:#58595B"/>
			<stop  offset="0.8859" style="stop-color:#4F5051"/>
			<stop  offset="1" style="stop-color:#454546"/>
		</linearGradient>
		<path id="XMLID_219_" class="st36" d="M311.2,377.8c1.2,0.5,20.9,2.4,28.1,3.3c7.9,1,11.9,1.2,10,6c-2.9,7-9.4,22.7-10.9,25
			c-1.9,2.9-5,2.5-5,2.5s-34-15.4-33.5-16.3C300.4,397.4,311.2,377.8,311.2,377.8z"/>
		<linearGradient id="XMLID_563_" gradientUnits="userSpaceOnUse" x1="265.0349" y1="305.4387" x2="141.7104" y2="452.3398">
			<stop  offset="0" style="stop-color:#8C7B68"/>
			<stop  offset="0.5112" style="stop-color:#645037"/>
			<stop  offset="1" style="stop-color:#3A1E1B"/>
		</linearGradient>
		<path id="XMLID_218_" class="st37" d="M321.2,373.4c-5-2.5-96.2-49-117.5-56c-21.3-7-33.4-13.5-50.5-12.1
			c-17.1,1.4-23.2,20.4-23.7,28.9c-0.5,8.5,2.2,17.1,11.2,21.1c9,4,54,14,75.5,22.5c21.5,8.5,74.5,32.5,78.5,34
			C298.7,413.4,321.2,373.4,321.2,373.4z"/>
		<linearGradient id="XMLID_564_" gradientUnits="userSpaceOnUse" x1="246.8194" y1="366.4046" x2="338.6305" y2="415.7669">
			<stop  offset="0" style="stop-color:#8C7B68"/>
			<stop  offset="0.5112" style="stop-color:#645037"/>
			<stop  offset="1" style="stop-color:#3A1E1B"/>
		</linearGradient>
		<path id="XMLID_217_" class="st38" d="M295.4,383.8c-1,4.8-12,23.1-12.6,24.3c-0.6,1.1,11.3,7,12.9,7.4c1.6,0.4,9.9-12,14.8-20.1
			s6.5-14.5,6.5-14.5L295.4,383.8z"/>
		<linearGradient id="XMLID_565_" gradientUnits="userSpaceOnUse" x1="227.2864" y1="56.533" x2="296.1873" y2="56.533">
			<stop  offset="0" style="stop-color:#42210B"/>
			<stop  offset="0.5169" style="stop-color:#333333"/>
			<stop  offset="1" style="stop-color:#42210B"/>
		</linearGradient>
		<path id="XMLID_216_" class="st39" d="M278.2,30.2c0,0-11.7,6.7-15.2,18.7c-3.5,12,6.8,34,6.8,34s20.9-40.9,19-40.8
			C286.8,42.2,278.2,30.2,278.2,30.2z"/>
		<linearGradient id="XMLID_566_" gradientUnits="userSpaceOnUse" x1="258.0704" y1="99.0081" x2="429.3475" y2="99.0081">
			<stop  offset="0" style="stop-color:#A67C52"/>
			<stop  offset="1" style="stop-color:#754C24"/>
		</linearGradient>
		<path id="XMLID_215_" class="st40" d="M397.1,138.1c-0.4,3.1-1.8,19.9-33.1,31.4c-31.4,11.5-60.5,11-79.9-4.9
			c-19.4-15.9-25.6-24.3-23.8-38c1.8-13.7,4.9-19,4.4-24.3c-0.4-5.3-11.9-11.9-3.5-30.9c8.4-19,15.9-29.1,15.9-29.1
			s-5.3-13.7,35.8-18.1c41.1-4.4,64.5-8.8,82.6,15c18.1,23.8,15,54.8,15,54.8s13.3-7.9,17.7,5.3c0.1,0.4,0.3,0.9,0.4,1.3
			c4,15-6.6,30.9-16.8,35.8C401.6,141.2,397.1,138.1,397.1,138.1z"/>
		<linearGradient id="XMLID_567_" gradientUnits="userSpaceOnUse" x1="399.9151" y1="203.812" x2="327.1758" y2="-11.008">
			<stop  offset="0" style="stop-color:#42210B"/>
			<stop  offset="0.5169" style="stop-color:#333333"/>
			<stop  offset="1" style="stop-color:#42210B"/>
		</linearGradient>
		<path id="XMLID_214_" class="st41" d="M420.8,91.8c-4.4-0.8-10,1.6-10.4,2.1c-7.9,7.8-13.2,36.8-14.8,35.5
			c-2.2-1.8-7.9-4.9-7.9-4.9s8.8-29.6,7.1-50.8c-0.5-6.2,2-21.9-1.4-24.7c-27.9-22.6-105.5,4.1-105.5,4.1c-28.6-7.2-26.4-21-26.4-21
			s8.1-7.6,16-15c7.9-7.4,16-9,16-9s23.8-7.6,31.1-8.3c7.3-0.7,55.1,9,70.3,15.4c15.2,6.4,18.5,17.9,18.5,17.9s5.9,0.4,13,9.9
			C433.4,52.7,420.8,91.8,420.8,91.8z"/>
		<linearGradient id="XMLID_568_" gradientUnits="userSpaceOnUse" x1="312.8403" y1="-77.8478" x2="370.2842" y2="45.5856">
			<stop  offset="0" style="stop-color:#42210B"/>
			<stop  offset="0.5169" style="stop-color:#333333"/>
			<stop  offset="1" style="stop-color:#42210B"/>
		</linearGradient>
		<path id="XMLID_213_" class="st42" d="M339.9,6.1c3.1,0.8,6.8,1.4,10.7,2.1c11.9,2,28.9,0.9,44.2,7.3c7.5,3.2,12.1,7.6,14.9,11.2
			c-4.6-0.2-10.6-0.4-16,0.1c-10.4,0.9-23.2,4.8-23.5,5.1c-0.3,0.3-0.1-0.2,3.6-3.5c3.7-3.3,16.1-9.2,16.5-9.1
			c0.4,0.1-11.2-1.6-19.3,0.4c-8.1,2-31.5,10.4-31.5,10.4s1.4-3.3,8.7-8.7c7.3-5.4,14.4-6.8,14.4-6.8s-12.5-1.1-24.9,2.5
			c-12.5,3.6-23.1,11.3-23.2,12c-0.1,0.8,2.6-6.1,9.9-11.8c7.3-5.7,17.1-7,19-7.1l-14.3-0.7C329.1,9.6,333.5,7.6,339.9,6.1z"/>
		<path id="XMLID_212_" class="st43" d="M387.6,124.6c0,0,8.8-29.6,7.1-50.8c-0.5-6.2,2-21.9-1.4-24.7
			c-27.9-22.6-105.5,4.1-105.5,4.1c-20.9-5.2-3.6-8.4-3.9-9.2c-0.3-0.8-3.2-1.7-1.3-11.8c1.9-10.1,5.2-14.3,4.5-12.8
			c-0.8,1.5,0.8,10.7,3.4,18.4c2.6,7.7,4.7,8.5,4.7,8.5s-0.5-4.5,4.1-12.8c4.6-8.3,15.3-15.2,14.1-14.2c-1.2,1-4.9,9.1-5.2,14.4
			c-0.3,5.3,0.6,7.3,0.6,7.3s2.9-4.4,16-13c13.1-8.6,22.9-8.8,20.9-8.8c-2,0-5.2,1.4-9.8,9.5c-4.6,8.1-2.2,9.1-2.2,9.1
			s8.2-5.4,21.2-10.2c13-4.7,25.4-4.3,24.3-4.5s-12.8,6-15.3,8.8c-2.5,2.9-2.8,4.5-2.8,4.5s6.8-2.4,21.4-5.3c14.6-2.9,25,2,23.4,2
			c-1.5,0-16.1,7.7-16.1,7.7s10.2,2.4,15.7,6c5.5,3.5,8.6,8.8,8.6,8.8l-15-4c0,0,3.5,19.4,2.2,34.9S387.6,124.6,387.6,124.6z"/>
		<linearGradient id="XMLID_569_" gradientUnits="userSpaceOnUse" x1="380.172" y1="175.9035" x2="318.1494" y2="-38.0574">
			<stop  offset="0" style="stop-color:#42210B"/>
			<stop  offset="0.5169" style="stop-color:#333333"/>
			<stop  offset="1" style="stop-color:#42210B"/>
		</linearGradient>
		<path id="XMLID_211_" class="st44" d="M387.6,124.6c0,0,8.8-29.6,7.1-50.8c-0.5-6.2,2-21.9-1.4-24.7
			c-27.9-22.6-109.5,4.1-109.5,4.1c-20.9-5.2-1.6-13.4-1.9-14.2c-5.2-12.1,5.6-20.5,5.2-19.6c-0.8,1.5,0.8,10.7,3.4,18.4
			c2.6,7.7,4.7,8.5,4.7,8.5s-0.5-4.5,4.1-12.8c4.6-8.3,15.3-15.2,14.1-14.2c-1.2,1-4.9,9.1-5.2,14.4c-0.3,5.3,0.6,7.3,0.6,7.3
			s2.9-4.4,16-13c13.1-8.6,22.9-8.8,20.9-8.8c-2,0-5.2,1.4-9.8,9.5c-4.6,8.1-2.2,9.1-2.2,9.1s8.2-5.4,21.2-10.2
			c13-4.7,25.4-4.3,24.3-4.5s-12.8,6-15.3,8.8c-2.5,2.9-2.8,4.5-2.8,4.5s6.8-2.4,21.4-5.3c14.6-2.9,25,2,23.4,2
			c-1.5,0-16.1,7.7-16.1,7.7s10.2,2.4,15.7,6c5.5,3.5,8.6,8.8,8.6,8.8l-15-4c0,0,3.5,19.4,2.2,34.9S387.6,124.6,387.6,124.6z"/>
		<linearGradient id="XMLID_570_" gradientUnits="userSpaceOnUse" x1="327.1989" y1="127.6309" x2="326.8625" y2="86.2592">
			<stop  offset="0" style="stop-color:#C69C6D;stop-opacity:0"/>
			<stop  offset="1" style="stop-color:#754C24"/>
		</linearGradient>
		<ellipse id="XMLID_210_" class="st45" cx="327.1" cy="113.8" rx="28.4" ry="25.9"/>
		<g id="XMLID_207_">
			<linearGradient id="XMLID_571_" gradientUnits="userSpaceOnUse" x1="331.294" y1="109.1419" x2="321.7802" y2="58.8816">
				<stop  offset="0" style="stop-color:#42210B"/>
				<stop  offset="0.5169" style="stop-color:#333333"/>
				<stop  offset="1" style="stop-color:#42210B"/>
			</linearGradient>
			<path id="XMLID_209_" class="st46" d="M308.7,93.7c6-0.9,7.1-5.6,43.7-0.1c3.1,0.5-1.2-6.3-8.3-8.3c-7.1-2-9.6-2.7-21-3.1
				c-5.2-0.2-9.2-0.2-12-0.2C300.6,82.1,299.1,95.1,308.7,93.7z"/>
			<linearGradient id="XMLID_572_" gradientUnits="userSpaceOnUse" x1="302.3479" y1="90.8104" x2="353.4797" y2="90.8104">
				<stop  offset="0" style="stop-color:#42210B"/>
				<stop  offset="0.5169" style="stop-color:#333333"/>
				<stop  offset="1" style="stop-color:#42210B"/>
			</linearGradient>
			<path id="XMLID_208_" class="st47" d="M308.7,93.7c6-0.9,7.1-5.6,43.7-0.1c0.6,0.1,0.9-0.1,1-0.5c-1.2-1.5-14.2-4.5-25.6-5.3
				c-11.3-0.8-20,4.4-22.7,3.1c-1.3-0.7-2.2-1.7-2.7-3.1C301.7,91.2,303.7,94.4,308.7,93.7z"/>
		</g>
		<linearGradient id="XMLID_573_" gradientUnits="userSpaceOnUse" x1="273.9145" y1="127.3387" x2="273.5981" y2="88.4277">
			<stop  offset="0" style="stop-color:#C69C6D;stop-opacity:0"/>
			<stop  offset="1" style="stop-color:#603813"/>
		</linearGradient>
		<path id="XMLID_206_" class="st48" d="M286.5,114.3c0,13.4-6,24.3-13.4,24.3c-6.3,0-11.8-6.6-11.8-17.4c0-2.5,2.1-10.7,3.1-15.5
			c0.6-3.1-0.2-5.6-1.1-7c-4.1-6,5.1-8.8,9.9-8.8C280.5,90,286.5,100.9,286.5,114.3z"/>
		<g id="XMLID_203_">
			<linearGradient id="XMLID_574_" gradientUnits="userSpaceOnUse" x1="260.769" y1="71.3474" x2="276.4008" y2="98.6129">
				<stop  offset="0" style="stop-color:#42210B"/>
				<stop  offset="0.5169" style="stop-color:#333333"/>
				<stop  offset="1" style="stop-color:#42210B"/>
			</linearGradient>
			<path id="XMLID_205_" class="st49" d="M284.1,94.6c-3.8-1-4.9-5.7-27.1-1.1c-1.9,0.4,0.2-6.2,4.4-8c4.2-1.8,5.7-2.5,12.7-2.6
				c3.2-0.1,5.7,0,7.4,0.1C288,83.3,290.2,96.2,284.1,94.6z"/>
			<linearGradient id="XMLID_575_" gradientUnits="userSpaceOnUse" x1="256.291" y1="92.0415" x2="287.6972" y2="92.0415">
				<stop  offset="0" style="stop-color:#42210B"/>
				<stop  offset="0.5169" style="stop-color:#333333"/>
				<stop  offset="1" style="stop-color:#42210B"/>
			</linearGradient>
			<path id="XMLID_204_" class="st50" d="M284.1,94.6c-3.8-1-4.9-5.7-27.1-1.1c-0.4,0.1-0.6-0.1-0.7-0.6c1.1-0.9,2.9-2,4.9-2.5
				c3-0.7,13.4-2,17.2-0.2c3.8,1.8,6.3,2.3,7.3,1.4c0.5-0.5,1.3-1.2,1.8-1.8C288.1,92.8,287,95.4,284.1,94.6z"/>
		</g>
		<path id="XMLID_199_" class="st51" d="M408.8,95.7c-2.2,0-55.4-14.7-57.2-15.1c-7-1.8-103.5,3.9-106,8.4c-1.1,2,2.2,30.7,5.7,36.4
			c3.5,5.7,28.3,3.8,29.4,2.9c1.1-0.9,3.3-1.4,4.5-5.1c1.2-3.6-1.4-32.9-1.4-32.9s1.8-2.4,7.4-2.3c5.6,0.1,7.3,1.8,7.3,1.8
			s-1,31.1,3.2,35.5c4.2,4.4,45.7,3.5,49.9,1.8c4.2-1.8,3.1-39.1,3.1-39.1l51.3,11.8L408.8,95.7L408.8,95.7z M277.5,87.3
			c0,0,1.3,0.1,1.8,1c0.4,0.9,3.9,35.1,3.6,35.7c-0.2,0.6-0.6,1.3-2.4,1.5c-1.9,0.2-24-0.3-24.8-0.3c-0.9-0.1-1.9-1.4-2.3-2.7
			c-0.4-1.3-6.2-29.4-4.5-31.8C250.7,88.3,276.7,87.3,277.5,87.3L277.5,87.3z M349,123.5c-2.5,2.8-44,0.3-44.3,0.1
			c-1.8-1.2-3.3-32.7-1.7-37.5c0.5-1.5,32-1.5,42.1-1.3c1.6,0,3.9-0.4,4.3,1.2C350.8,92.1,350.3,122,349,123.5z"/>
		<linearGradient id="XMLID_576_" gradientUnits="userSpaceOnUse" x1="271.1229" y1="120.2207" x2="288.0003" y2="120.2207">
			<stop  offset="0" style="stop-color:#A67C52"/>
			<stop  offset="1" style="stop-color:#754C24"/>
		</linearGradient>
		<path id="XMLID_198_" class="st52" d="M292.7,107.5c-0.3,1.4-0.8,4.9-6.3,10.7c-5.5,5.9-8.4,5.7-8.4,8c0,2,9.2,6.4,10.9,6.7
			c1.7,0.3,6.1-0.6,6-2.2c0-0.9-4.4-1.7-7.6-2.7c-2.4-0.7-4.1-1.6-2.7-2.6c3.2-2.4,6-7.5,7.6-12.1
			C293.8,108.6,292.7,107.5,292.7,107.5z"/>
		<linearGradient id="XMLID_577_" gradientUnits="userSpaceOnUse" x1="321.2336" y1="108.9184" x2="330.102" y2="108.9184">
			<stop  offset="0" style="stop-color:#8F9093"/>
			<stop  offset="3.832744e-03" style="stop-color:#8E8F92"/>
			<stop  offset="0.1041" style="stop-color:#78797B"/>
			<stop  offset="0.2117" style="stop-color:#68696B"/>
			<stop  offset="0.3319" style="stop-color:#5E5F61"/>
			<stop  offset="0.4888" style="stop-color:#5B5C5E"/>
			<stop  offset="0.7136" style="stop-color:#58595B"/>
			<stop  offset="0.8859" style="stop-color:#4F5051"/>
			<stop  offset="1" style="stop-color:#454546"/>
		</linearGradient>
		<path id="XMLID_197_" class="st53" d="M325.3,103.8c2.4,0,4.6,2.3,4.8,5.1c0.2,2.8-1.6,5.1-4,5.1c-2.4,0-4.6-2.3-4.8-5.1
			C321,106.1,322.8,103.8,325.3,103.8z"/>
		<linearGradient id="XMLID_578_" gradientUnits="userSpaceOnUse" x1="268.9478" y1="111.3467" x2="277.809" y2="111.3467">
			<stop  offset="0" style="stop-color:#8F9093"/>
			<stop  offset="3.832744e-03" style="stop-color:#8E8F92"/>
			<stop  offset="0.1041" style="stop-color:#78797B"/>
			<stop  offset="0.2117" style="stop-color:#68696B"/>
			<stop  offset="0.3319" style="stop-color:#5E5F61"/>
			<stop  offset="0.4888" style="stop-color:#5B5C5E"/>
			<stop  offset="0.7136" style="stop-color:#58595B"/>
			<stop  offset="0.8859" style="stop-color:#4F5051"/>
			<stop  offset="1" style="stop-color:#454546"/>
		</linearGradient>
		<path id="XMLID_196_" class="st54" d="M273,106.3c2.4,0,4.6,2.3,4.8,5.1c0.2,2.8-1.6,5.1-4.1,5.1c-2.4,0-4.6-2.3-4.8-5.1
			C268.8,108.5,270.6,106.3,273,106.3z"/>
		<linearGradient id="XMLID_579_" gradientUnits="userSpaceOnUse" x1="228.6759" y1="283.3966" x2="333.9989" y2="446.4231">
			<stop  offset="0" style="stop-color:#8C7B68"/>
			<stop  offset="0.5112" style="stop-color:#645037"/>
			<stop  offset="1" style="stop-color:#3A1E1B"/>
		</linearGradient>
		<path id="XMLID_195_" class="st55" d="M366.2,372.4c-64.8,19.2-82.3,35.5-148.5,43.8c-4,0.5-21,3.3-21-3.2c0-6.5-9-44.5-9-44.5
			s3.1-1,8.4-2.6c19-5.8,65.5-20,92.1-27.4c34-9.5,63.3-27.5,78.8-15.7c15.5,11.8,16.3,24.3,13.8,34.7
			C378.2,367.9,366.2,372.4,366.2,372.4z"/>
		<path id="XMLID_194_" class="st56" d="M156.4,217.4c4.7,0.1,8.7,7.3,2.3,8.5c-6.4,1.2-8.6,1.1-11.1-1.4c-1.5-1.5-1.3-3.7-1-5.3
			C147,216.8,151.9,217.3,156.4,217.4z"/>
		<path id="XMLID_193_" class="st57" d="M159,218.2c3.3,1.9,4.9,6.8-0.2,7.7c-6,1.1-8.4,1.1-10.7-1c3.4,0.6,8.8,0.7,11.1-0.6
			C161,223.2,159.9,220.2,159,218.2z"/>
		<linearGradient id="XMLID_580_" gradientUnits="userSpaceOnUse" x1="403.1181" y1="115.8148" x2="424.4383" y2="115.8148">
			<stop  offset="0" style="stop-color:#333333"/>
			<stop  offset="0.5169" style="stop-color:#603813"/>
			<stop  offset="1" style="stop-color:#603813"/>
		</linearGradient>
		<path id="XMLID_192_" class="st58" d="M423.5,103c2.4,4.8-0.3,14-4.7,20.6c-4.4,6.6-9.1,9.1-12.6,7.6c-3.5-1.5-3.8-4.1-2.2-7.4
			c1.6-3.3,4.8-1.2,5.1-4.5c0.3-3.3-0.9-1.8-1.5-5.4c-0.7-3.6,0.2-4.9,2.2-8.5C412.6,100.5,420.7,97.4,423.5,103z"/>
		<path id="XMLID_191_" class="st59" d="M293,148.3c15.3,1.5,41.9,2.5,57.2-5C345.4,151.6,294.3,152.1,293,148.3z"/>
		<linearGradient id="XMLID_581_" gradientUnits="userSpaceOnUse" x1="345.8821" y1="405.0113" x2="382.1972" y2="405.0113">
			<stop  offset="0" style="stop-color:#A79077"/>
			<stop  offset="1" style="stop-color:#5C493D"/>
		</linearGradient>
		<path id="XMLID_190_" class="st60" d="M381.7,389.2c2.4-10.6-4.2-12.1-11.8-13.1c6.7,5-9.6,49.8-24,56.6c5.3,1.1,9.9,1.6,12.3,1
			C366,431.9,379.2,400.4,381.7,389.2z"/>
		<linearGradient id="XMLID_582_" gradientUnits="userSpaceOnUse" x1="243.2196" y1="380.2629" x2="162.7056" y2="398.6823">
			<stop  offset="0" style="stop-color:#8C7B68"/>
			<stop  offset="0.5112" style="stop-color:#645037"/>
			<stop  offset="1" style="stop-color:#3A1E1B"/>
		</linearGradient>
		<path id="XMLID_189_" class="st61" d="M198.4,361.2c-4.9,1-13.7,3.6-14.1,4.9c-0.5,1.6,3.3,12,5.8,29.3
			c2.5,17.2,0.2,21.5,2.5,23.2c2.3,1.8,18.7-1.6,18.7-1.6s-4.6-25.9-5.6-35.9c-0.8-7.9-2.6-13.9-3.7-17.1
			C201.4,362.1,201.5,360.5,198.4,361.2z"/>
		<path id="XMLID_188_" class="st62" d="M326.8,105.8c0.9-0.3,2,0.6,2.3,1.9c0.4,1.3-0.1,2.6-1,2.8c-0.9,0.3-2-0.6-2.3-1.9
			C325.4,107.4,325.8,106.1,326.8,105.8z"/>
		<path id="XMLID_187_" class="st63" d="M274.5,108.3c0.9-0.3,2,0.6,2.3,1.9c0.4,1.3-0.1,2.6-1,2.8c-0.9,0.3-2-0.6-2.3-1.9
			C273.1,109.8,273.6,108.6,274.5,108.3z"/>
		<path id="XMLID_186_" class="st59" d="M359.4,133.3c0.4,0,0.7-0.4,0.7-0.9c0-0.5-0.3-0.9-0.7-0.9c-0.4,0-0.7,0.4-0.7,0.9
			C358.6,132.9,359,133.3,359.4,133.3z"/>
		<path id="XMLID_185_" class="st59" d="M365.6,130c0.4,0,0.7-0.3,0.7-0.8s-0.3-0.8-0.7-0.8c-0.4,0-0.7,0.3-0.7,0.8
			S365.3,130,365.6,130z"/>
		<path id="XMLID_184_" class="st59" d="M371.3,131.4c0.4,0,0.8-0.3,0.8-0.7s-0.4-0.7-0.8-0.7c-0.4,0-0.8,0.3-0.8,0.7
			S370.9,131.4,371.3,131.4z"/>
		<path id="XMLID_183_" class="st59" d="M362.5,126.4c0.3,0,0.6-0.3,0.6-0.6c0-0.4-0.3-0.6-0.6-0.6c-0.3,0-0.6,0.3-0.6,0.6
			C361.9,126.1,362.2,126.4,362.5,126.4z"/>
		<path id="XMLID_182_" class="st59" d="M348.5,129.7c0.3,0,0.6-0.3,0.6-0.6s-0.3-0.6-0.6-0.6s-0.6,0.3-0.6,0.6
			S348.1,129.7,348.5,129.7z"/>
		<path id="XMLID_181_" class="st59" d="M364.9,120.8c0.4,0,0.7-0.3,0.7-0.6c0-0.3-0.3-0.6-0.7-0.6c-0.4,0-0.7,0.3-0.7,0.6
			C364.2,120.5,364.5,120.8,364.9,120.8z"/>
		<path id="XMLID_180_" class="st59" d="M368.2,124.3c0.5,0,0.9-0.4,0.9-0.8c0-0.5-0.4-0.8-0.9-0.8c-0.5,0-0.9,0.4-0.9,0.8
			C367.4,124,367.8,124.3,368.2,124.3z"/>
		<path id="XMLID_179_" class="st59" d="M356.2,121.2c0.4,0,0.7-0.3,0.7-0.6c0-0.3-0.3-0.6-0.7-0.6s-0.7,0.3-0.7,0.6
			C355.5,121,355.8,121.2,356.2,121.2z"/>
		<path id="XMLID_178_" class="st59" d="M360.3,121.1c0.3,0,0.6-0.3,0.6-0.6c0-0.3-0.3-0.6-0.6-0.6c-0.3,0-0.6,0.3-0.6,0.6
			C359.7,120.9,360,121.1,360.3,121.1z"/>
		<path id="XMLID_177_" class="st59" d="M356.8,127.9c0.4,0,0.7-0.3,0.7-0.7c0-0.4-0.3-0.7-0.7-0.7c-0.4,0-0.7,0.3-0.7,0.7
			C356.1,127.6,356.4,127.9,356.8,127.9z"/>
		<path id="XMLID_176_" class="st59" d="M350.6,132.2c0.3,0,0.5-0.2,0.5-0.4c0-0.2-0.2-0.4-0.5-0.4c-0.3,0-0.5,0.2-0.5,0.4
			C350.1,132,350.3,132.2,350.6,132.2z"/>
		<path id="XMLID_175_" class="st59" d="M353,138.4c0.3,0,0.6-0.4,0.6-0.9c0-0.5-0.2-0.9-0.6-0.9s-0.6,0.4-0.6,0.9
			C352.5,138,352.7,138.4,353,138.4z"/>
		<path id="XMLID_174_" class="st59" d="M361.9,141.1c0.4,0,0.8-0.3,0.8-0.7s-0.4-0.7-0.8-0.7c-0.4,0-0.8,0.3-0.8,0.7
			S361.5,141.1,361.9,141.1z"/>
		<path id="XMLID_173_" class="st59" d="M364.5,136.1c0.3,0,0.6-0.2,0.6-0.6c0-0.3-0.2-0.6-0.6-0.6s-0.6,0.2-0.6,0.6
			C363.9,135.8,364.2,136.1,364.5,136.1z"/>
		<linearGradient id="XMLID_583_" gradientUnits="userSpaceOnUse" x1="254.0162" y1="264.5511" x2="413.7741" y2="264.5511">
			<stop  offset="0" style="stop-color:#A67C52"/>
			<stop  offset="1" style="stop-color:#754C24"/>
		</linearGradient>
		<path id="XMLID_172_" class="st64" d="M413.6,218.6c-2.5,35.2-12.9,109.6-14.8,111.2c-2.5,2-10.8,5-18-0.5
			c-7.1-5.4-75-66.4-74.5-69l0,0c0,0-4.9,1.3-12.1-2.3c-7.2-3.6-9.9-7.1-9.9-7.1l-3.5-2c-2.1,1.3-3.8,1.5-3.8,1.5s-4.9,6.3-7.8,4.3
			c-2.9-2,1.8-6.8,1.8-6.8l6.8-4.9c1.8-1.5,5-2.6,5-2.6c-1.5-0.3-8.1,0.3-10,0.5c-2,0.2-5.9,3.3-10.7,4.3c-2.2,0.5-3.7,0.4-4.7,0.2
			c0-1.9,6.1-6,8.8-7.5c2.2-1.3,9.9-3.7,11.1-4.3l1.8-1.1c0,0-8.3,0.2-9.5,0.5c-1.1,0.3-6.8,2.9-10.3,2.9c-2,0-3.6-0.6-4.6-1.1
			c-0.2-0.7,0.3-1.6,1.8-2.4c4.1-2.2,21.1-7,21.1-7l7.4,0.5c0,0-8.9-2.6-11.8-2.4c-2.9,0.1-12.4,2.1-15.6,2.4
			c-1.1,0.1-2.2-0.1-3.3-0.5c0-0.3-0.1-0.6-0.1-0.9c-0.2-1.6,19.7-7.2,20.3-7.4c0.6-0.1,10.8,0.5,12,0.9
			c4.4,1.7,15.4,14.4,23.5,23.8c7.5,1.7,69.7,54.1,70.9,55c1.2,1,0.5-89.6,3.9-94.3C388,197.9,415.9,186.2,413.6,218.6z"/>
		<linearGradient id="XMLID_584_" gradientUnits="userSpaceOnUse" x1="376.017" y1="239.8488" x2="417.3654" y2="239.8488">
			<stop  offset="0" style="stop-color:#D1957B"/>
			<stop  offset="0.5281" style="stop-color:#C47257"/>
			<stop  offset="0.7128" style="stop-color:#BF6049"/>
			<stop  offset="1" style="stop-color:#B84936"/>
		</linearGradient>
		<path id="XMLID_154_" class="st65" d="M405.4,196c-20.5-5.2-21.3,2.7-25.8,7.9c-4.5,5.3-3.5,81.3-3.5,81.3l36.2,0.2
			C414.2,259.2,426,201.2,405.4,196z"/>
		<path id="XMLID_153_" class="st56" d="M157.8,225.9c4.7,0.1,8.7,7.3,2.3,8.5c-6.4,1.2-8.6,1.1-11.1-1.4c-1.5-1.5-1.3-3.7-1-5.3
			C148.4,225.3,153.2,225.8,157.8,225.9z"/>
		<path id="XMLID_152_" class="st57" d="M160.4,226.7c3.3,1.9,4.9,6.8-0.2,7.7c-6,1.1-8.4,1.1-10.7-1c3.4,0.6,8.8,0.7,11.1-0.6
			C162.4,231.7,161.3,228.7,160.4,226.7z"/>
		<path id="XMLID_151_" class="st56" d="M160.7,234.5c4.7,0.1,8.7,7.3,2.3,8.5c-6.4,1.2-8.6,1.1-11.1-1.4c-1.5-1.5-1.3-3.7-1-5.3
			C151.3,233.8,156.2,234.3,160.7,234.5z"/>
		<path id="XMLID_150_" class="st57" d="M163.3,235.3c3.3,1.9,4.9,6.8-0.2,7.7c-6,1.1-8.4,1.1-10.7-1c3.4,0.6,8.8,0.7,11.1-0.6
			C165.3,240.3,164.3,237.3,163.3,235.3z"/>
		<path id="XMLID_149_" class="st56" d="M161.4,242.8c3.8,0.1,7,5.9,1.9,6.8c-5.1,0.9-6.9,0.9-9-1.2c-1.2-1.2-1-3-0.8-4.3
			C153.8,242.3,157.7,242.7,161.4,242.8z"/>
		<path id="XMLID_148_" class="st57" d="M163.4,243.4c2.7,1.5,4,5.5-0.2,6.2c-4.8,0.9-6.7,0.9-8.6-0.8c2.7,0.5,7.1,0.5,8.9-0.5
			C165,247.5,164.2,245.1,163.4,243.4z"/>
		<polygon id="XMLID_147_" class="st1" points="239.3,273.9 274.1,265.5 275.6,271.6 240.8,280 		"/>
		
			<rect id="XMLID_146_" x="218.7" y="204.2" transform="matrix(0.9696 -0.2445 0.2445 0.9696 -44.6354 65.2443)" class="st1" width="43.4" height="16.4"/>
		<g id="XMLID_80_">
			<polygon id="XMLID_145_" class="st0" points="611.4,401.6 469.3,401.6 469.3,436.5 611.4,436.5 611.4,433.7 599.1,433.7 
				599.1,404.4 611.4,404.4 			"/>
			<path id="XMLID_144_" class="st1" d="M608.4,404.4h-136v29.3h137.1c-2.5-4.6-3.9-10-3.9-15.8C605.6,413,606.6,408.5,608.4,404.4z
				"/>
			<path id="XMLID_143_" class="st66" d="M546.4,401.6c-26.3,0-50.8,0-77.1,0c-10.9,0-10.9,35,0,35c26.3,0,50.8,0,77.1,0
				C537.4,430.6,538,408.9,546.4,401.6z"/>
			<path id="XMLID_142_" class="st67" d="M544.2,433.7h54.9h10.4h1.8v2.8h-63.1h-6.6c-6.2-8.4-6-25.8-0.3-35h6.8h63.1v2.8h-3h-9.3
				h-54.4C539.5,412.2,539.1,426.5,544.2,433.7z"/>
			<polygon id="XMLID_141_" class="st0" points="458,366.6 600.1,366.6 600.1,401.6 458,401.6 458,398.7 470.3,398.7 470.3,369.4 
				458,369.4 			"/>
			<path id="XMLID_140_" class="st1" d="M461,369.4h136v29.3H459.8c2.5-4.6,3.9-10,3.9-15.8C463.7,378.1,462.7,373.5,461,369.4z"/>
			<path id="XMLID_139_" class="st68" d="M523,366.6c26.3,0,50.8,0,77.1,0c10.9,0,10.9,35,0,35c-26.3,0-50.8,0-77.1,0
				C532,395.6,531.4,373.9,523,366.6z"/>
			<path id="XMLID_138_" class="st69" d="M525.1,398.7h-54.9h-10.4H458v2.8h63.1h6.6c6.2-8.4,6-25.8,0.3-35h-6.8H458v2.8h3h9.3h54.4
				C529.9,377.2,530.3,391.5,525.1,398.7z"/>
			<path id="XMLID_134_" class="st6" d="M587.3,339H486.2c-5.9,0-10.8,3.4-10.8,7.5v12.5c0,4.1,4.9,7.5,10.8,7.5h101.1v-2h-20.1V341
				h20.1V339z"/>
			<polygon id="XMLID_133_" class="st7" points="587.3,339 527.1,339 527.1,366.6 587.3,366.6 587.3,364.6 567.2,364.6 567.2,341 
				587.3,341 			"/>
			<path id="XMLID_132_" class="st8" d="M585.4,364.6h-99.5c-3.9,0-8-2.2-8-5.5v-12.5c0-3.4,4.1-5.5,8-5.5h99.5
				c-1.2,3.6-1.8,7.6-1.8,11.8S584.2,361,585.4,364.6z"/>
			<path id="XMLID_130_" class="st1" d="M525.5,364.6c-1.2-3.6-1.8-7.6-1.8-11.8s0.6-8.2,1.8-11.8h41.7h18.2
				c-1.2,3.6-1.8,7.6-1.8,11.8s0.6,8.2,1.8,11.8H525.5z"/>
			<g id="XMLID_119_">
				<rect id="XMLID_129_" x="465.2" y="371.3" class="st9" width="59.5" height="0.8"/>
				<rect id="XMLID_128_" x="465.2" y="373.9" class="st9" width="59.5" height="0.8"/>
				<rect id="XMLID_127_" x="465.2" y="376.4" class="st9" width="59.5" height="0.8"/>
				<rect id="XMLID_126_" x="465.2" y="379" class="st9" width="59.5" height="0.8"/>
				<rect id="XMLID_125_" x="465.2" y="381.6" class="st9" width="59.5" height="0.8"/>
				<rect id="XMLID_124_" x="465.2" y="384.1" class="st9" width="59.5" height="0.8"/>
				<rect id="XMLID_123_" x="465.2" y="386.7" class="st9" width="59.5" height="0.8"/>
				<rect id="XMLID_122_" x="465.2" y="389.2" class="st9" width="59.5" height="0.8"/>
				<rect id="XMLID_121_" x="465.2" y="391.8" class="st9" width="59.5" height="0.8"/>
				<rect id="XMLID_120_" x="465.2" y="394.4" class="st9" width="59.5" height="0.8"/>
			</g>
			<rect id="XMLID_118_" x="465.2" y="396.9" class="st9" width="59.5" height="0.8"/>
			<g id="XMLID_107_">
				<rect id="XMLID_117_" x="544.4" y="407.6" class="st9" width="59.5" height="0.8"/>
				<rect id="XMLID_116_" x="544.4" y="410.1" class="st9" width="59.5" height="0.8"/>
				<rect id="XMLID_115_" x="544.4" y="412.7" class="st9" width="59.5" height="0.8"/>
				<rect id="XMLID_114_" x="544.4" y="415.3" class="st9" width="59.5" height="0.8"/>
				<rect id="XMLID_113_" x="544.4" y="417.8" class="st9" width="59.5" height="0.8"/>
				<rect id="XMLID_112_" x="544.4" y="420.4" class="st9" width="59.5" height="0.8"/>
				<rect id="XMLID_111_" x="544.4" y="422.9" class="st9" width="59.5" height="0.8"/>
				<rect id="XMLID_110_" x="544.4" y="425.5" class="st9" width="59.5" height="0.8"/>
				<rect id="XMLID_109_" x="544.4" y="428.1" class="st9" width="59.5" height="0.8"/>
				<rect id="XMLID_108_" x="544.4" y="430.6" class="st9" width="59.5" height="0.8"/>
			</g>
			<g id="XMLID_96_">
				<rect id="XMLID_106_" x="481.8" y="343" class="st9" width="100.1" height="0.7"/>
				<rect id="XMLID_105_" x="481.8" y="345.2" class="st9" width="100.1" height="0.7"/>
				<rect id="XMLID_104_" x="481.8" y="347.4" class="st9" width="100.1" height="0.7"/>
				<rect id="XMLID_103_" x="481.8" y="349.6" class="st9" width="100.1" height="0.7"/>
				<rect id="XMLID_102_" x="481.8" y="351.8" class="st9" width="100.1" height="0.7"/>
				<rect id="XMLID_101_" x="481.8" y="354" class="st9" width="100.1" height="0.7"/>
				<rect id="XMLID_100_" x="481.8" y="356.2" class="st9" width="100.1" height="0.7"/>
				<rect id="XMLID_99_" x="481.8" y="358.4" class="st9" width="100.1" height="0.7"/>
				<rect id="XMLID_98_" x="481.8" y="360.6" class="st9" width="100.1" height="0.7"/>
				<rect id="XMLID_97_" x="481.8" y="362.8" class="st9" width="100.1" height="0.7"/>
			</g>
			<polygon id="XMLID_95_" class="st0" points="612,313.4 469.9,313.4 469.9,339 612,339 612,337 599.7,337 599.7,315.5 612,315.5 
							"/>
			<path id="XMLID_94_" class="st1" d="M609,315.5H473V337h137.1c-2.5-3.4-3.9-7.3-3.9-11.6C606.3,321.8,607.2,318.5,609,315.5z"/>
			<path id="XMLID_93_" class="st70" d="M547,313.4c-26.3,0-50.8,0-77.1,0c-10.9,0-10.9,25.6,0,25.6c26.3,0,50.8,0,77.1,0
				C538,334.7,538.6,318.8,547,313.4z"/>
			<path id="XMLID_92_" class="st71" d="M544.8,337h54.9h10.4h1.8v2.1h-63.1h-6.6c-6.2-6.2-6-18.9-0.3-25.6h6.8H612v2.1h-3h-9.3
				h-54.4C540.1,321.2,539.7,331.7,544.8,337z"/>
			<g id="XMLID_81_">
				<rect id="XMLID_91_" x="545" y="317.8" class="st9" width="59.5" height="0.6"/>
				<rect id="XMLID_90_" x="545" y="319.7" class="st9" width="59.5" height="0.6"/>
				<rect id="XMLID_89_" x="545" y="321.6" class="st9" width="59.5" height="0.6"/>
				<rect id="XMLID_88_" x="545" y="323.5" class="st9" width="59.5" height="0.6"/>
				<rect id="XMLID_87_" x="545" y="325.3" class="st9" width="59.5" height="0.6"/>
				<rect id="XMLID_86_" x="545" y="327.2" class="st9" width="59.5" height="0.6"/>
				<rect id="XMLID_85_" x="545" y="329.1" class="st9" width="59.5" height="0.6"/>
				<rect id="XMLID_84_" x="545" y="331" class="st9" width="59.5" height="0.6"/>
				<rect id="XMLID_83_" x="545" y="332.8" class="st9" width="59.5" height="0.6"/>
				<rect id="XMLID_82_" x="545" y="334.7" class="st9" width="59.5" height="0.6"/>
			</g>
		</g>
		<g id="XMLID_4_">
			<polygon id="XMLID_79_" class="st72" points="344.9,410.7 462.9,410.7 462.9,435 344.9,435 344.9,433 355,433 355,412.6 
				344.9,412.6 			"/>
			<path id="XMLID_78_" class="st1" d="M347.3,412.6h112.9V433H346.4c2-3.2,3.2-7,3.2-11C349.6,418.6,348.8,415.4,347.3,412.6z"/>
			<path id="XMLID_77_" class="st73" d="M398.9,410.7c21.9,0,42.2,0,64,0c9,0,9,24.3,0,24.3c-21.9,0-42.2,0-64,0
				C406.4,430.8,405.8,415.8,398.9,410.7z"/>
			<path id="XMLID_76_" class="st74" d="M400.6,433H355h-8.7h-1.5v2h52.4h5.4c5.1-5.9,5-18,0.2-24.3h-5.7h-52.4v2h2.5h7.7h45.2
				C404.6,418,404.9,428,400.6,433z"/>
			<polygon id="XMLID_75_" class="st72" points="472.3,386.3 354.2,386.3 354.2,410.7 472.3,410.7 472.3,408.7 462.1,408.7 
				462.1,388.3 472.3,388.3 			"/>
			<path id="XMLID_74_" class="st1" d="M469.8,388.3H356.9v20.4h113.9c-2-3.2-3.2-7-3.2-11C467.5,394.3,468.3,391.1,469.8,388.3z"/>
			<path id="XMLID_73_" class="st75" d="M418.3,386.3c-21.9,0-42.2,0-64,0c-9,0-9,24.3,0,24.3c21.9,0,42.2,0,64,0
				C410.8,406.5,411.3,391.4,418.3,386.3z"/>
			<path id="XMLID_70_" class="st76" d="M416.5,408.7h45.6h8.7h1.5v2h-52.4h-5.4c-5.1-5.9-5-18-0.2-24.3h5.7h52.4v2h-2.5h-7.7h-45.2
				C412.6,393.7,412.2,403.7,416.5,408.7z"/>
			<path id="XMLID_69_" class="st77" d="M364.9,367.2h83.9c4.9,0,9,2.4,9,5.2v8.7c0,2.9-4,5.2-9,5.2h-83.9V385h16.7v-16.4h-16.7
				V367.2z"/>
			<polygon id="XMLID_68_" class="st78" points="364.9,367.2 414.9,367.2 414.9,386.3 364.9,386.3 364.9,385 381.6,385 381.6,368.5 
				364.9,368.5 			"/>
			<path id="XMLID_67_" class="st8" d="M366.4,385h82.6c3.2,0,6.6-1.5,6.6-3.9v-8.7c0-2.3-3.4-3.9-6.6-3.9h-82.6
				c1,2.5,1.5,5.3,1.5,8.2C367.9,379.7,367.4,382.4,366.4,385z"/>
			<path id="XMLID_66_" class="st1" d="M416.2,385c1-2.5,1.5-5.3,1.5-8.2c0-2.9-0.5-5.7-1.5-8.2h-34.6h-15.1c1,2.5,1.5,5.3,1.5,8.2
				c0,2.9-0.5,5.7-1.5,8.2H416.2z"/>
			<g id="XMLID_48_">
				<rect id="XMLID_65_" x="416.9" y="389.6" class="st79" width="49.4" height="0.5"/>
				<rect id="XMLID_64_" x="416.9" y="391.4" class="st79" width="49.4" height="0.5"/>
				<rect id="XMLID_63_" x="416.9" y="393.2" class="st79" width="49.4" height="0.5"/>
				<rect id="XMLID_62_" x="416.9" y="395" class="st79" width="49.4" height="0.5"/>
				<rect id="XMLID_60_" x="416.9" y="396.7" class="st79" width="49.4" height="0.5"/>
				<rect id="XMLID_56_" x="416.9" y="398.5" class="st79" width="49.4" height="0.5"/>
				<rect id="XMLID_55_" x="416.9" y="400.3" class="st79" width="49.4" height="0.5"/>
				<rect id="XMLID_54_" x="416.9" y="402.1" class="st79" width="49.4" height="0.5"/>
				<rect id="XMLID_53_" x="416.9" y="403.9" class="st79" width="49.4" height="0.5"/>
				<rect id="XMLID_49_" x="416.9" y="405.6" class="st79" width="49.4" height="0.5"/>
			</g>
			<rect id="XMLID_47_" x="416.9" y="407.4" class="st79" width="49.4" height="0.5"/>
			<g id="XMLID_35_">
				<rect id="XMLID_45_" x="351" y="414.8" class="st79" width="49.4" height="0.5"/>
				<rect id="XMLID_44_" x="351" y="416.6" class="st79" width="49.4" height="0.5"/>
				<rect id="XMLID_43_" x="351" y="418.4" class="st79" width="49.4" height="0.5"/>
				<rect id="XMLID_42_" x="351" y="420.2" class="st79" width="49.4" height="0.5"/>
				<rect id="XMLID_41_" x="351" y="422" class="st79" width="49.4" height="0.5"/>
				<rect id="XMLID_40_" x="351" y="423.7" class="st79" width="49.4" height="0.5"/>
				<rect id="XMLID_39_" x="351" y="425.5" class="st79" width="49.4" height="0.5"/>
				<rect id="XMLID_38_" x="351" y="427.3" class="st79" width="49.4" height="0.5"/>
				<rect id="XMLID_37_" x="351" y="429.1" class="st79" width="49.4" height="0.5"/>
				<rect id="XMLID_36_" x="351" y="430.9" class="st79" width="49.4" height="0.5"/>
			</g>
			<g id="XMLID_20_">
				<rect id="XMLID_34_" x="369.3" y="369.9" class="st79" width="83.2" height="0.5"/>
				<rect id="XMLID_33_" x="369.3" y="371.4" class="st79" width="83.2" height="0.5"/>
				<rect id="XMLID_32_" x="369.3" y="372.9" class="st79" width="83.2" height="0.5"/>
				<rect id="XMLID_28_" x="369.3" y="374.5" class="st79" width="83.2" height="0.5"/>
				<rect id="XMLID_27_" x="369.3" y="376" class="st79" width="83.2" height="0.5"/>
				<rect id="XMLID_26_" x="369.3" y="377.5" class="st79" width="83.2" height="0.5"/>
				<rect id="XMLID_24_" x="369.3" y="379.1" class="st79" width="83.2" height="0.5"/>
				<rect id="XMLID_23_" x="369.3" y="380.6" class="st79" width="83.2" height="0.5"/>
				<rect id="XMLID_22_" x="369.3" y="382.1" class="st79" width="83.2" height="0.5"/>
				<rect id="XMLID_21_" x="369.3" y="383.7" class="st79" width="83.2" height="0.5"/>
			</g>
			<polygon id="XMLID_19_" class="st72" points="344.4,349.4 462.4,349.4 462.4,367.2 344.4,367.2 344.4,365.7 354.5,365.7 
				354.5,350.8 344.4,350.8 			"/>
			<path id="XMLID_18_" class="st1" d="M346.8,350.8h112.9v14.9H345.9c2-2.3,3.2-5.1,3.2-8.1C349.1,355.2,348.3,352.9,346.8,350.8z"
				/>
			<path id="XMLID_17_" class="st80" d="M398.4,349.4c21.9,0,42.2,0,64,0c9,0,9,17.8,0,17.8c-21.9,0-42.2,0-64,0
				C405.9,364.1,405.3,353.1,398.4,349.4z"/>
			<path id="XMLID_16_" class="st81" d="M400.1,365.7h-45.6h-8.7h-1.5v1.4h52.4h5.4c5.1-4.3,5-13.1,0.2-17.8h-5.7h-52.4v1.4h2.5h7.7
				h45.2C404.1,354.8,404.4,362.1,400.1,365.7z"/>
			<g id="XMLID_5_">
				<rect id="XMLID_15_" x="350.5" y="352.4" class="st79" width="49.4" height="0.4"/>
				<rect id="XMLID_14_" x="350.5" y="353.7" class="st79" width="49.4" height="0.4"/>
				<rect id="XMLID_13_" x="350.5" y="355" class="st79" width="49.4" height="0.4"/>
				<rect id="XMLID_12_" x="350.5" y="356.3" class="st79" width="49.4" height="0.4"/>
				<rect id="XMLID_11_" x="350.5" y="357.6" class="st79" width="49.4" height="0.4"/>
				<rect id="XMLID_10_" x="350.5" y="358.9" class="st79" width="49.4" height="0.4"/>
				<rect id="XMLID_9_" x="350.5" y="360.2" class="st79" width="49.4" height="0.4"/>
				<rect id="XMLID_8_" x="350.5" y="361.5" class="st79" width="49.4" height="0.4"/>
				<rect id="XMLID_7_" x="350.5" y="362.8" class="st79" width="49.4" height="0.4"/>
				<rect id="XMLID_6_" x="350.5" y="364.1" class="st79" width="49.4" height="0.4"/>
			</g>
		</g>
		<path id="XMLID_3_" class="st57" d="M284.9,225.9c-1.6,0-3.4-0.1-5.2-0.3c-1-0.1-1.9-0.2-2.8-0.3c-2.4-0.3-4.3-0.3-5.6-0.2
			c-4.5,0.4-8.5,2.7-13.1,2.1c-3.3-0.4-3.8-0.9-4-1.9c1.1,0.4,2.2,0.6,3.3,0.5c3.2-0.3,12.7-2.3,15.6-2.4
			C276,223.3,284.9,225.9,284.9,225.9z"/>
		<path id="XMLID_2_" class="st57" d="M278.9,232.5l-1.8,1.1c0,0-5.3,0.3-8.3,0.9c-3.6,0.7-7.9,2.8-10.2,2.6
			c-1.9-0.2-3.8-1.1-4.1-2.2c1,0.5,2.6,1,4.6,1.1c3.5,0.1,9.2-2.5,10.3-2.9C270.6,232.7,278.9,232.5,278.9,232.5z"/>
		<path id="XMLID_1_" class="st57" d="M280.4,241.3C280.4,241.3,280.4,241.3,280.4,241.3c-0.6,0-5.2,0.5-6.9,0.7
			c-2,0.2-6.1,2.6-8.1,3.5c-2.8,1.2-5,2.2-7.8,0.5c-0.3-0.2-0.4-0.4-0.4-0.7c1,0.2,2.5,0.3,4.7-0.2c4.8-1,8.8-4.1,10.7-4.3
			c1.9-0.2,8.5-1,10-0.7S280.4,241.3,280.4,241.3z"/>
	</g>
</g>
</svg>
