<?xml version="1.0" encoding="utf-8"?>
<!-- Generator: Adobe Illustrator 23.0.1, SVG Export Plug-In . SVG Version: 6.00 Build 0)  -->
<svg version="1.1" id="_x23_Layer_1" xmlns="http://www.w3.org/2000/svg" xmlns:xlink="http://www.w3.org/1999/xlink" x="0px"
	 y="0px" viewBox="0 0 325.3 185.7" style="enable-background:new 0 0 325.3 185.7;" xml:space="preserve">
<style type="text/css">
	.st0{fill:#0C4773;}
	.st1{fill:#ADAFB2;}
	.st2{fill:#137A5A;}
	.st3{fill-rule:evenodd;clip-rule:evenodd;fill:#F47B20;}
</style>
<path class="st0" d="M22.3,69.2h-17L-0.1,49H60l5.3,20.2H44.1v68.5H22.3V69.2z"/>
<path class="st0" d="M90.6,61.1c-1,1.5-2.2,2.8-3.7,3.7c-1.5,1-3.3,1.4-5.3,1.4s-3.6-0.4-5.1-1.4c-1.5-1-2.8-2.2-3.7-3.9
	c-1-1.7-1.4-3.5-1.4-5.3c0-1.9,0.4-3.6,1.4-5.3c1-1.7,2.2-2.9,3.9-3.9c1.5-1,3.3-1.4,5.1-1.4c1.9,0,3.6,0.4,5.3,1.4
	c1.5,1,2.8,2.2,3.7,3.9c1,1.5,1.4,3.3,1.4,5.3C92,57.7,91.6,59.5,90.6,61.1z M91.8,73.8v64.1H71.9v-64L91.8,73.8z"/>
<path class="st0" d="M95,49.2H115v88.6L95,138.1C95,138.1,95,49.2,95,49.2z"/>
<path class="st0" d="M131.3,90.8h-13.2l4.4-17.2h8.7V49.2l19.9,0.1v24.5h13.3L160.1,91h-8.9v21.2c0,5.7,3.6,8.4,10.7,8.4
	c2.4,0,4-0.3,5.3-0.8l-5.8,19.9c-1.1,0.1-2.1,0.3-3,0.3c-6,0-10.9-1-14.8-2.9c-4-1.9-7.1-4.8-9-8.7c-2.1-3.9-3-8.7-3-14.7V90.8
	H131.3z"/>
<path class="st1" d="M171.9,122.4c1.1-1.8,2.5-3,4.2-4c1.8-1,3.6-1.5,5.5-1.5s3.9,0.6,5.5,1.5c1.7,1.1,3,2.4,4.2,4.2
	c1.1,1.7,1.5,3.5,1.5,5.5c0,3.3-1.1,6.1-3.2,8.3c-2.2,2.2-4.8,3.3-8,3.3c-2.1,0-4-0.6-5.7-1.5c-1.8-1-3.2-2.4-4.2-4.2
	c-1-1.8-1.5-3.7-1.5-5.8C170.2,125.9,170.8,124.1,171.9,122.4z"/>
<path class="st2" d="M223.5,89.3c-5.1,0.3-7.6,3.7-7.6,10.7v37.8H196V100c0-18.1,9.1-27.8,27.7-28.7h1.1c18.4,1,27.7,10.5,27.7,28.7
	v37.8h-20.1V100c0-6.9-2.5-10.4-7.6-10.7C224.8,89.3,223.5,89.3,223.5,89.3z"/>
<path class="st2" d="M325.3,105.9v33.9v4.6c0,8.2-2.9,15.2-8.7,21c-2.8,2.8-6.4,4.8-10.9,6.4c-4.3,1.5-8.4,2.2-12.6,2.2h-3.5
	c-9.6-0.3-17-3-22.7-8.7c-3.7-3.9-6.1-7.3-6.9-10.2l19.1-11.1c0.1,3.3,1.5,6.1,3.9,8.3c2.4,2.4,5.3,3.5,8.6,3.5c2.6,0,5-0.7,7.2-2.2
	c2.1-1.5,3.6-3.3,4.6-5.7v-0.3l0.1-0.3c0.1-0.3,0.1-0.6,0.3-0.8c0.1-0.6,0.3-1,0.3-1.5v-0.1v-0.1v-0.3V144l0,0v-6.5l-0.6,0.3
	l-0.6,0.1c-4.2,1.7-8.6,2.6-13.2,2.6c-6.1,0-11.8-1.5-17-4.6c-5.3-2.9-9.6-7.1-12.7-12.5c-3.2-5.4-4.8-11.2-4.8-17.9
	c0-5,1-9.6,2.8-13.7c1.8-4.2,4.3-7.9,7.6-11.1c3.2-3,6.9-5.5,11.1-7.2c4.3-1.7,8.6-2.6,13-2.6c7.8,0,13.4,1,17.3,3
	C319.3,79.3,325.3,90,325.3,105.9z M280,117c3.3,3.2,7.1,4.8,11.4,4.8c4.3,0,8.2-1.7,11.5-4.8c3.2-3.2,4.8-6.9,4.8-11.5
	c0-2.8-0.7-5.5-2.2-8c-1.5-2.5-3.5-4.4-6-5.8s-5.3-2.1-8-2.1c-2.8,0-5.5,0.7-7.9,2.1c-2.5,1.4-4.6,3.3-6.1,5.8
	c-1.5,2.5-2.2,5.1-2.2,8C275,110.1,276.7,113.8,280,117z"/>
<path class="st3" d="M68.6,47.6c0.7,0.3,1.2,0.6,1.5,1l0.1,0.1c0.1-4.8,15.1-12.9,22.8,1.1c0.1-0.3-1.7-20.2-1.7-20.2
	c-1.2-1.7-7.1-0.3-8.9,0.1c-3.2,0.8-17,5.7-17.9,7.5c-0.3,0.4-0.6-0.6,0,0.6C65.3,39.7,67.6,46.7,68.6,47.6L68.6,47.6z M68.3,56.8
	c-1.1,2.2-0.6,3.6-0.1,7.1l-8.3-17.3c1.2-2.5,2.4-6.8,3-7.2c0.8,1,5,11.1,5,11.1C64.3,52.2,68.3,56.8,68.3,56.8z M48.5,20.2
	L48.5,20.2c0.8,0.7,0.8,2.4,1.2,3.6c0.8-0.6,1.5-1.9,2.2-2.4c0.7-0.3,2.5,0.1,3.5,0.1l-1.9-3c0.7-1,1.2-1.9,1.2-3.2
	c-0.7,0.4-2.5,1-3.2,0.7c-0.7-0.1-1.9-1.5-2.2-2.1c-0.8,0.6-0.6,2.1-0.7,3c-0.3,0.8-2.1,1.5-2.9,2.1L48.5,20.2L48.5,20.2z M77.2,9.3
	L77.2,9.3l0.8,3.3c0.7-0.6,1.8-2.2,2.4-2.4c0.8-0.3,2.4,0.3,3.3,0.1l-1.2-2.1L82,7.2l1.4-2.8c-3.2,0.4-2.8,1.4-4.6-0.4
	c-0.6-0.6-0.7-0.7-1.4-1c-0.3,1,0,2.1-0.4,2.9c-0.4,0.8-1.5,1-2.4,1.7c-0.3,0.3-0.3,0.3-0.4,0.4L77.2,9.3L77.2,9.3z M89.5,10.9
	L89.5,10.9L90,13c2.6-2.1,0.1-1.1,3.5-1.4c-1.7-3-0.8-1.2-0.3-3.6c-0.7,0-1.4,0.4-1.9,0.1C91,8,90.9,7.8,90.6,7.6s-0.1-0.1-0.4-0.3
	l-0.3-0.1c-0.7,1.9,0.6,1.5-1.9,2.9L89.5,10.9L89.5,10.9z M41.3,28.9L41.3,28.9c0.3,0,1.1,0.4,1.4,0.4c0.4,0.4,0.4,1.4,0.7,1.9
	c2.6-2.1,0-1.1,3.5-1.4l-1.1-1.7l0.8-1.7h-1c-1.7,0.6-1.2-0.1-2.5-1C43,25.8,43,25.8,43,26c-0.1,0.7,0,1-0.3,1.4
	C42,28.4,41,28.1,41.3,28.9L41.3,28.9z M91.7,27.7L91.7,27.7L91.7,27.7c-1.9-1.9-7.5-0.4-9.8,0.3c-1.9,0.6-4,1.1-6,1.8
	c-5.3,1.8-10,4-11.8,5.4c-0.6-1.2-2.4-5.3-2.4-6.4c1.7-1.9,3.7-3.2,5.7-5.3c2.9-1.9,1.2-2.2,5.1-2.2c4-0.1,7.9-0.3,11.9-0.3
	c6.4-0.6,13.6-0.6,19.9-0.6c-0.1,0.3,0,0.1-0.4,0.6l-1.4,1.2c-0.6,0.6-1.2,1.1-1.7,1.5l-7.9,6.8L91.7,27.7L91.7,27.7z M61.2,13
	L61.2,13l1,4.3l1.2-1.2c1.7-3.3,3.5-1.9,6.5-1.8L67.6,10l1-2.1L69.4,6c-0.1,0-0.3-0.1-0.3,0l-1.9,0.3c-0.8,0.1-1.5,0.4-2.4,0.6
	c-1.2-0.7-2.5-2.4-3.6-3c-0.3,1-0.3,3.3-0.6,4c0.1,1.2-1.8,1.5-3.3,2.6l-0.6,0.6C58.6,11.9,60.7,12,61.2,13L61.2,13L61.2,13z
	 M57.4,46.8c1.2-6.1,3.5-8.4,5.5-10.5c0.3-0.7-1.8-5.3-2.2-6.4L44.3,44.3C46,44.6,57.4,46.8,57.4,46.8z M64,17.2L64,17.2L64,17.2
	L64,17.2L64,17.2z M91.4,32L91.4,32C91.4,31.8,91.3,31.8,91.4,32C91.3,31.8,91.4,31.8,91.4,32z"/>
<path class="st0" d="M90.6,61.1c-1,1.5-2.2,2.8-3.7,3.7c-1.5,1-3.3,1.4-5.3,1.4s-3.6-0.4-5.1-1.4c-1.5-1-2.8-2.2-3.7-3.9
	c-1-1.7-1.4-3.5-1.4-5.3c0-1.9,0.4-3.6,1.4-5.3c1-1.7,2.2-2.9,3.9-3.9c1.5-1,3.3-1.4,5.1-1.4c1.9,0,3.6,0.4,5.3,1.4
	c1.5,1,2.8,2.2,3.7,3.9c1,1.5,1.4,3.3,1.4,5.3C92,57.7,91.6,59.5,90.6,61.1z"/>
</svg>
