<?xml version="1.0" encoding="utf-8"?>
<!-- Generator: Adobe Illustrator 23.0.1, SVG Export Plug-In . SVG Version: 6.00 Build 0)  -->
<svg version="1.1" xmlns="http://www.w3.org/2000/svg" xmlns:xlink="http://www.w3.org/1999/xlink" x="0px" y="0px"
	 viewBox="0 0 500 469" style="enable-background:new 0 0 500 469;" xml:space="preserve">
<style type="text/css">
	.st0{fill:#EBEBEB;}
	.st1{fill:#BAC5CC;}
	.st2{fill:#C0CBD2;}
	.st3{fill:#FFDABE;}
	.st4{fill:#1F646B;}
	.st5{fill:#131623;}
	.st6{fill:#1C2033;}
	.st7{fill:#805500;}
	.st8{fill:#2C7B89;}
	.st9{fill:#4E274B;}
	.st10{fill:#FF6E72;}
	.st11{fill:#28201A;}
	.st12{fill:#A87F64;}
	.st13{fill:#51406A;}
	.st14{fill:#D6D5DF;}
	.st15{fill:#FEEDDB;}
	.st16{fill:#E7F2EF;}
</style>
<g id="OBJECTS">
	<g>
		<polygon class="st0" points="62.5,213 144.1,248.3 422.6,211 		"/>
		<polygon class="st1" points="136.4,339.2 136.4,372.9 422.6,211 		"/>
		<polygon class="st2" points="62.5,213 130,259.2 130,280.9 144.1,259.2 422.6,211 144.1,248.3 		"/>
		<path class="st3" d="M337.8,190c0-0.1,0-0.3-0.1-0.4c-0.5-0.7-1.2-1.1-2-1.2c-0.4-0.2-0.9-0.3-1.3-0.3c-1.2-0.1-2.4,0-3.6,0
			c-1.5,0.1-2.3,0.1-3.7-0.7c-0.5-0.3-1.1,0.1-1.2,0.5c-0.8,0.5-1.5,1.1-2.2,1.6c-0.2,0.2-0.5,0.4-0.6,0.7c-0.7-0.1-1.2,0.9-0.6,1.4
			c0.2,0.1,0.3,0.2,0.5,0.3c0.1,0.4,0.4,0.8,0.9,0.8c0.1,0,0.1,0,0.2,0c0.7,0.3,1.6,0.1,2.6-0.1c3.5-0.6,7-1.2,10.5-1.8
			C337.7,190.9,337.9,190.4,337.8,190z"/>
		<path class="st4" d="M322,192.3c0.3,0.2,0.6,0.2,0.9,0c0,0,0,0,0,0c2.3-1.3,4.5-2.6,5.7-5.1c0.1-0.2,0.1-0.3,0-0.5
			c0-0.2,0-0.4-0.2-0.5c-1.1-1.3-2.2-2.6-3.4-3.9c0,0,0,0,0,0c-5.3-7.2-12.6-12.7-18-19.9c-0.6-0.8-1.7,0.2-1.2,1l2.3,15.9
			L322,192.3z"/>
		<path class="st3" d="M277,240.7c-0.8-0.9-1.4-3.8-1.5-3.9c0-0.3,0.2-1.8,0.2-1.8c-1.9,0.5-3.8,1-5.8,1.5c-0.1,0-0.1,0.1-0.1,0.1
			c-0.2-0.1-0.4,0-0.4,0.2c-0.2,1.4-0.6,4.3,0.9,5.3c0.1,0.1,0.1,0.1,0.3,0.1C272.8,241.7,277.2,240.6,277,240.7z"/>
		<path class="st3" d="M344.5,230.8c0-2.5,0-5-0.1-7.5c0,0-6.2,0.5-6.2,0.9c0.1,2,0.3,4.1,0.4,6.1c0,0.1,0,0.1,0.1,0.1
			c-0.1,0.2-0.1,0.4,0.1,0.5c1.4,0.4,4.3,1.4,5.5,0.1c0,0,0,0,0,0C344.4,230.9,344.4,230.9,344.5,230.8
			C344.5,230.8,344.5,230.8,344.5,230.8z"/>
		<path class="st5" d="M348.6,198.7c0-0.5,0-1.1-0.1-1.6c0-2.2-0.4-4.3-2.1-5.6c-2.8-2.1-7.9-0.8-11-0.4c-7.7,0.9-15.3,2.3-22.9,3.9
			c-0.4,0.1-0.4,2.2-0.1,3.4c0.1,0.4,0.8,6.8,0.8,6.9c0.4,2,0.2,4.8,0.6,5c-1.3,0.3,12.8-2.3,21-4.2c-0.6,6.7,2.8,19.5,2.8,19.5
			c0,0.1,1.5,0.7,2.2,0.9c0.8,0.2,1.6,0.2,2.3,0.1c1.1-0.1,2.2-0.3,2.7-1.3c0,0,0,0,0,0c0.1,0,0.1-0.1,0.2-0.2
			c1.2-5.9,2.1-11.8,2.7-17.7c0.1-0.6,0.2-1.1,0.3-1.7c0.1-0.2,0.1-0.4,0-0.6C348.7,203,348.6,200.8,348.6,198.7z M335.3,213.3
			C335.3,213.3,335.3,213.3,335.3,213.3C335.3,213.3,335.3,213.3,335.3,213.3C335.3,213.3,335.3,213.3,335.3,213.3z"/>
		<path class="st6" d="M317.2,230.9c-1.1-11.7-2.6-23.4-4.3-35.1c0-0.6-0.3-2.2-0.3-2.3c0-0.3-17.4,2.5-17.3,2.7
			c0,0.2,0.1,0.4,0.1,0.6c0,0.2,0.3,1.5,0.4,1.9c1.5,7.7,3.2,15.4,5,23.1c0,0,0,0.1,0,0.1c0,0.1,0.1,0.2,0.1,0.3
			c0.2,0.9,0.4,1.7,0.6,2.6c-7.1,1.6-14.2,3.2-20.7,6.2c-0.3,0.1-0.6,0.2-0.8,0.4c-2.1,1-4.2,2.1-6.3,3.4c-0.1,0.1-0.1,0.2-0.1,0.3
			c0,0-0.1,0.1-0.1,0.1c-0.1,2.7,1.2,6.9,4.5,6.3c0.6,0,1.2-0.1,1.7-0.1c0.6,0.1,1.2,0,1.8-0.1c8.5-0.5,17.2-1.4,25.4-3.5
			c0.7-0.2,1.7-0.4,2.6-0.7c0.8-0.1,1.6-0.3,2.3-0.8C314.7,235.3,317.3,233.7,317.2,230.9z"/>
		<path d="M276.6,249.3c-0.1-1.4-1.4-2.4-2.7-2.4c-0.8,0-1.8,0.5-2.6,0.3c-1.6-0.5-0.7-5-0.8-5.1c-1.1-1.5-0.8-3.9-0.6-5.6l0,0
			c0,0,0,0,0-0.1c0,0,0,0,0,0c0,0,0,0,0-0.1c-0.1-0.9-1.3-1-2-1.1c-1.3-0.2-2.6-0.1-3.8,0.2c-0.1-0.2-0.4-0.2-0.5,0.1
			c-1.4,4.7-2.3,11.9,0.8,16.2c0.1,0.1,0.2,0.1,0.3,0.1c0,0.1,0.1,0.1,0.2,0.2c4,0.5,8-0.2,11.6-2.1c0.1,0,0.1-0.1,0.2-0.2
			C276.5,249.5,276.6,249.4,276.6,249.3z"/>
		<path d="M355,234.3c-1.7-0.2-3.4,0.1-5.1,0.1c-1.6,0-2.8-0.3-3.8-1.6c-0.5-0.6-0.9-1.4-1.3-2.1c-0.1-0.2-0.3-0.2-0.4-0.1
			c0,0,0,0,0,0c-1.8,0.2-3.6,0.1-5.4-0.3c-0.2,0-0.3,0.1-0.3,0.3c-0.1,0-0.2,0.1-0.2,0.2c-0.6,2.9-0.7,5.8-0.1,8.7
			c0,0.3,0.4,0.3,0.5,0.2c0,0,0,0,0.1,0c6.8,0.4,13.4-0.4,19.8-2.3c0.1,0,0.6-0.2,0.5-0.5C359.1,234.8,356.9,234.5,355,234.3z"/>
		<path class="st6" d="M309.7,113.7c-0.9-2.9-4.1-6.2-7.4-5.5c-2.4,0.6-3.9,3.3-6.2,4.1c-2.8,1.1-6.2-0.6-9.2,0.3
			c-3.2,1-5.2,3.5-6.1,6.6c-0.1-0.1-0.1-0.1-0.2-0.2c-0.8-0.5-1.7-0.5-2.4,0c-0.8,0.6,0.2,1.8,1,1.2c0.3-0.3,0.6,0,0.9,0.3
			c-5.3,3.6-6.5,9.9-4.3,15.9c2.7,7.4,9.3,9.1,16.4,8.6c0.4,0,0.5-0.2,0.6-0.5c0,0,0.1,0,0.1-0.1c2.7-3.2,3.7-7.3,6-10.8
			c1-1.6,2.2-3,3.2-4.6c1.4-2.3,1.8-4.9,4.1-6.5c0.2-0.1,0.2-0.2,0.3-0.4C308.7,119.9,310.7,117,309.7,113.7z"/>
		<path class="st7" d="M354.8,121.5c0.1-0.8-0.7-1.3-1.9-0.9c-2.1,0.7-4.3,2.8-6.1,4.1c-2.5,1.7-5,3.5-7.5,5.2c0,0,0,0-0.1,0.1
			c-0.2,0-0.4,0.2-0.3,0.4c0.1,0.7,0.9,6.1,1.7,6c0.1,0,0.3-0.1,0.3-0.2c0,0,0,0,0,0c1-0.6,2.1-1,3.2-1.1c0.3,0.1,1.7,0.6,2.2,0.6
			c1.1,0.1,3.3-1.9,3.5-2.3c0.8-0.6,1.2-1.3,1.1-2.8c0-0.4-0.6-2-0.7-2.7c-0.1-0.7-0.5-1.2-0.7-1.8c1.6-1,4.6-3.4,4.7-3.5
			C354.3,122.4,354.8,121.6,354.8,121.5z M347.3,126.8C347.3,126.8,347.3,126.8,347.3,126.8C347.3,126.8,347.3,126.8,347.3,126.8
			C347.3,126.8,347.3,126.8,347.3,126.8z M349.5,125.1C349.5,125.1,349.5,125.1,349.5,125.1C349.5,125.1,349.5,125.1,349.5,125.1
			C349.5,125.1,349.5,125.1,349.5,125.1z"/>
		<path class="st7" d="M308.4,135.6c-1.2-4.7-2.5-9.4-3.7-14.1c0,0,0,0,0,0c0-0.1,0-0.2-0.1-0.3c0,0,0-0.1,0-0.1
			c0-0.1-0.1-0.2-0.2-0.2c-0.2-0.2-0.4-0.2-0.7,0.1c0,0.1-0.1,0.1-0.1,0.2c-1.4,1.5-2.9,2.7-4.7,3.5c-0.8,0.4-2,0.6-2.6,1.4
			c-0.2,0.3-0.1,0.8-0.2,1.1c-0.6,3,1.1,5.4-2.4,7.5c-0.1,0.1-0.2,0.2-0.2,0.3c0.2,0.8,0.4,1.7,0.6,2.5c0,0-0.1,0-0.1,0
			c-0.1,0.1-0.2,0.1-0.3,0.1c0,0-0.1,0-0.1,0c-0.2,0-0.3,0-0.4,0c-0.1-0.3-0.3-0.6-0.4-0.8c0,0,0,0,0,0c-0.1-0.2-0.2-0.5-0.3-0.7
			c0,0,0-0.1,0-0.1c0-0.1,0-0.1,0-0.2c-1.4-2.7-6.2-4.6-8-1.2c-2.1,4,3.5,7.6,6.4,9.1c0.1,0,0.1,0,0.1,0c0,0,0,0,0,0c0,0,0,0,0,0
			c0,0,0,0,0,0c0.1,0.1,0.2,0.1,0.4,0.1c0.4,1.4,0.8,2.8,1.1,4.2c0,0,0,0.1,0,0.1c0.1,1,0.3,1.9,0.6,2.8c0,0,0,0,0,0.1
			c0,0.3,0.1,0.6,0.1,1c0,0,0,0,0,0.1c0,0.1,0,0.1,0,0.2c0,0,0,0,0,0c-0.1,0.1-0.1,0.3,0.1,0.4c1.8,0.5,3.7,0.6,5.6,0.4
			c0.2,0,0.3-0.2,0.2-0.4c0,0,0.1,0,0.1,0c0,0,0,0,0,0.1c0.1,0.3,0.7,0.2,0.6-0.2c-0.1-0.5-0.3-1-0.4-1.5c-0.1-0.9-0.3-1.9-0.4-2.8
			c4-0.8,8.1-2.7,9.8-5.5C310.1,140.5,309,137.8,308.4,135.6z M296.1,132.8C296.1,132.8,296.1,132.7,296.1,132.8
			C296.1,132.7,296.1,132.7,296.1,132.8z"/>
		<path class="st8" d="M342.1,137.1c-0.5-2.3-1.3-4.5-2.6-6.5c0-0.5-0.4-1.1-1-0.7c-13,7.7-26,15.3-39.1,22.9
			c-2-0.9-4.5-1.3-7.5-1.4c-0.3,0-0.5,0.1-0.6,0.3c-0.1,0-0.2,0-0.3,0.1c-5.5,2.2-3.8,9.7-3.5,14.5c0.7,9.5,4.7,18.4,5.1,28
			c0,0,0,0,0,0c-0.4,0.3-0.4,1,0.2,1.3c6.7,2.4,16.2,1.8,21.8-2.8c0.4-0.3,0.3-0.8,0-1.1c0-0.1,0-0.2,0-0.3
			c-1.1-8.2-3-16.3-5.7-24.1c0.1-0.2-2.2-5.8-2.4-6.2c-0.2-0.4-0.3-0.7-0.5-1.1c11.9-7.1,23.6-14.4,35.2-22
			C341.7,138,342.2,137.7,342.1,137.1z"/>
		<g>
			<g>
				<path class="st4" d="M297.4,164.9c2.9-1.5,5.8-3,8.7-4.6c0.3-0.2,0-0.6-0.3-0.5c-2.9,1.5-5.8,3-8.7,4.6
					C296.8,164.6,297.1,165.1,297.4,164.9L297.4,164.9z"/>
			</g>
		</g>
		<g>
			<path class="st9" d="M239.8,171.4c-9-10-27-5.3-31.9,6.6c-2.8,6.8-2.7,14.6-2.7,21.9c0,10.2,1.4,20.2,6.3,29.3
				c0.1,0.3,0.5,0.2,0.6,0c0.2,0,0.5,0.1,0.7,0.1c0.2,0.1,0.4,0.1,0.6,0.1c3.8,0.4,7.9,0.5,10.9-1.8c5.3-4.2,4.7-16.6,4.9-16.8
				c0.5-0.3,0.9-13.4,8.5-26.8C242.2,179.6,243.1,175.9,239.8,171.4z"/>
			<path class="st7" d="M244.8,192.7c-1.2-4.8-3.8-14.8-3.8-14.9c-0.2-0.7-1,0-1.1,0c-1.4,1.5-3,2.7-4.8,3.6c-0.9,0.4-2.6,1-2.9,2.5
				c-0.5,3.1,1.1,5.5-2.6,7.6c-0.1,0.1-0.2,0.2-0.2,0.3c0.2,0.8,0.4,1.7,0.6,2.5c0,0-0.8,0.2-0.9,0.2c-0.1-0.3-0.7-1.8-0.8-1.8
				c-1.4-2.8-6.2-4.8-8.1-1.3c-2.2,4.1,3.5,7.8,6.4,9.3c0.1,0,0.4,0.2,0.6,0.2c0.4,1.4,1.8,8.6,1.8,8.6c0,0,0.1,0.4,0.1,0.4
				c1.9,0.5,6.8,0.3,6.7-0.1c-0.1-0.5-0.6-3.4-0.8-4.4c4.1-0.8,8.3-2.7,10-5.6C246.5,197.8,245.4,195,244.8,192.7z"/>
			<path class="st10" d="M247.8,252.4c0-0.1-1.2-18.5-3.3-30.6c-2.3-8.6-6.1-12.1-13.8-13.3c-0.3,0-1.3,0.2-1.4,0.2
				c-5.8,1.4-4.9,9.2-5.3,14.1c-0.7,9.8,2,19.3,1.1,29.1c0,0,0,0,0,0c-0.4,0.3-0.6,1,0,1.3c6.4,3.4,16.1,4.1,22.5,0.4
				C248.1,253.3,248.1,252.7,247.8,252.4z"/>
		</g>
		<g>
			<path class="st11" d="M185.2,184.7c-0.5-0.3-1-0.6-1.5-0.7c0-0.1-0.1-0.1-0.1-0.2c-1.1-1.5-3-2.2-4.8-1.7
				c-0.5,0.1-0.9,0.3-1.3,0.5c-0.6-1.8-2.2-3.2-4.3-3.6c-0.1,0-0.2,0-0.3,0c-0.9-0.3-1.9-0.4-2.8-0.2c-1.4-0.5-2.6,0-3.4,1
				c-0.1-0.1-0.3-0.2-0.4-0.2c-3.5-1.5-7.5,1.4-7.9,4.9c-0.2,0-0.4,0-0.5,0c-3.6,0.2-5.4,3.3-5.5,6.5c-0.2,0-0.4,0.1-0.5,0.1
				c-2.4,0.5-3.6,2.9-2.5,5.1c0.2,0.4,0.5,0.8,0.8,1.2c0,0.1-0.1,0.2-0.1,0.3c-0.3,0.4-0.6,0.9-0.8,1.3c-1.1,2.6-0.4,5.2,1,7.5
				c-0.4,1.1-0.4,2.4,0.1,3.8c1.2,3,4.8,5.5,7.9,5.7c0.3,0,0.6,0,0.9,0c-0.2,2.1,0.6,4.2,2.9,5.2c0.4,0.2,0.8,0.3,1.2,0.4
				c1.6,0.7,3.5,0.5,5.3,0c3.9-1.1,3.8-6.2,3.8-6.2c0.8-1.5,2.3-5,3.7-6.4c2.7-2.6,10.8-14.3,11.6-15.8
				C188.9,190.9,187.4,186.3,185.2,184.7z"/>
			<path class="st12" d="M187.4,207.6c-1.2-4.8-3.8-14.8-3.8-14.9c-0.2-0.7-1,0-1.1,0c-1.4,1.5-3,2.7-4.8,3.6
				c-0.9,0.4-2.6,1-2.9,2.5c-0.5,3.1,1.1,5.5-2.6,7.6c-0.1,0.1-0.2,0.2-0.2,0.3c0.2,0.8,0.4,1.7,0.6,2.5c0,0-0.8,0.2-0.9,0.2
				c-0.1-0.3-0.7-1.8-0.8-1.8c-1.4-2.8-6.2-4.8-8.1-1.3c-2.2,4.1,3.5,7.8,6.4,9.3c0.1,0,0.4,0.2,0.6,0.2c0.4,1.4,1.8,8.6,1.8,8.6
				c0,0,0.1,0.4,0.1,0.4c1.9,0.5,6.8,0.3,6.7-0.1c-0.1-0.5-0.6-3.4-0.8-4.4c4.1-0.8,8.3-2.7,10-5.6
				C189,212.6,187.9,209.8,187.4,207.6z"/>
			<path class="st13" d="M190.4,267.3c0-0.1-1.2-18.5-3.3-30.6c-2.3-8.6-6.1-12.1-13.8-13.3c-0.3,0-1.3,0.2-1.4,0.2
				c-5.8,1.4-4.9,9.2-5.3,14.1c-0.7,9.8,2,19.3,1.1,29.1c0,0,0,0,0,0c-0.4,0.3-0.6,1,0,1.3c6.4,3.4,16.1,4.1,22.5,0.4
				C190.6,268.1,190.6,267.6,190.4,267.3z"/>
		</g>
		<polygon class="st14" points="422.6,211 74.3,367 144.1,259.2 		"/>
		<g>
			<circle class="st15" cx="75.3" cy="70.6" r="61.7"/>
			<path class="st16" d="M485.1,364c-5.3-3.6-11.8-4.1-17.9-3.7c-0.6,0-3.6,0.8-4.4,0.3c-4.4-17.8-25.4-22.7-39.1-14.6
				c-1.2,0.7-3.7,2.4-3.7,2.5c-1.4-1.3-2.7-3.1-3.9-4.6c-4.9-10-8.5-20.8-18.4-27.1c-13.5-8.6-31.3-3.9-40.5,8.5
				c-4.4,5.9-6.6,12.9-7,20.2c-0.4,0.1-8.9,0.3-12.7,1.2c-15.1,3.8-19.7,19.6-19.7,33.4c0,5.1,8.9,13.7,18.6,13.7
				c48.9,2.8,98,1,146.5-5.4c5.9-0.8,11-4.5,11-11C494,373.8,490.8,367.9,485.1,364z M419.6,348.9
				C418.5,349.8,418.9,349.1,419.6,348.9L419.6,348.9z"/>
			<path class="st16" d="M110.6,446.6c0.1-9-6.4-17.8-15.3-19.9c-4.6-1.1-9.4-0.2-13.5,2c-3.8-9.5-10.8-17.6-21.5-19.6
				c-6.6-1.2-16.9,0.2-17.5,0.4c-8.6,2.4-15,10.4-17.5,18c-0.1,0.3-0.3,0.6-0.4,0.9c-4-1.2-8.4-1.3-12.2,0.1
				c-6.4,2.3-14,9.8-12.6,20.2c0,0.1,0,0.2,0,0.3c0.2,3.6,6.8,15.5,14.3,15.5c0.9,0,75.1,0.8,84.6,0
				C108.3,463.8,113.4,452.8,110.6,446.6z"/>
			<path class="st16" d="M491.8,74.2c0.4-11.1-7.6-22.1-18.5-24.6c-5.3-1.2-10.7-0.6-15.6,1.5c-0.3-2.1-2.1-19.6-4-26.1
				c-3.9-13.1-16.7-24.7-31.2-19.9c-12.7,4.2-18.4,20.2-21.2,31.9c-0.7,3-1.1,6.2-1.4,9.5c-2.7-1.7-5.8-2.9-9.1-3.4
				c-14.4-2.1-25.1,10.1-24.5,23.5c-3.8,0.5-7.6,1-11.4,1.4c-5.9,0.7-14.6,2.9-15.8,10.8c-0.7,10.1,2,19.5,12.7,19.1
				c10.4-0.5,52.5-2.1,62.7-3.1c24.6-0.6,49.1-0.5,73.7,0.6c5.9,0.3,11-5.3,11-11C499.2,79.2,496,75.8,491.8,74.2z"/>
		</g>
	</g>
</g>
<g id="DESIGNED_BY_FREEPIK">
</g>
</svg>
