<?xml version="1.0" encoding="utf-8"?>
<!-- Generator: Adobe Illustrator 23.0.1, SVG Export Plug-In . SVG Version: 6.00 Build 0)  -->
<svg version="1.1" xmlns="http://www.w3.org/2000/svg" xmlns:xlink="http://www.w3.org/1999/xlink" x="0px" y="0px"
	 viewBox="0 0 500 458.1" style="enable-background:new 0 0 500 458.1;" xml:space="preserve">
<style type="text/css">
	.st0{fill:#C3E8F3;}
	.st1{fill:#0D5691;}
	.st2{fill:#EBECF0;}
	.st3{fill:#D7D9E0;}
	.st4{fill:#E2E3E9;}
	.st5{fill:#EB6556;}
	.st6{fill:#54BEDE;}
	.st7{fill:#F7A307;}
	.st8{fill:#E95848;}
	.st9{fill:#3471A3;}
	.st10{fill:#C8CAD4;}
	.st11{fill:none;}
	.st12{fill:#FDD247;}
	.st13{fill:#FDE6BC;}
	.st14{fill:#A6755C;}
	.st15{fill:#25679C;}
	.st16{fill:#222B54;}
	.st17{fill:#E74A38;}
	.st18{fill:#FDD963;}
	.st19{fill:#FEE491;}
	.st20{fill:#B78F7B;}
	.st21{fill:#434B6E;}
	.st22{fill:#FEE184;}
	.st23{fill:#FDD44E;}
	.st24{fill:#F8AD23;}
	.st25{fill:#8E93A8;}
	.st26{fill:#B6B9C7;}
	.st27{fill:#316FA2;}
	.st28{fill:#626886;}
	.st29{fill:#384065;}
	.st30{fill:#BD9986;}
	.st31{fill:#FFFFFF;}
	.st32{fill:#F8AF28;}
	.st33{fill:#6EC8E3;}
	.st34{fill:#454D6F;}
	.st35{fill:#EC7264;}
	.st36{fill:none;stroke:#535A7A;stroke-width:1.3824;stroke-linecap:round;stroke-miterlimit:10;}
</style>
<g id="BACKGROUND">
	<path class="st0" d="M499.8,218.4c0-31.1-25.2-56.4-56.4-56.4c-1.2,0-2.4,0.1-3.6,0.1c0.8-2.9,1.3-5.9,1.3-9
		c0-14.7-9.8-27-23.3-30.9v-15.2h-0.2c0.1-1.4,0.2-2.8,0.2-4.2c0-29.1-23.6-52.6-52.6-52.6c-10.5,0-20.3,3.1-28.5,8.4
		c-4-18.1-20.2-31.7-39.5-31.7c-9.4,0-18.1,3.2-25,8.6C264.9,14.9,245.1,0,221.8,0c-26.3,0-48.2,19-52.7,44
		c-9.8-3.9-20.5-6.1-31.8-6.1c-46.1,0-83.8,36.3-86.1,81.9c-24.8,8.7-42.6,32.4-42.6,60.2c0,19.4,8.7,36.8,22.4,48.5
		c-9.5,7.8-15.6,19.6-15.6,32.8c0,6.5,1.5,12.7,4.1,18.2C8,288.8,0.5,303,0.5,319c0,23.2,15.6,42.8,36.9,48.8
		c-1.9,4.3-2.9,9.1-2.9,14c0,19.5,15.8,35.4,35.4,35.4c13.1,0,24.5-7.1,30.7-17.7h265.3c8.9,3,18.4,4.7,28.2,4.7
		c48.6,0,88-39.4,88-88c0-17.4-5.1-33.6-13.8-47.2C487,259.8,499.8,240.6,499.8,218.4z"/>
</g>
<g id="OBJECTS">
	<g>
		<g>
			<g>
				<path class="st1" d="M432.8,337.2H171.4v12.4v55.3v12.4h261.4c17.4,0,31.5-14.1,31.5-31.5v-17.1
					C464.4,351.3,450.3,337.2,432.8,337.2z"/>
				<path class="st2" d="M334.5,412H78.4v-67.7h256.1c7.7,0,14,6.3,14,14V398C348.5,405.8,342.2,412,334.5,412z"/>
				<path class="st3" d="M332.7,344.4H78.4V363h270.1v-2.9C348.5,351.4,341.4,344.4,332.7,344.4z"/>
				<path class="st1" d="M328.2,337.2H66.7v12.4h261.4c10.6,0,19.1,8.6,19.1,19.1v17.1c0,10.6-8.6,19.1-19.1,19.1H66.7v12.4h261.4
					c17.4,0,31.5-14.1,31.5-31.5v-17.1C359.7,351.3,345.6,337.2,328.2,337.2z"/>
				<rect x="95.1" y="372.7" class="st2" width="116.4" height="1.1"/>
				<rect x="157.5" y="384.4" class="st2" width="116.4" height="1.1"/>
				<rect x="91.4" y="396.5" class="st2" width="116.4" height="1.1"/>
				<rect x="248.2" y="372.7" class="st2" width="78.8" height="1.1"/>
			</g>
			<path class="st4" d="M328.2,337.2H66.7v12.4h261.4c10.6,0,19.1,8.6,19.1,19.1v17.1c0,10.6-8.6,19.1-19.1,19.1H66.7v12.4h261.4
				c17.4,0,31.5-14.1,31.5-31.5v-17.1C359.7,351.3,345.6,337.2,328.2,337.2z"/>
		</g>
		<path class="st5" d="M141.4,365.7h31.1v50.1l-14.4-11.4l-16.7,11.8C141.4,416.2,141.6,365.9,141.4,365.7z"/>
	</g>
	<g>
		<g>
			<path class="st6" d="M327.5,211.5H130.3v9.3v41.8v9.3h197.2c13.1,0,23.8-10.6,23.8-23.8v-12.9
				C351.3,222.1,340.6,211.5,327.5,211.5z"/>
			<path class="st2" d="M253.3,267.9H60.1v-51.1h193.2c5.8,0,10.6,4.7,10.6,10.6v29.9C263.9,263.2,259.1,267.9,253.3,267.9z"/>
			<path class="st3" d="M252,216.8H60.1v14.1h203.8v-2.2C263.9,222.2,258.5,216.8,252,216.8z"/>
			<path class="st6" d="M248.5,211.5H51.3v9.3h197.2c8,0,14.4,6.5,14.4,14.4v12.9c0,8-6.5,14.4-14.4,14.4H51.3v9.3h197.2
				c13.1,0,23.8-10.6,23.8-23.8v-12.9C272.3,222.1,261.7,211.5,248.5,211.5z"/>
			<rect x="72.7" y="238.3" class="st2" width="87.8" height="0.8"/>
			<rect x="119.8" y="247" class="st2" width="87.8" height="0.8"/>
			<rect x="69.9" y="256.2" class="st2" width="87.8" height="0.8"/>
			<rect x="188.2" y="238.3" class="st2" width="59.4" height="0.8"/>
		</g>
		<path class="st4" d="M248.5,211.5H51.3v9.3h197.2c8,0,14.4,6.5,14.4,14.4v12.9c0,8-6.5,14.4-14.4,14.4H51.3v9.3h197.2
			c13.1,0,23.8-10.6,23.8-23.8v-12.9C272.3,222.1,261.7,211.5,248.5,211.5z"/>
	</g>
	<g>
		<g>
			<g>
				<path class="st7" d="M340.7,148.1H134.4v9.8v43.7v9.8h206.3c13.7,0,24.9-11.1,24.9-24.9V173
					C365.6,159.2,354.5,148.1,340.7,148.1z"/>
				<path class="st2" d="M263.1,207.2H100.4v-53.4h162.8c6.1,0,11,4.9,11,11v31.3C274.2,202.2,269.2,207.2,263.1,207.2z"/>
				<path class="st3" d="M261.7,153.7H100.4v14.7h173.8v-2.3C274.2,159.3,268.6,153.7,261.7,153.7z"/>
				<path class="st7" d="M258.1,148.1h-167v9.8h167c8.3,0,15.1,6.8,15.1,15.1v13.5c0,8.3-6.8,15.1-15.1,15.1h-167v9.8h167
					c13.7,0,24.9-11.1,24.9-24.9V173C283,159.2,271.9,148.1,258.1,148.1z"/>
				<rect x="113.6" y="176.2" class="st2" width="52.5" height="0.9"/>
				<rect x="123.5" y="185.3" class="st2" width="91.9" height="0.9"/>
				<rect x="110.7" y="194.9" class="st2" width="52.5" height="0.9"/>
				<rect x="195" y="176.2" class="st2" width="62.2" height="0.9"/>
			</g>
			<path class="st4" d="M258.1,148.1h-167v9.8h167c8.3,0,15.1,6.8,15.1,15.1v13.5c0,8.3-6.8,15.1-15.1,15.1h-167v9.8h167
				c13.7,0,24.9-11.1,24.9-24.9V173C283,159.2,271.9,148.1,258.1,148.1z"/>
		</g>
		<path class="st8" d="M209.4,175.4h32.2v52.4l-14.9-11.9l-17.3,12.3C209.4,228.2,209.6,175.6,209.4,175.4z"/>
	</g>
	<g>
		<g>
			<polygon class="st9" points="160,97.5 160.2,103.2 272.7,134.5 380.2,103.1 380.2,97.5 272.7,64.3 			"/>
			<polygon class="st1" points="272.7,134.5 380.2,103.1 380.2,97.5 272.7,64.3 			"/>
			<polygon class="st1" points="160,103.2 272.7,140.1 380.2,103.2 272.7,69.9 			"/>
			<polygon class="st10" points="160,103.2 272.7,140.1 380.2,103.2 272.7,69.9 			"/>
			<path class="st1" d="M319.8,109.3c0,0-1.9-3.4-15.8-9c-19.5-7.8-46.2-7.8-65.7,0c-14,5.6-15.8,9-15.8,9s-3.4,12.7-3.1,23.6
				c0.3,10.9,0.9,15.2,0.9,15.2s15.5,0.6,30.7,5.6c10,3.3,19.1,9.1,20.1,9.7c0,0,0,0.1,0,0.1s0,0,0,0c0,0,0,0,0,0s0,0,0-0.1
				c1-0.6,10.1-6.4,20.1-9.7c15.2-5,30.7-5.6,30.7-5.6s0.6-4.3,0.9-15.2C323.4,118.6,319.8,109.3,319.8,109.3z"/>
		</g>
		<g>
			<path class="st11" d="M195.8,82.9c-3,0.2-4.6,2.8-5.5,5.7l10.6-3.1C199.8,83.8,197.9,82.8,195.8,82.9z"/>
			<path class="st12" d="M195.6,80.7c-3.8,0.3-6.6,3.3-7.8,8.7c-0.1,0.5-0.2,1.1-0.3,1.7c-1.1,6.7-1.1,13.5-1,19.5c0,0,0,0,0,0
				c0,4.7,0.2,9,0.5,13.2l2.2-0.2c-0.3-3.9-0.5-8-0.5-12.4c0-0.2,0-0.4,0-0.6c0-5.9-0.1-12.6,1-19.1c0.1-0.9,0.4-1.9,0.6-2.8
				c0.9-2.9,2.5-5.5,5.5-5.7c2.1-0.2,4,0.9,5.1,2.5l2.3-0.7C201.7,82.2,198.8,80.5,195.6,80.7z"/>
		</g>
		<g>
			<path class="st12" d="M196,146.6c-1.2-10.9-4.9-18.9-4.9-18.9l-2.3-0.1v-0.1l-0.8,0l-0.8,0v0.1l-2.3,0.1c0,0-3.7,7.9-4.9,18.9
				c-1.2,10.9-0.5,19.1-0.5,19.1h7.7h1.6h7.7C196.4,165.7,197.1,157.5,196,146.6z"/>
			<path class="st12" d="M194.5,126c0,3.1-2.9,5.6-6.5,5.6c-3.6,0-6.5-2.5-6.5-5.6c0-3.1,2.9-5.6,6.5-5.6
				C191.5,120.4,194.5,122.9,194.5,126z"/>
			<path class="st13" d="M190,120.7c0.8,0.9,1.3,2.1,1.3,3.4c0,3.1-2.9,5.6-6.5,5.6c-0.7,0-1.4-0.1-2.1-0.3c1.2,1.4,3.1,2.3,5.2,2.3
				c3.6,0,6.5-2.5,6.5-5.6C194.5,123.6,192.6,121.5,190,120.7z"/>
			<path class="st13" d="M191.9,129.7c-0.2-0.1-0.3-0.2-0.5-0.3c2.2,8,3.3,16.3,3.2,24.6c0,3,0.5,7.1-1.5,7.7
				c-0.5,0.2-1.8-1.3-1.8-2.8c-0.1-2.5-0.2-5-0.4-7.4c0,2.6-0.3,5.3-0.8,7.9c-0.2,0.7-0.3,1.5-0.7,2.1c-0.4,0.6-1.1,1.1-1.9,1
				c-0.7-0.1-1.3-0.7-1.6-1.3c-0.3-0.7-0.3-1.4-0.4-2.1c-0.3-3.9-0.5-7.8-0.8-11.7c-0.1,4-0.4,8-0.9,12c-0.2,1.6-0.6,3.4-2.3,4
				c-0.9,0.3-1.6,0.1-2.2-0.1c0.1,1.6,0.1,2.5,0.1,2.5h7.7h1.6h7.7c0,0,0.7-8.2-0.5-19.1C195.1,138.9,193.1,132.7,191.9,129.7z"/>
		</g>
	</g>
	<g>
		<g>
			<path class="st14" d="M94,197.1c-0.2,2.7-0.7,5.4-1.3,8.1c2,0.2,3.9,0.2,5.9-0.1c0.3,0,0.6-0.1,0.8-0.2c0.3-0.2,0.5-0.6,0.6-1
				c0.7-2.1,1.1-4.3,1.2-6.5C98.8,197.7,96.3,197.6,94,197.1"/>
		</g>
		<g>
			<path class="st14" d="M121.7,196.8c0.8,2.1,1.4,4.2,1.8,6.4c2.1-0.7,4.2-1.4,6.3-2.1c0.1,0,0.2-0.1,0.2-0.1c0.1-0.1,0-0.3,0-0.4
				c-0.6-2-1.3-3.9-2-5.9c0-0.1-0.1-0.1-0.1-0.2c-0.1,0-0.1,0-0.2,0C125.6,195,123.6,195.7,121.7,196.8"/>
		</g>
		<path class="st1" d="M123.7,132c-0.5,0.2-26.3,16.3-27.9,22.1c-1.6,5.8-4.7,44.7-4.7,44.7s3.7,1.5,6.8,1.5c3.1,0,4.2,0,4.2,0
			s4.7-26.3,6.1-32.3c1.5-6,3.7-9,5.7-11.1c1.9-2.1,27.8-18.9,27.8-18.9l2.4-6.9L123.7,132z"/>
		<path class="st15" d="M132.9,131.2c0,0-13.9,9.1-20.4,17.4c-6.5,8.2-4.8,8.3-3.7,13.5c1.1,5.2,11.8,37.6,11.8,37.6
			s3.1,0.2,5.8-0.6c2.7-0.8,3.4-1.6,3.4-1.6s-2.1-17.9-2.9-24.7c-0.8-6.8-2.3-13.9-2.3-13.9s16.2-4.6,22.8-10.4
			c6.6-5.8,1.4-17.1,1.4-17.1L132.9,131.2z"/>
		<path class="st16" d="M130,199.6c0,0,1.8,3.5,1.6,4.9c-0.2,1.5-7.7,5.9-10.1,6.4c-2.4,0.5-7.8,1-8.4-0.4c-0.6-1.4,4.8-4.1,6.3-5.5
			c1.5-1.4,3.5-3.4,3.5-3.4s1.6,0.8,4,0.2C129.3,201.4,130,199.6,130,199.6z"/>
		<path class="st16" d="M92.5,202.9c0,0,0.7,1.2,3.1,1.3c3.3,0.2,4.8-0.9,4.8-0.9s0.2,4.5-1,5.5c-1.2,0.9-7.9,2.9-15.8,2.7
			c-5-0.1-4.3-1.3-3.3-2.1C81.4,208.4,92.5,202.9,92.5,202.9z"/>
		<path class="st17" d="M152.4,94.7c0,0-3.6-4.9-7.7-6.9c-4.1-2-7.3-3.1-7.3-3.1s-8.2,2.1-10.5,3.1c-2.3,1-9,4.5-10.6,6.4
			c-1.6,1.9-2.9,4.3-1.9,10.8s5.4,17,6.3,20.6c0.9,3.6,0.8,7.1,0.8,7.1s8.2-0.1,15.7,0.1c7.6,0.2,14,2,14,2s-1.2-17.3-0.3-23.2
			C151.7,105.8,152.4,94.7,152.4,94.7z"/>
		<polygon class="st18" points="112.8,100 116.9,130.8 138.9,122.7 134.7,92.3 		"/>
		<g>
			<path class="st14" d="M123.7,59c-2.1,1.7-3.3,4.3-3.7,6.9c-0.4,2.6,0,5.3,0.5,7.9c0.5,2.2,1.1,4.5,2.4,6.3
				c1.3,1.8,3.5,3.2,5.8,3.1c2-0.1,3.8-1.3,5.1-2.8c3.2-3.4,4.6-8.4,4.1-13c-0.1-0.9-0.2-1.8-0.5-2.6c-0.7-1.9-2.1-3.4-3.8-4.4
				c-1.7-1-3.6-1.6-5.6-1.8c-1.8-0.2-3.7-0.1-5.3,0.8"/>
		</g>
		<g>
			<path class="st14" d="M128.4,81.7c0.3,1.3,0.7,2.6,1,3.8c0.1,0.2,0.1,0.4,0.1,0.6c0,0.3-0.2,0.5-0.4,0.7c-0.4,0.4-0.7,0.9-1,1.4
				c-0.5,0.9-0.8,2.3,0,2.9c0.3,0.2,0.6,0.3,0.9,0.4c1.9,0.4,3.9-0.1,5.6-1.1c1.7-1,3-2.5,4.1-4.1c0.1-0.2,0.2-0.4,0.3-0.6
				c0-0.3-0.1-0.5-0.2-0.7c-1.3-2.7-2.4-5.5-3.3-8.4c-2.6,1.2-4.9,3-6.8,5.1"/>
		</g>
		<g>
			<path class="st16" d="M119,61.7c-0.1,0.5-0.1,1.1,0.2,1.6c0.2,0.3,0.4,0.5,0.7,0.7c1.3,0.9,3,1,4.5,1c3.5,0,7-0.3,10.5-1
				c-0.5,4.4,1.1,7.9,2.5,11c1.9-2.9,4.2-4.9,4.4-8.3c0.1-0.8,0-1.7-0.4-2.4c-0.5-0.8-1-1-1.8-1.1c0.3,0,0.3-1.9,0.2-2.1
				c-0.5-2.8-3.2-3.2-5.1-1.4c0.1-2.2-1.7-4.1-3.8-4.8c-2.1-0.6-4.4-0.1-6.3,1C122.4,57.1,119.4,59.1,119,61.7z"/>
		</g>
		<g>
			<path class="st14" d="M138.7,70.6c0-0.1,0-0.1,0-0.2c-0.2-0.8-0.8-1.4-1.6-1.3c-0.6,0.1-1.1,0.4-1.5,0.8
				c-0.4,0.4-0.8,0.8-1.2,1.2l0.4,0.8c0.2,0.5,0.6,1.1,1.1,1.2c0.3,0.1,0.5,0,0.8,0C137.7,72.8,138.8,71.8,138.7,70.6z"/>
		</g>
		<g>
			<path class="st14" d="M130.9,120.4c-4.1-0.3-8.2-0.8-12.2-1.5c-1-0.2-2.2-0.5-2.6-1.5c-0.3-0.8,0.2-1.7,0.8-2.1
				c0.7-0.5,1.5-0.7,2.3-0.8c1.8-0.3,3.6-0.3,5.5-0.1c-0.5-0.6-1-1.1-1.6-1.7c-0.1-0.2-0.3-0.3-0.3-0.6c0-0.3,0.3-0.5,0.5-0.5
				c0.3,0,0.5,0,0.8,0.1c2.2,0.9,3.7,3.1,6,4c0.4,0.1,0.8,0.3,0.9,0.6c0.1,0.2,0.1,0.5,0.1,0.7c-0.1,1.2-0.2,2.5-0.3,3.7"/>
		</g>
		<path class="st5" d="M149.5,92.6c-5.4-0.6-5.1,7.9-5.2,12.2c-0.1,4.3,2.2,11.4,2.1,13.5c-0.7,0-17.2-3.7-17.2-3.7
			s-1.4,6.9-0.8,7.3c0.6,0.5,19.6,9.2,23,7.6c3.4-1.6,4.9-8.3,5.5-12.1C158.1,109.1,154.9,93.2,149.5,92.6z"/>
		<polygon class="st19" points="112.8,100 100.1,92.3 104.9,124.4 116.9,130.8 		"/>
		<g>
			<path class="st14" d="M104.7,116.3c-0.4,0.2-0.8,0.4-1.3,0.4c-0.1,0-0.2,0-0.3,0c-0.1,0-0.2-0.1-0.2-0.2
				c-0.8-1.3-1.3-2.8-1.4-4.3c0-1.2,0.2-2.5,1.1-3.3c0.5,0.5,0.1,1.3,0.2,2c0,0.1,0,0.1,0.1,0.2c0.1,0.1,0.1,0.1,0.2,0.1
				c0.6,0,1-0.4,1.5-0.7c0.5-0.3,1.1-0.5,1.6-0.2c0.1,0.1,0.2,0.2,0.3,0.4c0.6,1,0.9,2.3,0.6,3.4c-0.1,0.4-0.2,0.8-0.5,1.1
				c-0.2,0.2-0.4,0.3-0.7,0.4c-0.6,0.3-1.1,0.6-1.7,0.9"/>
		</g>
	</g>
	<g>
		<g>
			<g>
				<g>
					<path class="st17" d="M114,271.7h215.5v10.2v45.6v10.2H114c-14.3,0-26-11.6-26-26v-14.1C88,283.3,99.6,271.7,114,271.7z"/>
					<path class="st2" d="M195,333.4h211.1v-55.8H195c-6.4,0-11.5,5.2-11.5,11.5v32.7C183.5,328.2,188.7,333.4,195,333.4z"/>
					<path class="st3" d="M196.5,277.6h209.6v15.4H183.5v-2.4C183.5,283.4,189.3,277.6,196.5,277.6z"/>
					<path class="st17" d="M200.3,271.7h215.5v10.2H200.3c-8.7,0-15.8,7.1-15.8,15.8v14.1c0,8.7,7.1,15.8,15.8,15.8h215.5v10.2
						H200.3c-14.3,0-26-11.6-26-26v-14.1C174.3,283.3,185.9,271.7,200.3,271.7z"/>
					
						<rect x="296.4" y="301" transform="matrix(-1 -1.224647e-16 1.224647e-16 -1 688.6709 602.8873)" class="st2" width="96" height="0.9"/>
					
						<rect x="244.9" y="310.6" transform="matrix(-1 -1.224647e-16 1.224647e-16 -1 585.7996 622.0798)" class="st2" width="96" height="0.9"/>
					
						<rect x="299.4" y="320.6" transform="matrix(-1 -1.224647e-16 1.224647e-16 -1 694.8125 642.0399)" class="st2" width="96" height="0.9"/>
					
						<rect x="201.2" y="301" transform="matrix(-1 -1.224647e-16 1.224647e-16 -1 467.3183 602.8873)" class="st2" width="64.9" height="0.9"/>
				</g>
			</g>
			<path class="st4" d="M200.3,271.7h215.5v10.2H200.3c-8.7,0-15.8,7.1-15.8,15.8v14.1c0,8.7,7.1,15.8,15.8,15.8h215.5v10.2H200.3
				c-14.3,0-26-11.6-26-26v-14.1C174.3,283.3,185.9,271.7,200.3,271.7z"/>
		</g>
		<path class="st6" d="M361.8,301.1h28.3v50.1L377,339.9l-15.2,11.8C361.8,351.7,362,301.3,361.8,301.1z"/>
	</g>
	<g>
		<g>
			<path class="st20" d="M410.8,244.8c2.2,0.1,4.2,1.4,6.4,2c1.3,0.3,2.8,0.4,4,1.1c0.4,0.2,0.8,0.6,0.6,1c-0.1,0.1-0.2,0.2-0.3,0.3
				c-0.9,0.6-2,0.8-3,0.7c-1.1,0-2.1-0.3-3.1-0.5c-1.2-0.3-2.5-0.6-3.6-1.1c-0.4-0.2-0.7-0.4-0.9-0.7c-0.3-0.4-0.3-1-0.2-1.5
				c0.1-0.5,0.4-1,0.7-1.4"/>
		</g>
		<g>
			<path class="st20" d="M423.7,307.2c0,1.2,0,2.4,0.2,3.7c0.1,0.6,0.2,1.1,0.4,1.6c0.3,0.5,0.7,0.9,1.1,1.3c1.9,1.6,3.9,3.1,6,4.4
				c0.7,0.4,1.5,0.9,2.3,1.2c0.1,0,0.3,0.1,0.4,0c0.3-0.1,0.2-0.5,0.1-0.8c-1.5-3.8-4.7-7.1-4.9-11.1c0-0.3,0-0.7-0.2-1
				c-0.3-0.4-0.9-0.4-1.4-0.4c-1.4,0.1-2.9,0.1-4,0.9"/>
		</g>
		<g>
			<path class="st20" d="M449,305.4c1.1,2.7,2.4,5.3,4,7.8c0.1,0.2,0.3,0.5,0.5,0.6c0.2,0.1,0.5,0.1,0.7,0.1
				c2.4-0.1,4.9-0.7,7.1-1.6c1.4-0.6,2.9-1.4,3.7-2.8c0.2-0.4,0.4-0.9,0-1.2c-0.1-0.1-0.3-0.1-0.5-0.1c-1.4-0.2-2.9,0-4.3,0
				c-1.4,0-3-0.4-3.9-1.5c-0.9-1-1.2-2.4-2-3.6c-1.9,0.8-3.8,1.6-5.7,2.3"/>
		</g>
		<path class="st16" d="M384.4,248.9c0,0,46.8,0.2,52.4,4.2c5.6,4,20.7,51,20.7,51l-9.8,4.2c0,0-13.7-28.9-18.4-36.8
			c-4.7-7.9-19.1-6.5-24-6.8c-4.9-0.2-21.7-0.5-21.7-0.5L384.4,248.9z"/>
		<path class="st21" d="M379.1,250.3c0,0,39.9,0,45.8,3c5.8,3,7.5,12.3,7.7,21.7c0.2,9.3-0.5,34.2-0.5,34.2h-8.4
			c0,0-4.7-24.9-6.1-31.2c-1.4-6.3-1.4-8.2-1.4-8.2s-29.8,6.3-39.1,4c-9.3-2.3-13.7-8.6-13.7-16.1c0-7.5,5.1-9.8,5.1-9.8
			L379.1,250.3z"/>
		<g>
			<path class="st16" d="M388.9,168.9c-2.3-1.7-5.7-1.4-8.1,0.2c-2.4,1.6-3.8,4.4-4.3,7.2c-0.3,1.8-0.3,3.8-1,5.5
				c-1.2,3.3-4.3,5.5-6.7,8.2c-2.7,3.1-4.4,7.3-3.7,11.3c0.7,4.3,3.8,7.8,7.2,10.4c4.5,3.5,9.9,6,15.6,6.3c3.3,0.2,6.7-0.4,9.3-2.4
				c2.6-2,4.1-5.6,3-8.6c-0.7-2-2.4-3.5-3.3-5.4c-1.2-2.5-1-5.6-0.3-8.3c0.8-2.7,2-5.3,2.9-8c0.7-2.2,1.1-4.4,1.3-6.6
				c0.2-2.2,0-4.6-1.3-6.5c-1.1-1.6-3-2.5-5-2.9c-1.9-0.4-3.9-0.3-5.9-0.2"/>
		</g>
		<path class="st22" d="M392.3,202.8c0,0,3.7,4.3,4.2,10.8c0.4,6.5,0.5,13.9,5,21c4.5,7.1,10.9,9.9,11.5,10.4c0.6,0.5-3,2.5-3,2.5
			s-6.1-0.6-9.8-2.5c-3.7-1.9-7.2-1.6-8.4-7.1c-1.2-5.6-0.7-29.3-0.7-29.3L392.3,202.8z"/>
		<g>
			<path class="st20" d="M396.8,241.7c5.6,1.2,11,3.6,15.7,7c0.1,0.1,0.2,0.2,0.2,0.3c0,0.2-0.2,0.3-0.4,0.4c-0.9,0.4-2,0.4-3,0.4
				c-1.6,0-3.3,0-4.8-0.4c-1.9-0.4-3.6-1.2-5.4-2c-1.1-0.5-2.3-1.1-3-2.1c-0.7-1-0.6-2.7,0.6-3.2"/>
		</g>
		<path class="st23" d="M378.5,198l2.7,0.1c0,0,6.8,1.3,8.2,2.8c1.4,1.5,3.8,7.7,4.8,13.5c0.9,5.8-0.3,28.4-0.7,30.2
			c-0.3,1.7-1.2,4.4-1.2,4.4s-14.6,3.3-15.6,2.9c-1-0.3,2.3-24.9,2.4-32.8C379.2,211.1,378.5,198.6,378.5,198z"/>
		<path class="st24" d="M388.4,199.8c0,0,4.3,5.2,4.9,17.7c0.4,7.9-1.7,22.6-1.7,24.9c0,2.3-0.6,6.3-0.6,6.3l4.9,0.1
			c0,0,2.8-22,2.2-29.2s-2-13.4-4.3-16.1S388.4,199.8,388.4,199.8z"/>
		<g>
			<path class="st20" d="M386.7,171.4c-1.2,2.6-2.4,5.2-3.2,7.9c-0.8,2.8-1,5.7-0.3,8.5c0.7,2.8,2.4,5.4,5,6.7
				c2.5,1.3,5.9,1.1,8-0.7c1.1-1,1.8-2.3,2.5-3.6c1.9-4,3.1-8.5,2-12.7c-0.3-1.3-0.9-2.6-1.9-3.5c-0.7-0.7-1.5-1.1-2.4-1.5
				c-3.1-1.4-6.7-1.7-10-0.7"/>
		</g>
		<g>
			<path class="st20" d="M391.6,194c-0.6,1-3.2,4.2-3.2,5c0.5,0.9,0.8,2,1.1,2.6c0.4,1,0.8,2.1,0.5,3.2c-0.3,1-1.6,1.3-2.7,1.1
				c-0.4-0.1-0.7-0.3-1.1-0.5c-2.3-1.5-4.3-3.6-5.9-5.9c-0.2-0.2-0.3-0.5-0.3-0.7c0-0.3,0.1-0.6,0.3-0.8c1.6-3,3.7-6.8,3.6-10.2
				c2.6,1.5,5.6,4.1,7.8,6"/>
		</g>
		<g>
			<path class="st16" d="M388.1,169c0.5,2.1,0.4,4.2-0.1,6.3c-0.4,1.4-1,2.8-2,4s-2.4,1.9-3.9,2c0.2-1.5,0.3-3,0.5-4.5
				c0.1-0.6,0.1-1.2,0.3-1.8C383.5,172.2,385.6,170,388.1,169"/>
		</g>
		<g>
			<path class="st16" d="M387.8,168.9c-0.3,1.6,1,3.2,2,4.4c1.5,1.9,3.1,2.9,5.2,4.1c1.5,0.9,3.1,1.6,4.3,2.7s2.1,3,1.5,4.6
				c1-3.9,2-8.2,0.3-11.8c-1.1-2.4-3.3-4.1-5.8-4.9c-2.5-0.7-5.1-0.4-7.5,0.7"/>
		</g>
		<g>
			<path class="st20" d="M385.4,181.1c-0.2-0.1-0.4-0.3-0.6-0.4c-0.2-0.1-0.4-0.3-0.6-0.4c-1-0.8-2.6-1.8-3.5-0.3
				c-0.6,1,0,2.4,1,2.9c1.2,0.7,2.8,0.5,3.9-0.4"/>
		</g>
		<path class="st24" d="M368.9,201.4c0,0,2.2-2.1,5.1-3.1c2.9-1,5.5-1.2,5.5-1.2s4.1,7.9,4.3,17.1c0.2,9.2-4,45.2-4,45.2
			s-7.9,0.2-12.6-0.3c-4.7-0.6-6.2-0.8-6.2-0.8s3.4-10.2,4.3-16.9c0.9-6.6,3.6-27.5,3.6-31.6C369,205.7,368.9,201.4,368.9,201.4z"/>
		<path class="st22" d="M398.6,239.6c0,0-1.2,2.2-1.2,4.3c0,2.2,0.2,4.5,0.2,4.5s-11.7-0.1-23.9-2.5c-9.5-1.9-9.6-1.6-10.7-6.4
			c-1.1-4.8,0.6-25.2,2-31.2c1.4-6.1,4-7.3,5.4-7.1c1.4,0.2,5.1,2.6,5.3,11c0.2,8.4-2.5,24.2-2.5,24.2s10.9,0.9,16.5,1.6
			C395.2,238.7,398.6,239.6,398.6,239.6z"/>
		<path class="st1" d="M423.9,310.9c0,0-0.4,0.7-0.7,2.7c-0.3,1.9,0.5,2.6,0.5,2.6s12.4,10.2,14.4,9c2-1.2-1.3-5.1-2.5-6.2
			c-1.2-1.1-1.9-1.9-1.9-1.9s-2.9-0.8-6.1-2.8C425,312.5,423.9,310.9,423.9,310.9z"/>
		<path class="st1" d="M451.8,311.8c0,0,1,5.2,4.3,4.8c3.3-0.4,11.6-4.6,13.2-5.9c1.6-1.3,2.3-2.3,1-2.9c-1.3-0.7-6.2-0.2-6.2-0.2
			s-1.9,1.9-5.7,3.2C455,312,451.8,311.8,451.8,311.8z"/>
		<g>
			<rect x="397.6" y="249.3" class="st25" width="21.3" height="1.9"/>
			<polygon class="st25" points="418.1,249.9 428.6,230.9 431.1,230.9 420.2,251.2 416.3,251.2 			"/>
			<polygon class="st26" points="431.1,230.9 450.5,232 439.9,251.6 419.7,251.2 			"/>
		</g>
	</g>
	<g>
		<g>
			<path class="st16" d="M209.2,268.6c-0.2-2.5,1.3-4.7,2.2-7c1.5-3.6,1.5-8.1-0.6-11.4c-4.1-6.4-10-8.9-16.3-8.4
				c-6.5,0.5-11.3,6.7-12.5,12.7c-0.6,2.8-0.7,5.7,0.3,8.4c0.6,1.7,1.7,3.3,2,5.1c0.4,2.8-1.2,5.4-2.5,8c-1.3,2.5-2.2,5.7-0.7,8.1
				c1,1.6,2.9,2.3,4.7,2.9c3.4,1,6.8,1.7,10.3,1.8c4.3,0.2,8.9-0.3,12.1-3.1c3.3-2.8,4.5-7.8,2.9-11.9
				C210.5,272,209.4,270.4,209.2,268.6z"/>
		</g>
		<g>
			<path class="st7" d="M200.5,276.5c0,0,15.5,0,19.4,6.4c3.9,6.4,6.4,17.1,5.3,23.8c-1.1,6.7-5.6,9.9-9.9,12.1
				c-4.3,2.2-8.5,2.8-8.5,2.8l0.9-9.9c0,0,5.6-4.4,7-6.4c2-2.8,0.6-8.2-0.5-10.7c-1.7-4-6.5-6.7-6.5-6.7L200.5,276.5z"/>
			<path class="st7" d="M192.8,276.5c0,0-15.5,0-19.4,6.4c-3.9,6.4-6.4,17.1-5.3,23.8c1.1,6.7,5.6,9.9,9.9,12.1
				c4.3,2.2,8.5,2.8,8.5,2.8l-0.9-9.9c0,0-5.6-4.4-7-6.4c-2-2.8-0.6-8.2,0.5-10.7c1.7-4,6.5-6.7,6.5-6.7L192.8,276.5z"/>
		</g>
		<g>
			<path class="st14" d="M187.2,249.8c-1.1,3.4-0.8,7.2-0.2,10.7c0.4,2.8,1,5.6,2.6,8c1.5,2.4,4.1,4.3,6.9,4.3
				c3.9,0,6.9-3.6,8.5-7.2c1.8-4.1,2.5-8.7,2.1-13.2c-0.1-1.3-0.4-2.7-1.3-3.6c-0.8-0.8-1.9-1.2-3.1-1.4c-5.3-1.2-11.1-0.1-15.7,2.8
				"/>
		</g>
		<g>
			<path class="st14" d="M191.9,268.4c0.2,1.9,0.3,3.8,0.1,5.7c-0.2,1.9-0.9,3.8-2.1,5.2c-0.2,0.2-0.4,0.4-0.4,0.7
				c-0.1,0.4,0.3,0.8,0.7,1c3.9,2.6,9.6,2.2,13.1-1c0.2-0.2,0.4-0.4,0.4-0.6c0.1-0.4-0.3-0.8-0.6-1.1c-1.1-1.1-1.4-2.8-1.6-4.3
				c-0.2-1.7-0.4-3.4-0.4-5.1c-2.7,0.6-5.5,0.8-8.2,0.6"/>
		</g>
		<g>
			<path class="st16" d="M184.6,258.2c3.4,2.2,8,2,11.6,0c3.5-2,6-5.5,7.4-9.3c-0.1,4.6,1.4,9.2,4.3,12.8c0.3-1.5,0.5-3,0.6-4.6
				c0.1-1.6,0.2-3.3-0.2-4.9c-0.3-1.6-1.1-3.1-2.3-4.2c-1.9-1.7-4.7-2-7.2-2c-2.8-0.1-5.6,0.1-8.2,1.1c-1,0.4-1.9,0.9-2.7,1.6
				c-0.6,0.5-1.2,1-1.6,1.7c-0.4,0.6-0.7,1.4-0.9,2.1c-0.5,1.9-0.7,3.8-0.6,5.7"/>
		</g>
		<path class="st12" d="M212.9,289.6c-1.4-3.4-9.1-12.5-9.1-12.5s-0.5,4-7,4.4c-0.1,0-0.1,0-0.2,0c-0.1,0-0.1,0-0.2,0
			c-6.5-0.3-6.6-4.5-6.6-4.5s-8,9.3-9.4,12.7c-1.4,3.4,2.6,30,2.6,30l13,0.8l0,0.1l0.7,0l0.7,0l0-0.1l13-0.8
			C210.3,319.6,214.3,293,212.9,289.6z"/>
		<path class="st26" d="M214.8,324.2h-36.3v-19.7c0-1.7,1.3-3,3-3h30.3c1.7,0,3,1.3,3,3V324.2z"/>
		<path class="st16" d="M176.8,332.6c0,0-3.5-0.3-4,2.4c-0.5,2.7,2.1,3.8,2.9,3.8c0.9,0,2.6-0.1,2.6-0.1s-0.1,1.4-2.9,1.7
			c-2.8,0.3-6.7,0.7-9.1,0.9c-2.4,0.2-6.4-1.3-7.2-4.1c-0.8-2.9,1.7-4.7,4.6-4.5C167.4,332.8,176.8,332.6,176.8,332.6z"/>
		<g>
			<g>
				<path class="st14" d="M208.9,330.3c3.1,1.4,6.6,2.2,10,2.2c1,0,2,0,3,0.3c1,0.3,1.9,0.9,2.2,1.8c0.5,1.4-0.6,2.9-1.9,3.5
					s-2.9,0.5-4.3,0.4c-3.5-0.3-7.2-0.6-10.2-2.4c-0.2-0.1-0.3-0.2-0.4-0.4c-0.2-0.3,0-0.6,0.1-0.9
					C207.8,333.3,208.4,331.8,208.9,330.3"/>
			</g>
			<g>
				<path class="st14" d="M184.3,330.3c-3.1,1.4-6.6,2.2-10,2.2c-1,0-2,0-3,0.3c-1,0.3-1.9,0.9-2.2,1.8c-0.5,1.4,0.6,2.9,1.9,3.5
					s2.9,0.5,4.3,0.4c3.5-0.3,7.2-0.6,10.2-2.4c0.2-0.1,0.3-0.2,0.4-0.4c0.2-0.3,0-0.6-0.1-0.9C185.4,333.3,184.8,331.8,184.3,330.3
					"/>
			</g>
			<path class="st1" d="M225.1,314.9c8-0.7,12,0.2,12.2,4.7c0.3,6.9-8.7,9.7-26.4,12.7c-17.7,2.9-29.3,5.9-29.3,5.9l-1.5-7.1
				C180.2,331.1,217.2,315.6,225.1,314.9z"/>
			<path class="st27" d="M168.1,314.9c-8-0.7-12,0.2-12.2,4.7c-0.3,6.9,8.7,9.7,26.4,12.7c17.7,2.9,29.3,5.9,29.3,5.9l1.5-7.1
				C213,331.1,176.1,315.6,168.1,314.9z"/>
		</g>
		<path class="st16" d="M218.1,332.6c0,0,3.5-0.3,4,2.4c0.5,2.7-2.1,3.8-2.9,3.8c-0.9,0-2.6-0.1-2.6-0.1s0.1,1.4,2.9,1.7
			c2.8,0.3,6.7,0.7,9.1,0.9c2.4,0.2,6.4-1.3,7.2-4.1c0.8-2.9-1.7-4.7-4.6-4.5C227.5,332.8,218.1,332.6,218.1,332.6z"/>
	</g>
	<g>
		<path class="st28" d="M90.2,443.3c0,0-1.5,6.8,0.2,8.3s16.5,1.1,19.6,0.8c3.2-0.3,4.5-0.3,3.9-1.7c-0.6-1.4-15.3-6.5-16-7.9
			c-0.8-1.4-1.4-2.9-1.4-2.9L90.2,443.3z"/>
		<path class="st28" d="M46.3,441.2c0,0-5,9.7-4.5,11.8c0.5,2.1,10.1,3.2,13.3,2.7c3.2-0.5,3.9-0.5,2.4-3.3
			c-1.5-2.9-5.3-6.8-5.3-9.1c0-2.3,0.6-3.3,0.6-3.3L46.3,441.2z"/>
		<path class="st16" d="M83.4,339.6c0,0,7.5,40.9,10.9,64.3c3.4,23.4,5,39.3,5,39.3l-11.1,1.6c0,0-12.3-54.1-17-68.4
			c-4.8-14.3-5.7-19.8-5.7-19.8l1.4-20.4L83.4,339.6z"/>
		<path class="st29" d="M71.6,341.2c0,0-0.9,42.5-8.2,68.8c-7.3,26.3-10.7,33.6-10.7,33.6l-8.6-0.9c0,0,5-58.4,5.7-77.2
			c0.7-18.9,0-25,0-25L71.6,341.2z"/>
		<path class="st5" d="M60.7,275.8c0,0-7.5-3.5-17.3,2.5c-8.4,5.2-10.3,14.3-11.4,24.8c-1,10.6,1.2,24.1,5.6,29.2
			c4.4,5.1,12.2,4.3,14.6,3.5c2.5-0.8,9.1-21.2,10.4-31.7C64.1,293.7,60.7,275.8,60.7,275.8z"/>
		<path class="st6" d="M41.4,283.9c0,0,4.2-6.4,10.8-8.9c6.5-2.6,17.3-1.4,19.2-0.5c2,0.9,4.2,3.2,6.2,10.1c1.6,5.8,7.3,38,7.6,48.6
			c0.3,10.6-0.2,10.9-0.2,10.9s-12.9,1.4-23.6,1.1c-10.8-0.3-14.4-1.1-14.4-1.1s2.1-36.3,1.2-45.6C47.3,289.3,41.4,283.9,41.4,283.9
			z"/>
		<g>
			<path class="st30" d="M59,260.4c-0.8,4.4-1.6,8.8-2.4,13.2c-0.1,0.4-0.1,0.7-0.1,1.1c0.1,0.4,0.3,0.7,0.6,1.1
				c2.7,3.3,6.3,5.8,10.2,7.2c1.1,0.4,2.5,0.7,3.5,0.1c1.2-0.8,1.3-2.5,0.9-3.8c-0.6-2-2.1-3.6-3-5.5c-0.9-1.9-1.2-4.2-0.8-6.3
				c0.1-0.8,0.4-1.6,0.1-2.4c-0.2-0.7-0.7-1.2-1.3-1.7c-1-0.9-2-1.9-3.3-2.5c-1.2-0.6-2.7-0.8-4-0.3"/>
		</g>
		<g>
			<path class="st16" d="M71.4,243.2c0.7-1.1,1.3-2.3,1.3-3.6c0.1-1.3-0.4-2.7-1.4-3.4c-0.8-0.5-1.7-0.7-2.7-0.7
				c-2.6,0.2-4.9,2.1-5.6,4.6c-0.8-1.2-2.3-2-3.8-2.1c-1.5-0.1-3,0.6-3.9,1.8c-1.6,2-1.3,4.9-0.9,7.5c-2.5-0.4-5.3,1.1-6.2,3.5
				c-0.7,1.8-0.3,4,1,5.6c1,1.3,0.9,0.8,0.3,2.2c-0.4,1-0.4,2.1,0,3.2c0.5,1.2,1.3,2.3,2.5,2.8c1.2,0.5,2.6,0.5,3.7-0.2
				c0.6-0.4,1-1,1.4-1.6c1.4-2.3,1.5-5.3,0.5-7.8"/>
		</g>
		<g>
			<g>
				<path class="st14" d="M56.9,259.7C56.9,259.7,56.9,259.7,56.9,259.7C56.9,259.7,56.9,259.7,56.9,259.7L56.9,259.7z"/>
			</g>
			<g>
				<path class="st30" d="M76.6,246.8c-0.1-0.4-0.3-0.9-0.7-1.2c-0.3-0.2-0.7-0.2-1.1-0.2c-1.6,0-3.2,0-4.8,0c-2.6,0-5.4,0-7.7,1.3
					c-2.3,1.3-3.8,3.7-4.5,6.3c-0.7,2.5-1,4.1-1,6.7c0.7,3.4,1.9,6.8,4.4,9.2c2.5,2.5,6.3,3.8,9.5,2.5c3.6-1.4,5.5-5.4,6.3-9.2
					C78.2,257.2,78,251.8,76.6,246.8z"/>
			</g>
		</g>
		<g>
			<path class="st30" d="M60.1,257.2c-0.2-0.4-0.5-0.8-0.9-1.2c-1.1-1-3.2-2-4.6-1c-0.8,0.6-1.3,1.7-1.2,2.7
				c0.1,1.8,2.1,2.4,3.6,2.3c0.4,0,3.9-0.7,3.7-1.3C60.5,258.2,60.3,257.7,60.1,257.2z"/>
		</g>
		<g>
			<path class="st16" d="M57.6,256.7c-1.3-2.3-1.7-4.8-0.9-6.5c0.8-1.7,3.1-3.6,4.8-4.3c0.1-0.1,0.2-0.3,0.3-0.3
				c0.2,0,0.4,0.2,0.5,0.4c0.8,2-0.3,4-1.1,6C59.6,255.6,57.6,256.7,57.6,256.7z"/>
		</g>
		<g>
			<path class="st16" d="M61.5,247.2c2.1,1.4,4.6,1.9,7.1,1.7c2.5-0.1,4.9-0.9,7.2-1.9c1.1-0.5,2.3-1.1,3.1-2
				c0.8-0.9,1.2-2.3,0.8-3.4c-0.5-1.2-1.8-1.8-3-1.9c-1.3-0.1-2.5,0.3-3.7,0.8c-4,1.6-9.7,2.1-13,4.9"/>
		</g>
		<path class="st6" d="M74.9,278.1c0,0,7.1,6.4,10.4,12.1c3.3,5.8,5.8,14.8,5.8,14.8l-12.4-0.2L74.9,278.1z"/>
		<path class="st17" d="M43.1,280.1c0,0,5.3,1.8,8.8,8.9c3.5,7.1,1.8,17,1.1,19.8c-0.8,2.9-4.2,10.1-4.2,10.1l-0.5,4.8
			c0,0,5.9-1.6,8.8-10.1c3.2-9.6,2.7-18-0.6-25.9s-7.7-11.7-7.7-11.7s-1.4-0.5-3.2,0.9C43.7,278.4,43.1,280.1,43.1,280.1z"/>
		<path class="st17" d="M69,273.7c0,0,3.3-0.2,6.2,2.4c7,6.2,6.5,17.6,6.5,17.6l-3.3,0.3c0,0-0.3-6.2-2.6-11.9
			C73.7,276.4,69,273.7,69,273.7z"/>
		<g>
			<polygon class="st7" points="104.4,290.9 93.3,273.1 89.6,301.4 103.3,301.9 			"/>
			<path class="st31" d="M73.2,296.6c0,0,6.9-5.1,14.8-5.8c7.9-0.7,14.6,2.5,14.6,2.5s-4.6,2.3-10.1,3.2c-5.5,0.8-18.1,2.3-18.1,2.3
				L73.2,296.6z"/>
			<polygon class="st7" points="73.2,296.6 73.4,327.6 100.3,323.8 101.1,293.4 			"/>
			<polygon class="st32" points="104.3,291.9 104.4,290.9 93.3,273.1 93.2,274 			"/>
			<path class="st12" d="M101.1,293.4c0,0,1.1,0.2,2.1-0.5c0.9-0.7,1.2-2,1.2-2l-1,30.4c0,0,0.2,1.5-1,2.2c-1.1,0.6-2,0.4-2,0.4
				L101.1,293.4z"/>
		</g>
		<g>
			<path class="st30" d="M69.8,311.3c1-2.2,2.3-4.4,3.7-6.5c0.2-0.3,0.5-0.6,0.8-0.5c0.3,0.1,0.5,0.5,0.5,0.9
				c0.1,1.6,0.1,3.1-0.1,4.7c0,0.2,0,0.4,0.1,0.5c0.1,0.1,0.2,0.1,0.3,0.1c2.6,0.2,5.2-0.6,7.7-0.5c0.4,0,0.7,0,1.1,0.2
				c0.3,0.2,0.5,0.5,0.7,0.8c0.7,1.4,0.5,3.3-0.7,4.4c-0.7,0.7-1.7,1.1-2.6,1.5c-3.2,1.2-6.4,2.2-9.7,3c-0.2,0.1-0.5,0.1-0.7,0
				c-0.2-0.1-0.3-0.4-0.4-0.6c-0.7-2.6-0.9-5.3-0.6-8"/>
		</g>
		<path class="st33" d="M41.4,283.9c0,0,3-3,7,3.8c3.9,6.8,0.3,26.8,2.4,28.8c2.1,2,18.9-6.1,18.9-6.1s1.5,3,2.4,6.5
			s0.6,4.1,0.6,4.1s-16.7,13.2-27.3,8.5c-10.6-4.7-9.1-28.1-8.5-33.8C37.9,287.2,41.4,283.9,41.4,283.9z"/>
	</g>
	<g>
		<path class="st34" d="M297.6,443c0,0-0.3,5.7-0.8,6.2c-0.5,0.5-13.8,4.7-13.7,6.5c0.2,1.9,2.6,2.5,8.5,2.3
			c5.9-0.2,13.8-0.6,14.7-2.2c0.9-1.6,0.9-12.3,0.9-12.3L297.6,443z"/>
		<path class="st34" d="M357.5,425.4c0,0,5,4.3,4.8,5.3c-0.2,0.9-3.6,14.7-2.2,15.1c1.4,0.3,14.1-17.9,14.6-19.6
			c0.5-1.7-9.3-8.1-9.3-8.1L357.5,425.4z"/>
		<path class="st15" d="M296.8,345.5c0,0-3.8,38.7-3.8,45.2c0,6.5,2.9,54.8,2.9,54.8l13,0.6c0,0,2.7-48.9,3.3-55.4
			c0.6-6.5,5.1-40.2,5.1-40.2L296.8,345.5z"/>
		<path class="st27" d="M310.2,342.7c0,0-1.2,38.5,1.2,42.5c2.5,4,44.7,43.5,44.7,43.5l11.2-10.2c0,0-32.6-31.4-34.5-40.4
			c-1.9-9-0.6-33.2-0.6-33.2L310.2,342.7z"/>
		<path class="st35" d="M302.5,280.7c0,0-5.1,6.4-7.3,12s-4.2,14.3-4.2,14.3l10.6,1.1c0,0,2.3-14.6,2.5-18.5
			C304.3,285.7,302.5,280.7,302.5,280.7z"/>
		<path class="st17" d="M302.5,280.7c0,0-2.9,4.2-4,13.2c-1.1,9-0.5,39.7-0.5,39.7l35.9,0.2c0,0,1.6-33.1-1.1-40.8
			c-2.6-7.8-9.1-10.7-12.2-12.4c-3.1-1.7-8-3.5-8-3.5s-3.2,4.6-5.5,5.1C304.7,282.6,302.5,280.7,302.5,280.7z"/>
		<g>
			<rect x="282.8" y="302.4" class="st12" width="88" height="66.6"/>
			<line class="st36" x1="281.7" y1="333.9" x2="314.7" y2="301.5"/>
			<line class="st36" x1="372.5" y1="333.9" x2="339.4" y2="301.5"/>
		</g>
		<g>
			<path class="st14" d="M295,249.9c-1.8,3.7-3,7.8-3.3,11.9c-0.2,3.1,0,6.3,1.3,9.1c1.3,2.8,3.7,5.2,6.7,6c0.9,0.2,1.9,0.3,2.8,0.1
				c0.8-0.2,1.6-0.6,2.3-1c3.4-2.1,5.7-5.8,6.2-9.7c0.4-3.2-0.3-6.4-1.1-9.5c-0.3-1.4-0.7-2.9-1.7-4c-1.4-1.5-3.6-1.9-5.6-2.1
				c-2.6-0.3-5.1-0.7-7.7-1"/>
		</g>
		<g>
			<path class="st14" d="M301.6,274.7c0.7,3.1,0.7,6.3,0,9.4c-0.1,0.4-0.2,0.9,0.1,1.1c0.1,0.1,0.3,0.1,0.5,0.1c0.7,0,1.4-0.3,2-0.6
				c2.7-1.4,5.3-3.1,7.6-5.2c0.4-0.4,0.8-0.7,0.9-1.3c0.1-0.4,0-0.7,0-1.1c-0.5-3.6-1.1-7.1-1.6-10.7c0-0.2-0.1-0.4-0.2-0.5
				c-0.2-0.1-0.5,0.1-0.6,0.2c-1.9,1.7-3.8,3.5-5.7,5.2c-1.2,1.1-2.5,2.3-3.2,3.8"/>
		</g>
		<g>
			<path class="st14" d="M326.4,349c-1.1,1.6-2.1,3.4-3,5.2c-0.4,0.8-0.7,1.6-0.9,2.5c-0.1,0.9,0,1.8,0.6,2.5c0.8,1,2.4,1.3,3.6,0.9
				c1.2-0.4,2.2-1.4,3-2.4c1.4-1.8,2.4-4,3-6.3c0.1-0.4,0.1-0.7,0-1.1c-0.2-0.6-1-0.8-1.6-0.9c-1.5-0.2-3.1-0.4-4.6-0.5"/>
		</g>
		<g>
			<path class="st16" d="M316.1,259.3c0-0.3,0.1-0.5,0.3-0.8c1.5-2,2.4-4.9,1-6.9c-0.8-1.2-2.3-1.8-3.7-1.8c-1.4,0-2.8,0.4-4.1,1.1
				c1.1-2.5-0.5-5.7-3.1-6.3c-2.3-0.6-5.6,1.1-6.5,3.4c-0.7-1.2-2.1-1.9-3.5-1.9c-1.6,0.1-3.2,1.1-4,2.5c-0.3,0.5-0.5,1-0.5,1.5
				c0,0.9,0.7,1.7,1.5,2.1c0.8,0.4,1.7,0.5,2.6,0.6c3.4,0.3,6.8,0.4,10.1,0c-1.5,3.9,0.4,8.7,4,10.6c-0.1,1.7,0.1,3.6,1.4,4.7
				c1.2,1.1,3.1,1,4.5,0.1c1.3-0.9,2-2.6,2-4.2c0-1.6-0.7-3.1-1.6-4.4C316.3,259.7,316.1,259.5,316.1,259.3z"/>
		</g>
		<g>
			<path class="st14" d="M312.6,260.4c-0.9-0.5-2-0.3-2.9,0.1c-0.9,0.4-1.6,1-2.4,1.5l0,0.4c0.1,0.9,0.3,2,1,2.5
				c1.6,1.3,4-0.2,4.9-1.5C314.1,262.4,314,261.1,312.6,260.4z"/>
		</g>
		<path class="st35" d="M313.6,284.5c-0.9,4.9,6.8,8.8,11.6,18.2c4.9,9.3,6.8,14.2,5.6,23.5c-1.2,9.3-6.5,23.5-6.5,23.5l10,3.5
			c0,0,9.8-25.4,10.2-37c0.5-11.6-5.5-20.1-11.2-26.8C324.7,279.3,314.5,279.6,313.6,284.5z"/>
	</g>
</g>
<g id="DESIGNED_BY_FREEPIK">
</g>
</svg>
