<?xml version="1.0" encoding="utf-8"?>
<!-- Generator: Adobe Illustrator 23.0.1, SVG Export Plug-In . SVG Version: 6.00 Build 0)  -->
<svg version="1.1" id="_x3C_Layer_x3E_" xmlns="http://www.w3.org/2000/svg" xmlns:xlink="http://www.w3.org/1999/xlink" x="0px"
	 y="0px" viewBox="0 0 1086.8 1157.9" style="enable-background:new 0 0 1086.8 1157.9;" xml:space="preserve">
<style type="text/css">
	.st0{fill:#8DBDE3;}
	.st1{fill:#706865;}
	.st2{fill:#FFFFFF;}
	.st3{fill:#C9C9C9;}
	.st4{fill:#FFAA55;}
	.st5{fill:#CCBDB7;}
	.st6{fill:#B59074;}
	.st7{fill:#D44040;}
	.st8{fill:#EAD8CF;}
	.st9{fill:#DA9B5B;}
	.st10{fill:#424773;}
	.st11{fill:#292C47;}
	.st12{fill:#9F725A;}
	.st13{fill:#3A3F47;}
	.st14{fill:#E2D2CA;}
	.st15{fill:#87604B;}
	.st16{fill:#323657;}
	.st17{fill:#918783;}
	.st18{fill:#5E5854;}
	.st19{fill:#BFB2AC;}
	.st20{fill:#254380;}
	.st21{fill:url(#SVGID_1_);}
	.st22{fill:#F5F7FF;}
	.st23{fill:#FFC655;}
	.st24{fill:#DFE1E8;}
	.st25{fill:#36572B;}
	.st26{fill:#45613C;}
	.st27{fill:#925E2E;}
	.st28{fill:#48753A;}
	.st29{fill:#538742;}
	.st30{fill:#877670;}
	.st31{fill:#876455;}
	.st32{fill:#715346;}
	.st33{fill:#9E633A;}
	.st34{fill:#97A43C;}
	.st35{fill:#82522F;}
	.st36{fill:#C67B47;}
	.st37{fill:#1A2F59;}
	.st38{fill:#0D4773;}
	.st39{fill:#ADAFB1;}
	.st40{fill:#147A5A;}
	.st41{fill-rule:evenodd;clip-rule:evenodd;fill:#F37C20;}
	.st42{fill:#FEFEFE;}
	.st43{fill:#3CC1BB;}
	.st44{fill:#FED8BF;}
	.st45{fill:#E02C51;}
	.st46{fill:#FED8BE;}
	.st47{fill:#236073;}
	.st48{fill:#D12545;}
	.st49{fill:#FED9C3;}
	.st50{fill:#103A52;}
	.st51{fill:#0F3950;}
	.st52{fill:#FDD7BE;}
	.st53{fill:#E1BA9B;}
	.st54{fill:#D9B18B;}
	.st55{fill:#F6C1A8;}
	.st56{fill:#FDCFAC;}
	.st57{fill:#D9DADC;}
	.st58{fill:#E1B99A;}
	.st59{fill:#5B3A18;}
	.st60{fill:#432911;}
	.st61{fill:#4F3013;}
	.st62{fill:#3C240F;}
	.st63{fill:#281507;}
	.st64{fill:#39230E;}
	.st65{fill:#472C12;}
	.st66{fill:#503214;}
	.st67{fill:#442911;}
	.st68{fill:#F9F8F9;}
	.st69{fill:#E02B4D;}
	.st70{fill:#C9CACC;}
	.st71{fill:#DBDCDD;}
	.st72{fill:#DADBDC;}
	.st73{fill:#DADBDD;}
	.st74{fill:#EAEBEC;}
	.st75{fill:#EBECED;}
	.st76{fill:#EBECEE;}
	.st77{fill:#EAEBED;}
	.st78{fill:#ECEDEF;}
	.st79{fill:#E12D50;}
	.st80{fill:#EDEDEF;}
	.st81{fill:#E13254;}
	.st82{fill:#FEFDFD;}
	.st83{fill:#F6BFA9;}
	.st84{fill:#764B1C;}
	.st85{fill:#754B1B;}
	.st86{fill:#2F292A;}
	.st87{fill:#302A2B;}
	.st88{fill:#F8AB61;}
	.st89{fill:#F7A754;}
	.st90{fill:#568C8F;}
	.st91{fill:#6A7F8D;}
	.st92{fill:#808E9A;}
	.st93{fill:#FAEFF0;}
	.st94{fill:#143B52;}
</style>
<g>
	<g>
		<path class="st0" d="M1026.5,483.6l-586.9,3c-24.4,0.1-44.3-19.6-44.5-44l-2-386.3c-0.1-24.4,19.6-44.3,44-44.5l586.9-3
			c24.4-0.1,44.3,19.6,44.5,44l2,386.3C1070.6,463.6,1050.9,483.5,1026.5,483.6z"/>
		
			<rect x="649.5" y="3.6" transform="matrix(1 -5.150412e-03 5.150412e-03 1 -0.1045 3.7696)" class="st1" width="164.7" height="37.2"/>
		<g>
			<g>
				<path class="st2" d="M567.3,104.1c0,0,0.2,107.9-11.5,151.2l-25.4,16.1l-89.7,0.5c16.8-45.5,16.6-167.1,16.6-167.1L567.3,104.1z
					"/>
				<polygon class="st3" points="530.4,271.3 530.3,255 555.8,254.9 				"/>
			</g>
		</g>
		<g>
			<g>
				<path class="st2" d="M675.8,77.5c0,0,0.1,74.7-8,104.6l-17.6,11.1l-62.1,0.3c11.6-31.5,11.5-115.6,11.5-115.6L675.8,77.5z"/>
				<polygon class="st3" points="650.3,193.2 650.3,181.9 667.9,181.8 				"/>
			</g>
		</g>
		<g>
			<g>
				<path class="st2" d="M828.1,96.6c0,0,0.2,102.3-10.9,143.2l-24,15.2l-85.1,0.4c15.9-43.1,15.7-158.4,15.7-158.4L828.1,96.6z"/>
				<polygon class="st3" points="793.2,255.1 793.1,239.6 817.2,239.5 				"/>
			</g>
		</g>
		<g>
			<g>
				<path class="st2" d="M936.6,226.8c0,0,0.1,69.1-7.4,96.8L913,333.9l-57.4,0.3c10.8-29.1,10.6-107,10.6-107L936.6,226.8z"/>
				<polygon class="st3" points="913,333.9 912.9,323.4 929.2,323.3 				"/>
			</g>
		</g>
		<g>
			<g>
				<path class="st2" d="M936.6,85.2c0,0,0.1,69.1-7.4,96.8L913,192.2l-57.4,0.3c10.8-29.1,10.6-107,10.6-107L936.6,85.2z"/>
				<polygon class="st3" points="913,192.2 912.9,181.8 929.2,181.7 				"/>
			</g>
		</g>
		<g>
			<g>
				<path class="st2" d="M1025.8,153.4c0,0,0.1,53-5.7,74.3l-12.5,7.9l-44.1,0.2c8.3-22.3,8.2-82.1,8.2-82.1L1025.8,153.4z"/>
				<polygon class="st3" points="1007.7,235.6 1007.7,227.6 1020.2,227.5 				"/>
			</g>
		</g>
		<g>
			<g>
				<path class="st2" d="M671.9,240c0,0,0.1,55-6.8,77.1l-14.7,8.2l-52.1,0.3c9.8-23.2,9.7-85.3,9.7-85.3L671.9,240z"/>
				<polygon class="st3" points="650.4,325.3 650.4,317 665.2,316.9 				"/>
			</g>
		</g>
		<g>
			<g>
				<rect x="444.9" y="367.9" class="st2" width="157" height="8.2"/>
			</g>
			<g>
				<rect x="444.9" y="424.5" class="st2" width="181.1" height="8.2"/>
			</g>
			<g>
				<rect x="444.9" y="396.2" class="st2" width="111.5" height="8.2"/>
			</g>
		</g>
	</g>
	<g>
		<g>
			<rect x="309.9" y="608.6" class="st4" width="180.7" height="10.7"/>
		</g>
		<g>
			
				<rect x="334.1" y="647.3" transform="matrix(-1 -1.224647e-16 1.224647e-16 -1 684.0253 1782.4885)" class="st1" width="15.8" height="487.9"/>
		</g>
		<g>
			<rect x="462.3" y="605.6" class="st5" width="125.6" height="15.3"/>
		</g>
		<g>
			<rect x="501.3" y="474.9" class="st4" width="47.6" height="144.5"/>
		</g>
		<g>
			<rect x="245" y="619.6" class="st6" width="696" height="27.7"/>
		</g>
		<g>
			<path class="st7" d="M111.5,451.6c0,0-7.6,106.8,13.2,119.5c13.1,8,65.2,35,63.6,40.1c-1.5,5.1-29.4,45-29.4,45
				S58.8,590.4,55.6,569.6c-3.2-20.3,4.9-156.3,18.7-162.6c10.3-4.7,15.7-0.8,28.7,8.8C121.2,429.4,111.5,451.6,111.5,451.6z"/>
		</g>
		<g>
			<g>
				<g>
					<path class="st8" d="M293.8,482.1l8.8-3.3c0,0-11-25.8-15.8-25.2c-5.5,0.7-12.4,2.5-12.4,2.5L293.8,482.1z"/>
				</g>
			</g>
		</g>
		<g>
			<g>
				<g>
					<path class="st9" d="M295.9,486.6c-1.1-0.8-18.7-34.6-18.7-34.6l-37.7,5.1l20.3,40L295.9,486.6z"/>
				</g>
			</g>
		</g>
		<g>
			<g>
				<g>
					<path class="st10" d="M234.6,1068.6c0,0-3.1,21.6-3.5,24.8c-0.4,3.2-34.6-1.9-34.6-1.9l-2.8-25.7
						C193.7,1065.8,230.3,1065.5,234.6,1068.6z"/>
				</g>
			</g>
		</g>
		<g>
			<g>
				<g>
					<path class="st11" d="M231.4,1090.7c0,0,10.8,13,21.3,18.7c10.5,5.7,27,7.9,33.2,13.8c4.5,4.2,16.3,22.5-27.3,22.1
						c-43.6-0.4-64.6,2.6-69.2-4.4c-4.7-7,6.8-51.6,6.8-51.6S206.5,1092.9,231.4,1090.7z"/>
				</g>
			</g>
		</g>
		<g>
			<g>
				<g>
					<path class="st10" d="M453.9,1068.8c0,0-3.1,21.6-3.5,24.8c-0.4,3.2-34.6-1.9-34.6-1.9L413,1066
						C413,1066,449.6,1065.7,453.9,1068.8z"/>
				</g>
			</g>
		</g>
		<g>
			<g>
				<g>
					<path class="st11" d="M450.8,1090.9c0,0,10.8,13,21.3,18.7c10.5,5.7,49.1,10.3,55.3,16.2c4.5,4.2,11.9,21.3-49.4,19.7
						c-43.6-1.1-64.6,2.6-69.2-4.4c-4.7-7,6.8-51.6,6.8-51.6S425.2,1093.4,450.8,1090.9z"/>
				</g>
			</g>
		</g>
		<g>
			<g>
				<g>
					<path class="st11" d="M124.2,695.4c0,0,124.4,21.1,152.6,25.5c28.1,4.4,180.5,42.3,199.6,53.9c15.2,9.2-8,230.1-13.4,314.4h-60
						l-4.4-252.8c-72,1.8-123.4-16.9-175.9-8.9c-52.5,8-96.2,19.3-129.5-25.4C93.2,802.1,91.9,705.2,124.2,695.4z"/>
				</g>
			</g>
		</g>
		<g>
			<g>
				<g>
					<path class="st11" d="M246.8,1089.4l-58.5-3.6l-5.7-249.4c-31,0.8-41.6-1.2-66.7-4.2L68.7,722.4c41.4,8.3,174,41.7,191.7,52.5
						C275.5,784,252.2,1005.1,246.8,1089.4z"/>
				</g>
			</g>
		</g>
		<g>
			<g>
				<g>
					<path class="st12" d="M181.5,229c0,0,45.6-12.6,63,22.8c17.4,35.4,9.5,102.6-13.5,108.9c-23,6.3-56.1-1-65.6-23
						c-9.5-22-17.2-53.4-14.9-73.6C152.8,243.7,169.4,233.8,181.5,229z"/>
				</g>
			</g>
		</g>
		<g>
			<g>
				<g>
					<path class="st12" d="M219.1,353.6c0,0-0.5,26.9,2.5,32.7c3,5.7-63.5,4.3-63.5,4.3s10.5-32.3,4.5-59.9
						C156.7,303.4,219.1,353.6,219.1,353.6z"/>
				</g>
			</g>
		</g>
		<g>
			<g>
				<g>
					<path class="st13" d="M159,320.5c0,0,3.6,7.2,20.8,6.1c17.2-1.2,39.9-21.9,47.2-23.8c7.3-1.9,7.7-6,7.7-6l3.9,6.9l7.5,1.1
						c0,0-1.5-17.2,6-28.1c3.3-4.8-5-66.3-61.1-52.1c0,0-42.8,7.8-43.4,31.8C147,280.2,150.7,307.8,159,320.5z"/>
				</g>
			</g>
		</g>
		<g>
			<g>
				<g>
					<path class="st14" d="M225.1,385.6c0,0-0.2-11-5.2-12c-5-1.1-52.3-7.6-58.4-5.2l-2.6,14.5C158.9,382.9,170.7,390.1,225.1,385.6
						z"/>
				</g>
			</g>
		</g>
		<g>
			<g>
				<g>
					<path class="st15" d="M238.7,291.8c-1.3-9-11.5-19.3-17.4-5.3c-5.9,14,4,34.4,10.5,33.3C238.5,318.7,240.5,304,238.7,291.8z"/>
				</g>
			</g>
		</g>
		<g>
			<g>
				<g>
					<path class="st16" d="M423.2,515.2C423.1,515.2,423.1,515.2,423.2,515.2C423.4,515.3,423.5,515.3,423.2,515.2z"/>
				</g>
			</g>
		</g>
		<g>
			<g>
				<g>
					<path class="st13" d="M168.2,235.4c0,0-55.6-2.6-9.7,84.2L168.2,235.4z"/>
				</g>
			</g>
		</g>
		<g>
			<g>
				<polygon class="st17" points="44.2,1119 48.4,1130.6 223.2,1076.5 214.8,1052.9 				"/>
			</g>
		</g>
		<g>
			<g>
				<rect x="209.3" y="878.1" class="st17" width="19.9" height="190.1"/>
			</g>
		</g>
		<g>
			<g>
				<rect x="160.7" y="868" class="st18" width="117.2" height="11.2"/>
			</g>
		</g>
		<g>
			<g>
				<polygon class="st17" points="395.8,1119 391.7,1130.6 216.9,1076.5 224.5,1051.4 				"/>
			</g>
		</g>
		<g>
			<g>
				<polygon class="st17" points="272.6,1129.4 272.6,1142.9 216.9,1076.5 224.5,1051.4 				"/>
			</g>
		</g>
		<g>
			<g>
				<path class="st19" d="M412.2,1135.2c0,9-7.3,16.3-16.3,16.3c-9,0-16.3-7.3-16.3-16.3c0-9,7.3-16.3,16.3-16.3
					C404.9,1118.9,412.2,1126.2,412.2,1135.2z"/>
			</g>
		</g>
		<g>
			<g>
				<path class="st19" d="M274,1135.2c0,9-7.3,16.3-16.3,16.3c-9,0-16.3-7.3-16.3-16.3c0-9,7.3-16.3,16.3-16.3
					C266.7,1118.9,274,1126.2,274,1135.2z"/>
			</g>
		</g>
		<g>
			<g>
				<path class="st19" d="M60.6,1135.2c0,9-7.3,16.3-16.3,16.3c-9,0-16.3-7.3-16.3-16.3c0-9,7.3-16.3,16.3-16.3
					C53.2,1118.9,60.6,1126.2,60.6,1135.2z"/>
			</g>
		</g>
		<g>
			<path class="st20" d="M340.6,868H99.4c-10.1,0-18.3-8.2-18.3-18.3v-5.9c0-10.1,8.2-18.3,18.3-18.3h241.2
				c10.1,0,18.3,8.2,18.3,18.3v5.9C358.9,859.8,350.7,868,340.6,868z"/>
		</g>
		<g>
			<rect x="836.2" y="647.3" class="st1" width="15.8" height="487.9"/>
		</g>
		<g>
			
				<linearGradient id="SVGID_1_" gradientUnits="userSpaceOnUse" x1="-9755.2637" y1="399.5902" x2="-9344.4854" y2="399.5902" gradientTransform="matrix(-1 0 0 1 -9024.7441 0)">
				<stop  offset="0" style="stop-color:#FF9F55"/>
				<stop  offset="1" style="stop-color:#FFD255"/>
			</linearGradient>
			<path class="st21" d="M712.3,544.5H338c-10.1,0-18.2-8.2-18.2-18.2V272.9c0-10.1,8.2-18.2,18.2-18.2h374.4
				c10.1,0,18.2,8.2,18.2,18.2v253.4C730.5,536.3,722.4,544.5,712.3,544.5z"/>
		</g>
		<g>
			<rect x="335.8" y="270.4" class="st22" width="378.6" height="228.7"/>
		</g>
		<g>
			<path class="st23" d="M610.2,619.9v-5.2c0,0-7.2-32.1-58.5-32.1c-51.3,0-50.2,37.2-50.2,37.2H610.2z"/>
		</g>
		<g>
			<g>
				<path class="st12" d="M500.8,587.5c0,0,11.1-0.9,15.2-3.3c4.1-2.5,28.5-18.9,34.2-16.3c5.7,2.6,43.9,14.3,42.6,19.9
					c-1.3,5.6-4.9,5-7.5,4.1c-2.7-1-30.4-6.8-32.9-5.8c0,0,27.2,9.9,27.3,17.2c0.1,7.2-5.7,9-8.3,11.8c-2.6,2.7-5.7,9.5-12.7,10.1
					c-7,0.5-41.3-11.4-48.3-11.9c-7-0.5-20.1,0.4-21-0.7C488.6,611.2,500.8,587.5,500.8,587.5z"/>
			</g>
		</g>
		<g>
			<g>
				<g>
					<path class="st7" d="M298,400.8c-35.5-6.2-72.9-15.2-72.9-15.2l-66.2-2.7c0,0-60.7,13.4-84.6,24.2c-2.3,1-2.3,54.2-8.5,68.1
						l19.8,41.8c0,0,11.5,82.8,13.8,119.7c1.1,16.9-3.1,163.5-3.1,163.5s5.9,2.9,51.1,7.9c45.1,5,158-1.8,158.7-7.1
						c0.7-5.3-21.8-198.6-22.8-208.6c-1.5-15.4,4.4-86.3,4.4-86.3c8.5,11.4,30.2,63,52.8,87.6c13.3,14.4,79.1,23.3,91.5,23.7
						c27,0.9,76.3,6.3,77.7,3.7c1.2-1.6,4.3-43.7,1.2-44.8c-2.7-0.9-94.2-6.2-117.7-18.6c-8.6-4.6-34.2-60.5-34.2-60.5
						S317.6,409.6,298,400.8z"/>
				</g>
			</g>
		</g>
		<g>
			<path class="st20" d="M172.8,795.9H51.4c-19.4,0-35.1-15.7-35.1-35.1V565.7c0-19.4,15.7-35.1,35.1-35.1h121.4
				c19.4,0,35.1,15.7,35.1,35.1v195.1C207.8,780.2,192.1,795.9,172.8,795.9z"/>
		</g>
		<g>
			<path class="st20" d="M173.9,857.4c-28.2,0-51.1-9.5-68.1-28.2C67.5,787,74.4,712.7,74.7,709.6c0.6-5.9,5.8-10.1,11.7-9.6
				c5.9,0.6,10.1,5.8,9.6,11.6c-0.1,0.8-6.2,68.2,25.7,103.3c12.9,14.2,30,21.1,52.2,21.1c5.9,0,10.7,4.8,10.7,10.7
				C184.5,852.7,179.8,857.4,173.9,857.4z"/>
		</g>
		<g>
			<g>
				<g>
					<path class="st24" d="M471,300.7H365.3c-1.4,0-2.6-1.2-2.6-2.6v-6.9c0-1.4,1.2-2.6,2.6-2.6H471c1.4,0,2.6,1.2,2.6,2.6v6.9
						C473.6,299.5,472.4,300.7,471,300.7z"/>
				</g>
			</g>
		</g>
		<g>
			<g>
				<g>
					<path class="st24" d="M471,326.6H365.3c-1.4,0-2.6-1.2-2.6-2.6v-6.9c0-1.4,1.2-2.6,2.6-2.6H471c1.4,0,2.6,1.2,2.6,2.6v6.9
						C473.6,325.4,472.4,326.6,471,326.6z"/>
				</g>
			</g>
		</g>
		<g>
			<g>
				<g>
					<path class="st24" d="M464.8,480.9h-93.3c-4.8,0-8.8-3.9-8.8-8.8V353c0-4.8,3.9-8.8,8.8-8.8h93.3c4.8,0,8.8,3.9,8.8,8.8v119.1
						C473.6,476.9,469.6,480.9,464.8,480.9z"/>
				</g>
			</g>
		</g>
		<g>
			<g>
				<g>
					<path class="st24" d="M679.6,480.9H509.9c-7.7,0-13.9-6.2-13.9-13.9V302.5c0-7.7,6.2-13.9,13.9-13.9h169.7
						c7.7,0,13.9,6.2,13.9,13.9V467C693.5,474.6,687.2,480.9,679.6,480.9z"/>
				</g>
			</g>
		</g>
	</g>
	<g>
		<path class="st25" d="M855.7,465.3c-24.7,0-44.8-20.1-44.8-44.8c0-6.7,1.5-13,4.1-18.7c7.1-15.4,22.7-26.1,40.7-26.1
			c24.8,0,44.8,20.1,44.8,44.8c0,8.5-2.4,16.4-6.5,23.2C886.1,456.6,871.9,465.3,855.7,465.3z"/>
		<path class="st26" d="M810.1,461.3c-17.3,0-31.4-14-31.4-31.4c0-1,0-2,0.1-3c1.5-15.9,14.9-28.4,31.2-28.4
			c17.3,0,31.4,14,31.4,31.4c0,11-5.6,20.6-14.2,26.2C822.4,459.4,816.5,461.3,810.1,461.3z"/>
		<path class="st27" d="M856.4,422.8c0,0,2.5,20.8,3.3,49.1c0.8,28.3-21.6,28.3-21.6,28.3v103.7h-15.6c0,0,0.4-105.8-7.4-114.3
			c-7.8-8.5-7.8-48.8-7.8-48.8l4.4-2.6c0,0-6.7,47.7,23.7,54.8c30.3,7,18.9-68.1,18.9-68.1L856.4,422.8z"/>
		<path class="st28" d="M866.8,427.7c-25.7-4.8-42.7-15.9-51.8-25.9c7.1-15.4,22.7-26.1,40.7-26.1c24.8,0,44.8,20.1,44.8,44.8
			c0,8.5-2.4,16.4-6.5,23.2C892.8,437.6,886.1,431.3,866.8,427.7z"/>
		<path class="st29" d="M801,438.5c-10.4-3-17.4-7.1-22.1-11.6c1.5-15.9,14.9-28.4,31.2-28.4c17.3,0,31.4,14,31.4,31.4
			c0,11-5.6,20.6-14.2,26.2C824.1,450.2,816.9,443.1,801,438.5z"/>
		<polygon class="st30" points="783.3,555.7 888.8,555.7 883.4,575.3 789.9,575.3 		"/>
		<polygon class="st31" points="796.5,575.3 874.8,575.3 863.9,619.6 804.1,619.6 		"/>
		<path class="st29" d="M807.3,402.5l-2.7,0.8c0,0-4.3-11.6-4.5-13.1C799.8,388.6,807.3,402.5,807.3,402.5z"/>
		<path class="st29" d="M781.7,403.3l13.4,4.1c0,0-0.1,1.2-1.8,1.2C791.5,408.6,781.7,403.3,781.7,403.3z"/>
		<path class="st29" d="M786.4,431.4h3.4c0,0-0.6,5.1-3.4,8.3C783.6,443,786.4,431.4,786.4,431.4z"/>
		<path class="st28" d="M868.7,367.2c1.4,1-4.9,16.4-4.9,16.4h-3.1C860.7,383.6,867.3,366.2,868.7,367.2z"/>
		<path class="st28" d="M854.1,379.8c-0.6-4.2,2.7-11.2,2.7-11.2v10.5C856.8,379.2,854.6,384,854.1,379.8z"/>
		<path class="st28" d="M878.9,440.3c-1.9-1.6-2-15.6-2-15.6l3.1,1.1C879.9,425.9,880.8,441.9,878.9,440.3z"/>
		<path class="st32" d="M822.4,575.3h52.3l-10.9,44.3h-17.1C856.4,584,822.4,575.3,822.4,575.3z"/>
	</g>
	<g>
		<path class="st33" d="M861.1,619.6c-4.3-1.8-11.2-22.1-14.6-32.6c-1.2-3.7-1.9-6.2-1.9-6.2h39.3c-3.4,24.2-11.6,38.8-11.6,38.8
			H861.1z"/>
		<path class="st34" d="M858,568.7c0-1.4-6.3-7.3-9.5-11.2c-3.2-3.9,1.2-11.2,1.2-11.2c14.1,5.8,11.6,22.3,11.6,22.3
			S858,570.1,858,568.7z"/>
		<path class="st34" d="M866,569.4h-1.7c0,0-1.2-28.5,9.2-32.4c10.4-3.9,10.4-11.6,10.4-11.6s3.2,10.7-1.9,16.2
			c-5.1,5.6-10.9,12.1-9.9,17.5C873,564.3,866,569.4,866,569.4z"/>
		<path class="st35" d="M846.6,587c-1.2-3.7-1.9-6.2-1.9-6.2h39.3c-3.4,24.2-11.6,38.8-11.6,38.8h-2.6
			C870.2,596.9,855.3,589.4,846.6,587z"/>
		<polygon class="st36" points="844.7,568.7 884.2,568.7 886.5,580.8 843.1,580.8 		"/>
	</g>
	<path class="st20" d="M253.9,271.1c0,0-11.4,34.1-95.5,48.5l-8.3-11.3c0,0,74.4-8.1,101.9-50.6L253.9,271.1z"/>
	<g>
		<path class="st20" d="M105.6,340.3c-8.2,4.6-7.2,26.8-7.2,26.8h7.2h7.2C112.8,367.1,113.8,345,105.6,340.3z"/>
		<g>
			<rect x="104.3" y="277.5" class="st20" width="2.7" height="69.4"/>
		</g>
		<polygon class="st37" points="79,282.1 194,325 297.7,231.7 178.7,201.1 		"/>
	</g>
</g>
<g>
	<g>
		<path class="st38" d="M533.2,411.8h-7.2l-2.3-8.6h25.4l2.2,8.6h-8.9v29h-9.2V411.8z"/>
		<path class="st38" d="M562.1,408.3c-0.4,0.7-0.9,1.2-1.6,1.6c-0.7,0.4-1.4,0.6-2.2,0.6c-0.8,0-1.5-0.2-2.2-0.6
			c-0.7-0.4-1.2-0.9-1.6-1.6c-0.4-0.7-0.6-1.5-0.6-2.3c0-0.8,0.2-1.6,0.6-2.2c0.4-0.7,1-1.2,1.6-1.6c0.7-0.4,1.4-0.6,2.2-0.6
			c0.8,0,1.6,0.2,2.2,0.6c0.7,0.4,1.2,0.9,1.6,1.6c0.4,0.7,0.6,1.4,0.6,2.2C562.7,406.9,562.5,407.6,562.1,408.3z M562.6,413.7v27.1
			h-8.4v-27.1L562.6,413.7z"/>
		<path class="st38" d="M564,403.2l8.4,0v37.5l-8.4,0.1V403.2z"/>
		<path class="st38" d="M579.3,420.9h-5.6l1.9-7.3h3.7v-10.4l8.4,0.1v10.4h5.6l-1.9,7.3h-3.7v9c0,2.4,1.5,3.6,4.5,3.6
			c1,0,1.7-0.1,2.2-0.3l-2.4,8.4c-0.4,0.1-0.9,0.1-1.3,0.1c-2.5,0-4.6-0.4-6.3-1.2c-1.7-0.8-3-2-3.8-3.7c-0.9-1.6-1.3-3.7-1.3-6.2
			V420.9z"/>
		<path class="st39" d="M596.5,434.2c0.5-0.7,1-1.3,1.8-1.7c0.7-0.4,1.5-0.6,2.4-0.6c0.8,0,1.6,0.2,2.4,0.6c0.7,0.4,1.3,1,1.7,1.7
			c0.4,0.7,0.7,1.5,0.7,2.3c0,1.4-0.5,2.6-1.4,3.5c-0.9,0.9-2.1,1.4-3.4,1.4c-0.9,0-1.7-0.2-2.4-0.6c-0.7-0.4-1.3-1-1.7-1.8
			c-0.4-0.8-0.6-1.6-0.6-2.5C595.8,435.7,596.1,434.9,596.5,434.2z"/>
		<path class="st40" d="M618.4,420.3c-2.2,0.1-3.2,1.6-3.2,4.5v16h-8.5v-16c0-7.7,3.9-11.8,11.7-12.2h0.5
			c7.8,0.4,11.7,4.4,11.7,12.2v16h-8.5v-16c0-2.9-1.1-4.4-3.2-4.5H618.4z"/>
		<path class="st40" d="M661.5,427.3l0,14.3v2c0,3.5-1.2,6.5-3.7,8.9c-1.1,1.1-2.7,2.1-4.6,2.7c-1.8,0.6-3.6,1-5.3,1h-1.5
			c-4-0.1-7.2-1.3-9.6-3.7c-1.6-1.6-2.6-3.1-2.9-4.3l8.1-4.7c0.1,1.4,0.6,2.6,1.7,3.5c1,1,2.2,1.5,3.7,1.5c1.1,0,2.1-0.3,3-1
			c0.9-0.6,1.5-1.4,1.9-2.4l0-0.1l0.1-0.1c0-0.1,0.1-0.2,0.1-0.4c0.1-0.2,0.1-0.4,0.1-0.6v-0.1l0-0.1l0-0.1v-0.2h0v-2.8l-0.2,0.1
			l-0.2,0.1c-1.8,0.7-3.6,1.1-5.6,1.1c-2.6,0-5-0.6-7.2-1.9c-2.2-1.3-4-3-5.4-5.3c-1.4-2.3-2-4.8-2-7.5c0-2.1,0.4-4,1.2-5.8
			c0.8-1.8,1.8-3.3,3.2-4.7c1.4-1.3,2.9-2.3,4.7-3c1.8-0.7,3.6-1.1,5.5-1.1c3.3,0,5.7,0.4,7.3,1.3C659,416,661.5,420.5,661.5,427.3z
			 M642.3,432c1.4,1.4,3,2,4.8,2c1.8,0,3.5-0.7,4.8-2c1.4-1.3,2.1-3,2.1-4.8c0-1.2-0.3-2.3-1-3.4c-0.6-1.1-1.5-1.9-2.5-2.5
			c-1.1-0.6-2.2-0.9-3.4-0.9c-1.2,0-2.3,0.3-3.4,0.9c-1.1,0.6-1.9,1.4-2.6,2.5c-0.6,1.1-1,2.2-1,3.4
			C640.2,429,640.9,430.6,642.3,432z"/>
	</g>
	<path class="st41" d="M552.8,402c0.3,0.1,0.5,0.2,0.7,0.4l0,0c0.6-0.8,1.4-1.5,2.2-2c1.1-0.7,2.4-1,3.9-1c1.4,0,2.7,0.3,3.9,1
		c0.6,0.3,1.1,0.7,1.5,1.2c0.1-0.1,0.1-0.2,0.2-0.3l-2.7-6.9c-0.5-0.7-3-0.1-3.7,0c-1.4,0.3-7.2,2.4-7.6,3.2c-0.1,0.2-0.2-0.2,0,0.3
		C551.4,398.7,552.4,401.6,552.8,402L552.8,402z M552.6,403.8L552.6,403.8c-0.5,0.9-0.7,1.9-0.8,3l-0.3-0.1l-2.7-6.9
		c-0.1-0.7,1.1-1.5,1.4-1.7c0.4-0.2,0.2-0.1,0.3-0.1l1.7,4.2c-0.3,0.5-0.5,0.8,0,1.4C552.4,403.7,552.5,403.7,552.6,403.8
		L552.6,403.8z M545.4,392.2L545.4,392.2c0.3,0.3,0.4,1,0.5,1.5c0.4-0.2,0.7-0.8,0.9-1c0.3-0.1,1.1,0.1,1.5,0l-0.8-1.3
		c0.3-0.4,0.5-0.8,0.6-1.3c-0.3,0.1-1.1,0.4-1.4,0.3c-0.3-0.1-0.8-0.6-0.9-0.9c-0.4,0.2-0.3,0.9-0.3,1.3c-0.1,0.4-0.9,0.6-1.2,0.9
		L545.4,392.2L545.4,392.2z M557.6,387.5L557.6,387.5l0.3,1.4c0.3-0.2,0.8-0.9,1-1c0.3-0.1,1,0.1,1.4,0l-0.5-0.9l-0.2-0.4l0.6-1.2
		c-1.3,0.2-1.1,0.6-2-0.2c-0.2-0.2-0.3-0.3-0.6-0.4c-0.1,0.4,0,0.9-0.2,1.3c-0.2,0.4-0.7,0.4-1,0.7c-0.1,0.1-0.1,0.1-0.2,0.2
		L557.6,387.5L557.6,387.5z M562.8,388.2L562.8,388.2l0.2,0.9c1.1-0.9,0.1-0.4,1.5-0.6c-0.7-1.3-0.3-0.5-0.1-1.5
		c-0.3,0-0.6,0.2-0.8,0.1c-0.1,0-0.2-0.1-0.3-0.2c-0.1-0.1-0.1-0.1-0.2-0.1l-0.1-0.1c-0.3,0.8,0.2,0.6-0.8,1.2L562.8,388.2
		L562.8,388.2z M542.4,395.9L542.4,395.9c0.1,0,0.5,0.2,0.6,0.2c0.2,0.2,0.2,0.6,0.3,0.8c1.1-0.9,0-0.4,1.5-0.6l-0.4-0.8l0.3-0.7
		l-0.4,0c-0.7,0.2-0.5-0.1-1.1-0.4c0,0.1,0,0.1-0.1,0.2c-0.1,0.3,0,0.4-0.1,0.6C542.7,395.6,542.2,395.5,542.4,395.9L542.4,395.9z
		 M562.5,394.2L562.5,394.2L562.5,394.2c-0.8-0.8-3.2-0.2-4.2,0.1c-0.9,0.2-1.7,0.5-2.5,0.8c-2.2,0.7-4.2,1.7-5,2.3
		c-0.3-0.5-1-2.2-1-2.7c0.7-0.8,1.6-1.3,2.4-2.2c1.2-0.8,0.5-0.9,2.2-1c1.7,0,3.3-0.1,5-0.1c2.7-0.2,5.7-0.2,8.4-0.2
		c0,0.1,0,0-0.2,0.2l-0.6,0.5c-0.2,0.2-0.6,0.4-0.7,0.7l-3.3,2.9L562.5,394.2L562.5,394.2z M550.8,389.1L550.8,389.1l0.4,1.8
		l0.6-0.5c0.7-1.4,1.4-0.8,2.8-0.8l-1-1.8l0.4-0.9l0.4-0.8c-0.1,0-0.1,0-0.1,0l-0.8,0.1c-0.3,0.1-0.7,0.2-1,0.2
		c-0.6-0.3-1-1-1.6-1.3c-0.1,0.4-0.1,1.4-0.2,1.7c0,0.5-0.8,0.6-1.4,1.1l-0.2,0.2C549.7,388.6,550.6,388.7,550.8,389.1L550.8,389.1
		L550.8,389.1z M544.4,401.2L544.4,401.2l4.6-0.2c-0.2-0.4-0.5-1-0.4-1.3l0.1-0.5c0.4-0.6,1-1.1,1.7-1.5c0.1-0.3-0.8-2.2-1-2.7
		l-6.9,6.1C543.2,401.3,543.7,401.2,544.4,401.2L544.4,401.2z M550.8,389.1L550.8,389.1C550.8,389.1,550.8,389.1,550.8,389.1
		L550.8,389.1L550.8,389.1z M563,396.3L563,396.3c-0.2-0.3-0.3-0.5-0.5-0.8C562.7,395.7,562.8,396,563,396.3L563,396.3z
		 M562.4,395.3L562.4,395.3C562.4,395.3,562.4,395.3,562.4,395.3C562.4,395.3,562.4,395.3,562.4,395.3z"/>
</g>
</svg>
